<svg width="28" height="49" viewBox="0 0 28 49" fill="none" xmlns="http://www.w3.org/2000/svg">
<path d="M22.9454 48.6039C22.3681 48.6057 21.7976 48.4931 21.276 48.2745C20.7544 48.0558 20.2948 47.7367 19.9311 47.3406L1.26554 26.8545C0.697144 26.2436 0.386414 25.4773 0.386414 24.6864C0.386414 23.8956 0.697144 23.1293 1.26554 22.5183L20.5881 2.03227C21.244 1.335 22.1866 0.896517 23.2085 0.813276C24.2304 0.730035 25.2478 1.00886 26.037 1.5884C26.8262 2.16795 27.3225 3.00075 27.4167 3.90359C27.511 4.80643 27.1954 5.70536 26.5394 6.40263L9.26507 24.7035L25.9597 43.0044C26.4323 43.5056 26.7325 44.1159 26.8248 44.763C26.917 45.4102 26.7976 46.0672 26.4805 46.6563C26.1634 47.2454 25.6619 47.7418 25.0354 48.087C24.4089 48.4322 23.6837 48.6115 22.9454 48.6039V48.6039Z" fill="white"/>
</svg>
