<svg width="706" height="413" viewBox="0 0 706 413" fill="none" xmlns="http://www.w3.org/2000/svg">
<path fill-rule="evenodd" clip-rule="evenodd" d="M673.688 475.788C599.571 514.564 515.403 432.542 431.963 426.665C407.308 424.928 388.363 447.949 364.401 454.004C335.507 461.306 307.099 464.972 277.308 465.748C224.759 467.119 169.286 484.065 122.391 460.315C67.3637 432.446 -4.16434 386.986 0.320317 325.467C5.02615 260.915 109.51 253.333 141.578 197.112C171.809 144.113 127.892 59.6617 174.439 20.2131C219.001 -17.5537 288.261 24.3165 346.665 23.298C403.396 22.3088 469.734 -21.5182 513.742 14.2965C560.725 52.5318 519.923 136.782 550.422 189.118C579.11 238.349 656.288 245.184 678.796 297.529C702.684 353.085 727.272 447.755 673.688 475.788Z" fill="#F7EAA7"/>
</svg>
