<svg width="589" height="560" viewBox="0 0 589 560" fill="none" xmlns="http://www.w3.org/2000/svg">
<path fill-rule="evenodd" clip-rule="evenodd" d="M9.05051 235.518C0.22763 183.327 -8.20363 124.783 19.6798 79.7911C47.278 35.2592 101.974 12.2278 153.455 2.51022C197.14 -5.7358 238.417 19.6359 281.561 30.3583C310.151 37.4637 336.36 47.56 364.853 55.0477C399.145 64.0595 435.091 62.7945 466.631 78.9939C511.744 102.165 572.504 119.944 586.25 168.762C599.428 215.566 543.701 253.864 528.91 300.183C512.011 353.1 525.656 414.958 493.227 460.058C457.554 509.669 403.603 564.274 342.716 559.127C278.941 553.737 253.27 471.195 200.283 435.297C159.706 407.807 103.301 409.373 69.41 373.967C33.9939 336.968 17.5876 286.019 9.05051 235.518Z" fill="#DF9595"/>
</svg>
