<svg width="28" height="48" viewBox="0 0 28 48" fill="none" xmlns="http://www.w3.org/2000/svg">
<path d="M22.559 47.8051C21.9817 47.8068 21.4112 47.6942 20.8896 47.4756C20.368 47.257 19.9084 46.9379 19.5447 46.5418L0.879129 26.0557C0.31073 25.4448 0 24.6785 0 23.8876C0 23.0968 0.31073 22.3304 0.879129 21.7195L20.2017 1.23344C20.8576 0.536174 21.8002 0.0976886 22.8221 0.0144478C23.844 -0.068793 24.8614 0.210029 25.6506 0.789575C26.4398 1.36912 26.9361 2.20192 27.0303 3.10476C27.1245 4.0076 26.809 4.90653 26.153 5.6038L8.87866 23.9047L25.5733 42.2056C26.0459 42.7067 26.3461 43.317 26.4384 43.9642C26.5306 44.6114 26.4112 45.2684 26.0941 45.8575C25.7769 46.4465 25.2755 46.943 24.649 47.2882C24.0225 47.6333 23.2973 47.8127 22.559 47.8051Z" fill="white"/>
</svg>
