<svg width="880" height="900" viewBox="0 0 880 900" fill="none" xmlns="http://www.w3.org/2000/svg">
<path fill-rule="evenodd" clip-rule="evenodd" d="M404.227 125.617C497.165 88.0935 573.257 -13.06 672.426 1.40463C766.253 15.0899 817.043 119.176 874.987 194.281C939.939 278.469 1003.05 363.669 1031.07 466.265C1064.53 588.757 1101.74 723.607 1051.41 840.177C1000.28 958.593 890.587 1104.34 762.758 1087.69C598.542 1066.31 569.602 764.565 404.227 755.902C252.401 747.949 205.934 1112.41 66.7318 1051.23C-64.7504 993.452 135.763 773.549 119.492 630.772C111.684 562.263 -3.11797 535.144 0.0649638 466.265C3.28692 396.54 90.0372 364.256 134.3 310.313C170.537 266.15 190.233 209.312 237.371 177.058C286.245 143.616 349.321 147.786 404.227 125.617Z" fill="#A6D4FF"/>
</svg>
