<svg width="28" height="48" viewBox="0 0 28 48" fill="none" xmlns="http://www.w3.org/2000/svg">
<path d="M22.9451 47.893C22.3677 47.8947 21.7973 47.7821 21.2757 47.5635C20.754 47.3449 20.2945 47.0258 19.9307 46.6297L1.26518 26.1436C0.696778 25.5327 0.386047 24.7663 0.386047 23.9755C0.386047 23.1847 0.696778 22.4183 1.26518 21.8074L20.5877 1.32133C21.2437 0.624064 22.1863 0.185579 23.2081 0.102338C24.23 0.0190976 25.2475 0.29792 26.0367 0.877465C26.8259 1.45701 27.3222 2.28981 27.4164 3.19265C27.5106 4.09549 27.195 4.99442 26.539 5.69169L9.2647 23.9926L25.9594 42.2935C26.4319 42.7946 26.7321 43.4049 26.8244 44.0521C26.9167 44.6993 26.7972 45.3563 26.4801 45.9454C26.163 46.5344 25.6615 47.0309 25.0351 47.3761C24.4086 47.7212 23.6833 47.9006 22.9451 47.893V47.893Z" fill="white"/>
</svg>
