<svg width="20" height="36" viewBox="0 0 20 36" fill="none" xmlns="http://www.w3.org/2000/svg">
<path d="M2.88914 35.308C2.23514 35.3091 1.60135 35.1079 1.09777 34.7392C0.81435 34.5316 0.580068 34.2767 0.408344 33.9889C0.236619 33.7012 0.130827 33.3864 0.0970265 33.0625C0.063226 32.7386 0.102082 32.412 0.211368 32.1014C0.320653 31.7908 0.49822 31.5022 0.733902 31.2524L13.2734 17.9973L1.18174 4.71749C0.949243 4.46453 0.775615 4.17347 0.670844 3.86104C0.566072 3.54861 0.532221 3.22096 0.571237 2.89694C0.610253 2.57291 0.721365 2.25889 0.898189 1.97292C1.07501 1.68696 1.31406 1.43469 1.60159 1.23061C1.8912 1.00548 2.23034 0.83567 2.59774 0.731833C2.96515 0.627996 3.35288 0.592376 3.7366 0.627207C4.12033 0.662039 4.49176 0.76657 4.82759 0.934241C5.16342 1.10191 5.4564 1.3291 5.68814 1.60156L19.2073 16.4393C19.619 16.8818 19.8441 17.4368 19.8441 18.0096C19.8441 18.5824 19.619 19.1375 19.2073 19.58L5.21231 34.4177C4.93152 34.717 4.57484 34.9536 4.17119 35.1083C3.76755 35.2629 3.32832 35.3314 2.88914 35.308Z" fill="white"/>
</svg>
