<svg width="29" height="49" viewBox="0 0 29 49" fill="none" xmlns="http://www.w3.org/2000/svg">
<path d="M4.64572 48.8723C3.74277 48.8739 2.86771 48.596 2.17244 48.087C1.78112 47.8004 1.45766 47.4484 1.22056 47.0511C0.983467 46.6539 0.837403 46.2192 0.790736 45.772C0.744068 45.3248 0.797715 44.8739 0.948603 44.445C1.09949 44.0162 1.34465 43.6178 1.67005 43.2728L18.983 24.9719L2.28837 6.63689C1.96737 6.28764 1.72764 5.88579 1.58299 5.45442C1.43833 5.02305 1.3916 4.57068 1.44546 4.12331C1.49933 3.67593 1.65274 3.24237 1.89688 2.84755C2.14101 2.45273 2.47106 2.10442 2.86805 1.82266C3.26789 1.51183 3.73614 1.27738 4.2434 1.13401C4.75067 0.990647 5.286 0.941468 5.8158 0.989559C6.34559 1.03765 6.85842 1.18197 7.32209 1.41347C7.78576 1.64497 8.19027 1.95865 8.51023 2.33481L27.1758 22.8209C27.7442 23.4318 28.0549 24.1981 28.0549 24.989C28.0549 25.7798 27.7442 26.5462 27.1758 27.1571L7.85326 47.6432C7.46558 48.0564 6.97312 48.383 6.41582 48.5965C5.85852 48.8101 5.25209 48.9046 4.64572 48.8723Z" fill="white"/>
</svg>
