<svg width="29" height="49" viewBox="0 0 29 49" fill="none" xmlns="http://www.w3.org/2000/svg">
<path d="M4.8437 48.6038C3.94075 48.6053 3.06569 48.3275 2.37042 47.8185C1.97911 47.5318 1.65564 47.1798 1.41854 46.7826C1.18145 46.3853 1.03539 45.9507 0.988718 45.5035C0.942051 45.0563 0.995698 44.6053 1.14659 44.1765C1.29747 43.7476 1.54263 43.3493 1.86803 43.0042L19.181 24.7034L2.48636 6.36833C2.16535 6.01909 1.92563 5.61723 1.78097 5.18587C1.63632 4.7545 1.58958 4.30213 1.64345 3.85475C1.69732 3.40738 1.85072 2.97382 2.09486 2.57899C2.339 2.18417 2.66904 1.83587 3.06603 1.55411C3.46588 1.24328 3.93412 1.00882 4.44139 0.865458C4.94865 0.722093 5.48398 0.672913 6.01378 0.721004C6.54357 0.769095 7.0564 0.913418 7.52007 1.14492C7.98375 1.37642 8.38825 1.69009 8.70821 2.06626L27.3738 22.5523C27.9422 23.1633 28.2529 23.9296 28.2529 24.7204C28.2529 25.5113 27.9422 26.2776 27.3738 26.8885L8.05124 47.3746C7.66357 47.7878 7.1711 48.1144 6.6138 48.328C6.0565 48.5416 5.45007 48.636 4.8437 48.6038Z" fill="white"/>
</svg>
