<svg width="21" height="36" viewBox="0 0 21 36" fill="none" xmlns="http://www.w3.org/2000/svg">
<path d="M16.9443 35.3081C16.5261 35.3094 16.1129 35.2279 15.7351 35.0695C15.3573 34.9112 15.0245 34.6801 14.761 34.3931L1.24184 19.5554C0.83016 19.1129 0.605103 18.5578 0.605103 17.985C0.605103 17.4122 0.83016 16.8572 1.24184 16.4147L15.2369 1.57696C15.712 1.07194 16.3947 0.754348 17.1348 0.694058C17.8749 0.633768 18.6119 0.835715 19.1835 1.25547C19.7551 1.67523 20.1145 2.27841 20.1828 2.93233C20.251 3.58624 20.0224 4.23732 19.5473 4.74234L7.03578 17.9974L19.1275 31.2525C19.4698 31.6155 19.6872 32.0575 19.754 32.5262C19.8209 32.995 19.7343 33.4708 19.5046 33.8975C19.275 34.3241 18.9118 34.6837 18.458 34.9337C18.0043 35.1837 17.479 35.3137 16.9443 35.3081V35.3081Z" fill="white"/>
</svg>
