<svg width="29" height="49" viewBox="0 0 29 49" fill="none" xmlns="http://www.w3.org/2000/svg">
<path d="M4.84331 48.8933C3.94036 48.8949 3.06529 48.617 2.37002 48.108C1.97871 47.8214 1.65524 47.4694 1.41815 47.0721C1.18105 46.6749 1.03499 46.2402 0.988322 45.793C0.941654 45.3458 0.995301 44.8949 1.14619 44.466C1.29708 44.0372 1.54224 43.6388 1.86764 43.2938L19.1806 24.9929L2.48596 6.65788C2.16495 6.30864 1.92523 5.90678 1.78057 5.47542C1.63592 5.04405 1.58918 4.59168 1.64305 4.1443C1.69692 3.69693 1.85033 3.26337 2.09446 2.86854C2.3386 2.47372 2.66865 2.12542 3.06563 1.84366C3.46548 1.53283 3.93373 1.29837 4.44099 1.15501C4.94825 1.01164 5.48359 0.962464 6.01338 1.01055C6.54318 1.05865 7.05601 1.20297 7.51968 1.43447C7.98335 1.66597 8.38786 1.97964 8.70781 2.35581L27.3734 22.8419C27.9418 23.4528 28.2525 24.2191 28.2525 25.01C28.2525 25.8008 27.9418 26.5672 27.3734 27.1781L8.05085 47.6642C7.66317 48.0773 7.1707 48.404 6.6134 48.6175C6.0561 48.8311 5.44967 48.9256 4.84331 48.8933Z" fill="white"/>
</svg>
