<svg width="1182" height="625" viewBox="0 0 1182 625" fill="none" xmlns="http://www.w3.org/2000/svg">
<path fill-rule="evenodd" clip-rule="evenodd" d="M561.103 977.818C481.624 951.952 397.005 934.953 335.67 878.181C275.483 822.471 269.373 731.769 222.545 664.445C155.26 567.71 10.5671 514.271 0.870563 396.847C-8.33869 285.325 70.3158 150.518 177.426 118.059C301.91 80.3354 416.272 259.047 543.587 232.383C643.526 211.452 634.999 14.3597 736.233 1.02662C823.774 -10.503 880.244 105.179 923.024 182.409C959.147 247.622 959.285 325.082 957.009 399.591C955.282 456.146 890.731 507.473 911.488 560.113C971.73 712.887 1205.11 801.374 1179.39 963.56C1160.67 1081.66 954.844 1038.02 835.278 1040.77C739.909 1042.97 651.815 1007.34 561.103 977.818Z" fill="#D5BCFF"/>
</svg>
