<svg width="21" height="35" viewBox="0 0 21 35" fill="none" xmlns="http://www.w3.org/2000/svg">
<path d="M16.9443 34.8975C16.5261 34.8987 16.1129 34.8172 15.7351 34.6589C15.3573 34.5005 15.0245 34.2694 14.761 33.9825L1.24184 19.1447C0.83016 18.7022 0.605103 18.1472 0.605103 17.5744C0.605103 17.0016 0.83016 16.4466 1.24184 16.0041L15.2369 1.16631C15.712 0.661292 16.3947 0.343704 17.1348 0.283414C17.8749 0.223123 18.6119 0.42507 19.1835 0.844827C19.7551 1.26458 20.1145 1.86777 20.1828 2.52168C20.251 3.1756 20.0224 3.82668 19.5473 4.3317L7.03578 17.5868L19.1275 30.8418C19.4698 31.2048 19.6872 31.6468 19.754 32.1156C19.8209 32.5843 19.7343 33.0602 19.5046 33.4869C19.275 33.9135 18.9118 34.2731 18.458 34.5231C18.0043 34.7731 17.479 34.903 16.9443 34.8975V34.8975Z" fill="white"/>
</svg>
