<svg width="20" height="35" viewBox="0 0 20 35" fill="none" xmlns="http://www.w3.org/2000/svg">
<path d="M2.88902 34.8974C2.23502 34.8985 1.60123 34.6973 1.09765 34.3286C0.814228 34.121 0.579946 33.866 0.408221 33.5783C0.236497 33.2906 0.130705 32.9757 0.0969044 32.6518C0.063104 32.3279 0.10196 32.0013 0.211246 31.6907C0.320531 31.3801 0.498098 31.0916 0.733779 30.8417L13.2733 17.5866L1.18162 4.30684C0.949121 4.05389 0.775493 3.76283 0.670722 3.4504C0.56595 3.13797 0.532099 2.81032 0.571115 2.48629C0.610131 2.16226 0.721243 1.84824 0.898067 1.56228C1.07489 1.27631 1.31394 1.02404 1.60147 0.819967C1.89107 0.594838 2.23022 0.425026 2.59762 0.321188C2.96503 0.217351 3.35276 0.181731 3.73648 0.216563C4.12021 0.251394 4.49164 0.355926 4.82747 0.523597C5.1633 0.691268 5.45628 0.918459 5.68802 1.19091L19.2072 16.0287C19.6189 16.4712 19.844 17.0262 19.844 17.599C19.844 18.1718 19.6189 18.7268 19.2072 19.1693L5.21219 34.0071C4.9314 34.3064 4.57471 34.5429 4.17107 34.6976C3.76743 34.8523 3.3282 34.9207 2.88902 34.8974Z" fill="white"/>
</svg>
