<svg width="689" height="634" viewBox="0 0 689 634" fill="none" xmlns="http://www.w3.org/2000/svg">
<path fill-rule="evenodd" clip-rule="evenodd" d="M225.814 842.01C148.695 774.103 205.669 641.45 175.646 543.178C166.775 514.141 132.03 502.559 114.528 477.749C93.4258 447.834 76.7062 416.872 62.6898 383.052C37.9667 323.398 -5.9066 267.252 0.666953 203.013C8.38043 127.635 28.9966 25.5834 101.517 3.62207C177.614 -19.4224 232.341 97.0497 310.94 109.053C385.033 120.369 462.526 32.8018 528.269 68.7968C591.21 103.257 573.712 201.126 600.611 267.65C626.74 332.269 706.225 389.03 684.545 455.275C661.399 525.996 546.812 516.326 500.234 574.358C456.421 628.946 482.586 720.457 432.477 769.33C379.295 821.201 281.569 891.105 225.814 842.01Z" fill="#F7EAA7"/>
</svg>
