<svg width="819" height="733" viewBox="0 0 819 733" fill="none" xmlns="http://www.w3.org/2000/svg">
<path fill-rule="evenodd" clip-rule="evenodd" d="M-28.5687 519.369C-102.935 414.828 -311.434 416.517 -329.1 289.459C-342.731 191.424 -173.414 172.086 -82.2289 133.428C-12.1143 103.703 65.2755 112.694 138.359 91.2792C219.06 67.6322 285.49 -4.94107 369.362 1.10233C457.216 7.43263 539.154 58.8269 597.913 124.392C656.587 189.863 662.728 282.972 695.182 364.664C734.576 463.825 851.375 559.416 809.782 657.699C766.76 759.362 598.962 723.191 513.741 793.413C434.357 858.826 441.364 1017.17 341.854 1043.27C243.874 1068.97 150.407 976.422 75.4323 908.376C15.4209 853.91 -17.3833 776.516 -38.3102 698.24C-53.9992 639.557 6.64582 568.872 -28.5687 519.369Z" fill="#3F95C6"/>
</svg>
