<svg version="1.1" id="Layer_1" xmlns="http://www.w3.org/2000/svg" xmlns:xlink="http://www.w3.org/1999/xlink" x="0px" y="0px"
	 width="100%" viewBox="0 0 1024 1024" enable-background="new 0 0 1024 1024" xml:space="preserve">
<path fill="#000000" opacity="1.000000" stroke="none" 
	d="
M679.527710,388.383698 
	C682.875854,389.985168 685.903198,391.374207 688.844177,392.926758 
	C694.838013,396.090851 695.565430,398.341797 694.057739,405.118622 
	C692.549683,411.896820 687.335083,417.047913 686.199524,423.938629 
	C685.956909,425.410492 685.409058,426.831390 685.156494,428.302338 
	C681.979858,446.800537 674.120178,462.284912 658.429199,473.658936 
	C650.100037,479.696594 643.866882,488.220276 637.741211,496.504913 
	C630.448608,506.367676 623.885498,516.842773 614.914978,525.296265 
	C609.790344,530.125427 602.773376,532.365417 596.039734,531.763733 
	C587.811646,531.028564 580.363464,532.630493 573.401733,536.177551 
	C565.294617,540.308167 557.093750,540.247131 548.596863,538.813477 
	C541.704468,537.650513 534.873596,536.138794 527.852173,535.786377 
	C525.896606,535.688293 523.728577,535.289429 522.081177,534.313965 
	C510.328918,527.355225 498.238159,528.936951 486.735840,533.954102 
	C469.151703,541.623901 450.841400,541.779785 432.366241,540.890564 
	C424.427582,540.508484 417.092560,537.719849 411.193207,531.898804 
	C409.069977,529.803711 406.550354,528.112488 404.229065,526.215637 
	C399.690491,522.507019 395.878906,518.558899 393.998627,512.530212 
	C391.520691,504.585205 385.763519,499.246033 377.198364,497.981018 
	C370.220856,496.950562 364.512421,493.112915 358.468597,490.070435 
	C354.904144,488.276093 353.556213,484.812836 354.210419,480.732666 
	C355.284149,474.035828 352.390137,469.262268 347.725525,464.533173 
	C342.187744,458.918823 335.794861,454.461884 329.924744,449.328247 
	C325.687805,445.622833 323.021393,440.696350 320.705750,435.795013 
	C317.726624,429.489319 315.746552,422.716522 314.265076,415.856995 
	C312.833679,409.229370 314.469208,403.654358 320.063965,399.492737 
	C325.395264,395.527100 330.278412,390.991852 336.318665,387.943665 
	C340.161438,386.004395 342.946136,382.528076 346.147583,379.647614 
	C359.011108,368.073914 369.286011,353.333435 386.513580,346.973907 
	C393.422516,344.423492 398.179016,339.267853 400.771759,331.878204 
	C404.860291,320.225342 414.665924,313.529968 424.316284,306.902771 
	C433.499420,300.596436 443.559937,297.351746 454.671692,295.339233 
	C467.152313,293.078827 479.476105,293.168030 491.926575,293.081848 
	C501.077454,293.018494 510.251038,293.579895 519.290955,291.389557 
	C521.169495,290.934387 523.314575,291.053772 525.242432,291.413910 
	C536.567505,293.529449 548.087585,293.669861 559.478882,294.995514 
	C568.210632,296.011719 576.880859,297.811218 585.460266,299.778137 
	C589.986206,300.815765 594.011902,303.154938 597.156433,306.993439 
	C600.938721,311.610443 606.317993,314.139923 611.723022,316.368164 
	C617.144165,318.602966 621.135254,322.241241 624.650208,326.933136 
	C632.123840,336.909302 638.261108,347.876923 647.112122,356.853333 
	C650.027222,359.809692 651.648499,363.846863 652.972595,367.809662 
	C656.337158,377.879059 663.391052,383.752380 673.469299,386.376495 
	C675.400085,386.879242 677.269897,387.616302 679.527710,388.383698 
M580.581665,383.382843 
	C578.753113,383.428406 576.916748,383.384766 575.098022,383.543365 
	C573.078613,383.719482 571.426392,384.695801 571.478882,386.915588 
	C571.660522,394.591461 566.678650,397.318939 560.747864,398.497009 
	C573.786804,401.125641 584.103149,396.783783 591.059753,384.675323 
	C587.818909,382.660828 584.578186,383.617920 580.581665,383.382843 
M420.016754,399.546753 
	C422.653748,399.421082 425.479065,400.496948 428.429596,398.299042 
	C425.339142,396.212830 423.301208,393.633820 423.085693,390.416595 
	C422.730591,385.115753 419.625732,384.353577 415.286133,384.635376 
	C412.813873,384.795898 410.309418,384.384369 407.822662,384.424835 
	C406.122711,384.452454 404.097290,383.956268 402.965912,386.428223 
	C407.948334,391.277496 411.628143,397.703735 420.016754,399.546753 
M554.630859,398.327942 
	C551.195923,396.319214 549.109741,393.111298 547.321594,389.742706 
	C546.344543,387.902130 545.193787,386.993225 543.066833,387.062622 
	C539.236206,387.187592 530.514343,394.208435 529.264648,398.879059 
	C533.484497,396.738251 537.629822,397.533630 541.682007,397.821320 
	C545.975037,398.126129 550.236389,398.890564 554.630859,398.327942 
M444.981567,399.591827 
	C450.931641,397.550842 457.448608,399.918274 464.066315,397.321747 
	C460.860626,394.358276 458.319458,391.484283 455.261841,389.350281 
	C452.862366,387.675659 449.562073,386.534882 447.442291,389.868073 
	C445.940796,392.229034 444.758209,394.773285 442.880798,396.921112 
	C441.325165,398.700775 442.154358,399.560760 444.981567,399.591827 
z"/>
</svg>