<svg version="1.1" id="Layer_1" xmlns="http://www.w3.org/2000/svg" xmlns:xlink="http://www.w3.org/1999/xlink" x="0px" y="0px"
	 width="100%" viewBox="0 0 1024 1024" enable-background="new 0 0 1024 1024" xml:space="preserve">
<path fill="#000000" opacity="1.000000" stroke="none" 
	d="
M356.635559,381.637756 
	C366.022797,371.847595 372.477875,360.231567 381.011017,350.210419 
	C384.618927,345.973389 389.488892,343.301361 393.345245,339.347504 
	C397.342194,335.249512 401.015472,330.917236 403.777405,326.017914 
	C415.705017,304.859833 434.751587,295.861450 457.915100,295.218811 
	C473.177765,294.795410 488.432281,297.049377 503.589966,299.178253 
	C506.237915,299.550171 508.636444,300.711761 511.070190,301.860779 
	C519.701660,305.935669 528.099182,306.176788 537.568604,303.024353 
	C558.418152,296.083374 579.547546,294.711639 599.962585,305.404236 
	C603.209290,307.104706 606.499695,308.721893 609.743896,310.427063 
	C616.665955,314.065399 622.639404,318.589172 625.697876,326.230255 
	C627.809631,331.505920 632.324768,334.983612 636.404358,338.595917 
	C641.154358,342.801849 646.184814,346.766846 649.611572,352.124054 
	C654.339417,359.515228 661.686035,362.997650 669.322449,365.823761 
	C677.885376,368.992798 685.279419,374.050049 692.741943,379.008545 
	C698.546082,382.865143 699.750854,393.766815 695.062927,399.233307 
	C691.760681,403.084045 689.167358,407.275696 687.106079,411.854950 
	C686.135742,414.010620 684.786865,415.887177 683.061829,417.506500 
	C678.888306,421.424347 675.209167,425.930328 672.976990,431.063599 
	C670.391785,437.008575 667.139648,442.178772 662.084412,446.133057 
	C654.953735,451.710846 651.513611,460.221283 645.627380,466.661102 
	C638.126038,474.868042 633.212952,485.322815 624.202026,492.057220 
	C613.521973,500.039154 603.569336,509.532288 589.215271,510.937897 
	C582.132996,511.631409 577.323853,517.074890 572.361389,521.135681 
	C561.052979,530.389404 548.249573,530.677856 534.985901,529.580566 
	C529.711243,529.144165 524.628784,527.861023 520.223572,524.196289 
	C517.371216,521.823425 513.113098,522.312073 509.595734,522.447815 
	C504.333099,522.650940 499.424103,521.781677 494.401062,520.490051 
	C486.929993,518.569092 479.644379,517.481628 472.452393,522.554932 
	C467.554260,526.010193 461.293579,526.894897 455.263855,527.049500 
	C448.701416,527.217957 442.435822,528.332153 436.189453,530.409180 
	C421.606812,535.258179 409.028381,531.409607 398.304901,520.759644 
	C395.141998,517.618469 393.289276,513.499451 392.253387,509.424438 
	C390.163086,501.201691 385.387543,495.204407 378.924591,490.170868 
	C375.315948,487.360260 372.653687,483.885284 370.958282,479.520416 
	C365.951477,466.629944 359.011414,455.102722 347.892731,446.335999 
	C343.610352,442.959412 339.855103,438.806641 336.305420,434.628815 
	C326.092346,422.608490 326.919159,409.098022 338.488007,397.061096 
	C343.924530,391.404572 350.340027,386.853912 356.635559,381.637756 
M565.564636,386.918823 
	C565.260437,390.831848 561.789856,392.605469 559.096802,395.286682 
	C566.067383,396.412964 572.039795,395.595581 577.689392,392.745392 
	C579.527527,391.818085 581.221497,390.805023 579.945312,388.169006 
	C577.893005,383.929688 570.107361,379.423492 565.216614,379.879791 
	C565.392029,381.980164 565.567566,384.082367 565.564636,386.918823 
M445.762177,380.081696 
	C444.896698,384.972168 446.440857,390.533325 440.235474,394.426117 
	C445.412933,394.123291 449.048218,393.982971 452.668549,393.670013 
	C454.631622,393.500244 456.680145,393.339386 457.481842,390.903168 
	C458.305664,388.399567 457.125427,386.814514 455.390900,385.278229 
	C452.730194,382.921570 449.752808,381.185455 445.762177,380.081696 
M415.444550,381.447784 
	C412.103485,383.574219 408.907379,385.823853 407.720734,390.542511 
	C412.923187,391.900543 416.708130,397.200897 424.292664,394.635193 
	C418.620422,391.216736 416.655212,387.108917 417.871063,381.589264 
	C418.120178,380.458252 416.714447,381.061523 415.444550,381.447784 
M538.293701,383.419922 
	C533.985229,383.890961 531.812317,387.438019 529.006531,390.007416 
	C527.755310,391.153198 528.437134,392.567657 529.783020,393.257294 
	C533.990845,395.413361 538.437561,395.675262 543.989197,395.264130 
	C540.603210,391.433624 538.401001,388.194977 538.293701,383.419922 
z"/>
</svg>