<?xml version="1.0" standalone="no"?>
<!DOCTYPE svg PUBLIC "-//W3C//DTD SVG 20010904//EN"
 "http://www.w3.org/TR/2001/REC-SVG-20010904/DTD/svg10.dtd">
<svg version="1.0" xmlns="http://www.w3.org/2000/svg"
 width="1920.000000pt" height="1920.000000pt" viewBox="0 0 1920.000000 1920.000000"
 preserveAspectRatio="xMidYMid meet">

<g transform="translate(0.000000,1920.000000) scale(0.100000,-0.100000)"
fill="#000000" stroke="none">
<path d="M7960 12353 c-68 -8 -266 -53 -327 -75 l-62 -21 29 -41 c17 -22 30
-43 30 -47 0 -4 -20 -11 -45 -15 -25 -3 -45 -10 -45 -14 0 -4 -21 -13 -46 -20
-45 -13 -47 -12 -66 11 l-19 24 11 -23 c6 -13 9 -26 6 -29 -13 -13 -148 -15
-191 -3 -25 7 -48 10 -51 7 -10 -9 105 -63 186 -87 41 -12 81 -24 89 -26 27
-8 -6 -26 -48 -28 -23 0 -41 -4 -41 -9 0 -5 21 -8 48 -7 78 3 88 1 113 -21 23
-20 23 -21 4 -32 -23 -12 -75 -66 -75 -77 0 -4 20 12 44 36 24 24 52 44 62 44
25 -1 58 -26 50 -39 -5 -7 3 -9 22 -5 37 8 64 -19 34 -35 -11 -6 -22 -17 -25
-25 -5 -12 1 -11 26 4 35 22 77 26 77 9 0 -6 -11 -20 -25 -31 -39 -30 -30 -40
11 -13 41 28 56 30 85 15 19 -11 18 -12 -8 -48 l-28 -36 40 31 c38 30 42 32
82 22 40 -11 42 -13 37 -43 l-4 -31 11 28 c10 27 14 28 53 22 22 -4 49 -12 59
-17 9 -5 22 -6 27 -3 6 3 11 -6 11 -22 1 -21 3 -23 6 -7 3 17 12 21 46 23 82
5 102 8 122 18 11 6 44 14 73 18 28 4 52 11 52 17 0 5 -9 7 -19 3 -43 -13
-140 -25 -212 -25 -112 0 -259 45 -461 143 -93 45 -168 87 -168 94 0 7 4 13 9
13 5 0 32 18 61 39 49 37 254 120 266 108 3 -3 0 -15 -6 -28 -16 -30 -8 -135
14 -181 20 -42 72 -85 125 -104 43 -16 162 -18 211 -4 109 30 179 144 152 244
-11 38 -11 38 16 31 15 -3 69 -25 119 -47 115 -50 204 -128 224 -199 12 -40
13 -41 17 -16 7 56 -92 205 -163 245 -17 9 -18 14 -7 32 12 20 12 20 -8 10
-24 -13 -62 -7 -82 13 -7 7 -38 23 -69 36 -51 20 -56 25 -52 49 3 26 3 26 -6
5 -12 -26 -13 -26 -63 -12 -21 5 -38 15 -38 21 0 8 -3 9 -10 2 -11 -11 -100 0
-132 17 -9 5 -19 5 -22 1 -5 -9 -58 -8 -74 2 -6 3 -14 1 -17 -5 -4 -5 -12 -8
-19 -6 -6 2 -34 1 -63 -3 -41 -5 -56 -3 -68 9 -13 13 -16 13 -13 2 5 -22 -50
-40 -62 -21 -8 13 -10 13 -10 -1 0 -16 -64 -39 -109 -39 -20 0 -61 43 -61 65
0 19 140 62 150 46 5 -10 9 -9 13 2 8 21 199 57 205 39 3 -10 7 -9 16 3 10 14
24 14 156 0 157 -17 228 -34 300 -70 52 -26 141 -95 212 -163 26 -25 50 -43
53 -40 3 3 -18 27 -48 54 -117 107 -203 162 -307 197 -67 22 -320 48 -390 40z
m10 -216 c0 -2 -14 -16 -32 -33 -18 -16 -26 -20 -18 -9 19 27 50 53 50 42z
m-73 -179 c-3 -7 -5 -2 -5 12 0 14 2 19 5 13 2 -7 2 -19 0 -25z"/>
<path d="M10528 12353 c7 -3 16 -2 19 1 4 3 -2 6 -13 5 -11 0 -14 -3 -6 -6z"/>
<path d="M10325 12339 c-92 -12 -160 -32 -229 -69 -58 -30 -178 -123 -230
-179 -54 -56 -16 -32 65 42 147 134 240 176 454 201 77 9 100 14 65 14 -30 -1
-86 -5 -125 -9z"/>
<path d="M10580 12343 c121 -18 202 -38 207 -50 4 -11 8 -11 13 -3 9 15 150
-28 150 -46 0 -21 -41 -64 -61 -64 -45 0 -109 23 -110 39 0 10 -2 11 -6 4 -2
-7 -15 -13 -28 -13 -14 0 -29 6 -36 13 -7 7 -30 11 -61 9 -27 -2 -55 1 -62 8
-10 8 -16 8 -21 0 -5 -8 -10 -8 -20 0 -7 6 -15 7 -18 3 -6 -9 -70 -8 -85 1 -6
3 -12 2 -14 -4 -1 -5 -33 -11 -70 -12 -37 -2 -68 -6 -68 -10 0 -4 -19 -12 -41
-18 -45 -12 -59 -6 -62 29 -1 11 -4 21 -8 21 -4 0 -5 -17 -2 -38 l5 -37 -53
-19 c-30 -11 -56 -22 -59 -26 -3 -4 -19 -14 -35 -23 -26 -13 -33 -13 -50 -1
-26 19 -40 18 -21 -2 22 -21 20 -28 -9 -44 -34 -18 -106 -104 -134 -157 -11
-23 -21 -57 -20 -75 0 -32 1 -32 10 -8 31 76 54 109 102 145 48 38 188 105
247 120 25 6 25 5 26 -60 2 -83 32 -145 92 -189 39 -28 53 -31 126 -34 106 -5
157 10 211 59 67 62 93 172 60 252 -7 16 -4 17 21 11 65 -16 211 -77 234 -98
14 -12 37 -30 53 -39 15 -10 27 -21 27 -25 0 -15 -314 -160 -415 -192 -117
-37 -235 -48 -342 -31 -39 6 -78 14 -87 17 -9 3 -16 2 -16 -4 0 -6 24 -13 53
-17 28 -4 61 -12 72 -18 20 -10 40 -13 122 -18 34 -2 43 -6 46 -23 3 -15 5
-13 6 8 1 24 3 27 16 16 9 -8 15 -8 15 -2 0 12 15 17 70 27 32 6 37 4 48 -22
l12 -28 -5 32 c-4 30 -2 33 35 43 33 9 44 8 65 -6 14 -9 30 -26 36 -36 6 -11
13 -17 16 -14 3 3 -6 21 -21 40 -14 19 -26 37 -26 40 0 2 13 7 29 11 32 7 62
-5 100 -39 l24 -21 -12 23 c-6 12 -23 29 -36 38 -52 34 8 47 62 14 32 -19 33
-19 21 0 -7 10 -21 23 -33 28 -19 9 -19 10 8 23 22 10 33 10 48 1 10 -7 19 -8
19 -3 0 5 -6 11 -12 14 -7 2 -9 8 -5 13 4 4 18 2 30 -5 20 -13 21 -13 9 2 -9
11 -10 17 -2 22 21 13 57 -5 94 -45 20 -22 36 -37 36 -32 0 11 -53 67 -75 80
-19 10 -19 11 4 31 25 22 35 24 114 21 26 -1 47 2 47 7 0 5 -18 9 -41 9 -42 2
-75 20 -48 27 129 37 269 94 269 110 0 5 -11 6 -27 1 -39 -12 -202 -11 -211 1
-4 6 -21 11 -38 11 -17 1 -46 9 -65 17 -19 9 -49 18 -66 22 -40 8 -41 16 -8
60 20 25 31 32 48 27 44 -10 10 6 -65 32 -94 32 -296 76 -340 75 -26 -1 -28
-3 -8 -6z m-360 -252 c0 -6 -4 -13 -10 -16 -5 -3 -11 -18 -11 -33 -1 -18 -3
-21 -6 -9 -6 24 5 67 17 67 6 0 10 -4 10 -9z"/>
<path d="M10431 12274 c0 -11 3 -14 6 -6 3 7 2 16 -1 19 -3 4 -6 -2 -5 -13z"/>
<path d="M7500 12190 c0 -5 5 -10 11 -10 5 0 7 5 4 10 -3 6 -8 10 -11 10 -2 0
-4 -4 -4 -10z"/>
<path d="M8487 12173 c-4 -3 -7 -11 -7 -17 0 -6 5 -5 12 2 6 6 9 14 7 17 -3 3
-9 2 -12 -2z"/>
<path d="M10050 12171 c0 -6 4 -13 10 -16 6 -3 7 1 4 9 -7 18 -14 21 -14 7z"/>
<path d="M11120 12139 c0 -5 5 -7 10 -4 6 3 10 8 10 11 0 2 -4 4 -10 4 -5 0
-10 -5 -10 -11z"/>
<path d="M7327 11989 c12 -12 25 -20 28 -17 3 3 -7 13 -22 23 l-28 17 22 -23z"/>
<path d="M11209 11989 c-23 -19 -23 -20 -2 -10 12 6 25 16 28 21 10 16 -1 12
-26 -11z"/>
<path d="M7230 11971 c0 -9 30 -24 36 -18 2 1 -6 8 -16 15 -11 7 -20 8 -20 3z"/>
<path d="M11296 11964 c-11 -8 -16 -14 -10 -14 13 0 39 18 34 24 -3 2 -14 -2
-24 -10z"/>
<path d="M7298 11943 c12 -2 30 -2 40 0 9 3 -1 5 -23 4 -22 0 -30 -2 -17 -4z"/>
<path d="M11218 11943 c12 -2 30 -2 40 0 9 3 -1 5 -23 4 -22 0 -30 -2 -17 -4z"/>
<path d="M7455 11895 c-51 -31 -43 -31 20 0 28 13 43 24 35 25 -8 0 -33 -11
-55 -25z"/>
<path d="M11073 11896 c27 -15 51 -26 55 -26 13 0 -53 38 -78 44 -14 4 -3 -4
23 -18z"/>
<path d="M7580 11869 c0 -5 5 -7 10 -4 6 3 10 8 10 11 0 2 -4 4 -10 4 -5 0
-10 -5 -10 -11z"/>
<path d="M7594 11794 c-18 -14 -18 -14 6 -3 31 14 36 19 24 19 -6 0 -19 -7
-30 -16z"/>
<path d="M10921 11806 c2 -2 15 -9 29 -15 24 -11 24 -11 6 3 -16 13 -49 24
-35 12z"/>
<path d="M8410 11756 c0 -2 8 -10 18 -17 15 -13 16 -12 3 4 -13 16 -21 21 -21
13z"/>
</g>
</svg>
