<?xml version="1.0" standalone="no"?>
<!DOCTYPE svg PUBLIC "-//W3C//DTD SVG 20010904//EN"
 "http://www.w3.org/TR/2001/REC-SVG-20010904/DTD/svg10.dtd">
<svg version="1.0" xmlns="http://www.w3.org/2000/svg"
 width="1920.000000pt" height="1920.000000pt" viewBox="0 0 1920.000000 1920.000000"
 preserveAspectRatio="xMidYMid meet">

<g transform="translate(0.000000,1920.000000) scale(0.100000,-0.100000)"
fill="#000000" stroke="none">
<path d="M10403 12334 c-147 -21 -324 -67 -311 -80 3 -2 39 4 79 15 149 41
242 55 369 55 146 0 267 -26 440 -93 57 -22 106 -38 109 -36 7 8 2 10 -97 49
-119 48 -253 82 -375 95 -110 13 -94 13 -214 -5z"/>
<path d="M8140 12313 c-76 -8 -208 -35 -270 -55 -118 -37 -220 -79 -220 -90 0
-6 7 -7 18 -3 88 39 243 91 315 106 188 41 323 35 566 -27 52 -13 97 -22 99
-19 14 14 -175 60 -327 80 -106 15 -116 15 -181 8z"/>
<path d="M10340 12245 c-119 -16 -229 -45 -305 -80 -92 -44 -165 -121 -165
-175 0 -27 10 -25 69 12 28 17 54 29 56 26 3 -3 -4 -26 -15 -52 -38 -90 -18
-120 25 -36 29 56 98 116 187 161 32 16 58 28 58 25 0 -2 -7 -20 -15 -39 -40
-97 3 -209 99 -259 32 -18 59 -22 128 -23 80 0 89 2 129 30 23 17 56 47 73 68
30 37 31 43 31 133 0 80 2 93 15 88 8 -3 51 -19 95 -34 186 -66 298 -130 280
-159 -14 -23 -305 -141 -347 -141 -9 0 -19 -4 -22 -9 -3 -5 14 -6 39 -3 35 3
46 1 51 -12 10 -25 24 -19 24 10 0 23 3 25 24 20 15 -4 26 -1 29 7 3 8 13 5
35 -10 39 -29 46 -29 31 -1 -10 18 -8 24 12 39 32 24 38 24 71 -8 31 -30 39
-14 13 24 -15 21 -13 24 37 58 29 19 64 35 78 35 28 0 109 38 149 69 l24 18
-52 -5 c-46 -4 -57 -1 -105 31 -239 159 -548 230 -836 192z m214 -147 c15 -25
-3 -52 -37 -56 -21 -3 -28 2 -33 22 -12 49 43 76 70 34z"/>
<path d="M8145 12223 c-208 -16 -420 -88 -577 -194 -44 -30 -67 -39 -99 -39
-37 0 -40 -2 -28 -17 19 -22 108 -63 139 -63 14 0 44 -13 68 -30 24 -16 48
-30 54 -32 8 -3 6 -12 -5 -28 -28 -40 -21 -57 11 -27 31 30 39 32 77 17 27
-10 27 -11 10 -36 -24 -37 -10 -42 25 -9 25 24 30 26 36 12 4 -12 13 -15 30
-11 21 5 24 3 24 -20 0 -14 5 -26 10 -26 6 0 10 6 10 13 0 14 100 37 163 37
19 0 42 3 51 6 35 14 12 19 -71 16 -99 -4 -256 27 -295 57 -13 10 -42 28 -65
39 -51 27 -61 41 -38 58 21 15 221 104 235 104 6 0 10 -24 10 -54 0 -61 25
-107 79 -143 50 -34 107 -46 196 -41 95 5 147 33 195 106 37 55 38 93 6 157
l-25 48 49 -6 c105 -13 262 -115 313 -205 30 -54 32 -55 35 -29 2 16 -4 47
-13 69 -9 22 -14 42 -12 45 3 2 28 -10 56 -27 66 -38 74 -38 66 3 -27 120
-224 217 -503 246 -99 11 -132 11 -217 4z m-40 -152 c0 -31 -28 -50 -52 -35
-41 25 -22 67 27 62 19 -2 25 -9 25 -27z m-158 -93 c-2 -13 -4 -5 -4 17 -1 22
1 32 4 23 2 -10 2 -28 0 -40z"/>
</g>
</svg>
