<svg version="1.1" id="Layer_1" xmlns="http://www.w3.org/2000/svg" xmlns:xlink="http://www.w3.org/1999/xlink" x="0px" y="0px"
	 width="100%" viewBox="0 0 1920 1920" enable-background="new 0 0 1920 1920" xml:space="preserve">
<path fill="#FFFFFF" opacity="1.000000" stroke="none" 
	d="
M1062.000000,1921.000000 
	C708.000000,1921.000000 354.500000,1921.000000 1.000000,1921.000000 
	C1.000000,1281.000000 1.000000,641.000000 1.000000,1.000000 
	C641.000000,1.000000 1281.000000,1.000000 1921.000000,1.000000 
	C1921.000000,641.000000 1921.000000,1281.000000 1921.000000,1921.000000 
	C1634.833374,1921.000000 1348.666626,1921.000000 1062.000000,1921.000000 
M993.500000,676.011536 
	C1040.897339,676.011536 1088.294678,676.011536 1135.612915,676.011536 
	C1135.612915,667.017883 1135.612915,658.761353 1135.612915,650.355896 
	C998.355774,650.355896 861.362366,650.355896 724.119629,650.355896 
	C724.119629,657.033936 724.253296,663.345520 724.071472,669.647949 
	C723.955017,673.685120 726.321594,675.245911 729.637268,675.844604 
	C731.575928,676.194641 733.622986,675.960938 735.621277,675.961304 
	C821.247498,675.977356 906.873779,675.990295 993.500000,676.011536 
z"/>
<path fill="#27221E" opacity="1.000000" stroke="none" 
	d="
M993.000000,676.007568 
	C906.873779,675.990295 821.247498,675.977356 735.621277,675.961304 
	C733.622986,675.960938 731.575928,676.194641 729.637268,675.844604 
	C726.321594,675.245911 723.955017,673.685120 724.071472,669.647949 
	C724.253296,663.345520 724.119629,657.033936 724.119629,650.355896 
	C861.362366,650.355896 998.355774,650.355896 1135.612915,650.355896 
	C1135.612915,658.761353 1135.612915,667.017883 1135.612915,676.011536 
	C1088.294678,676.011536 1040.897339,676.011536 993.000000,676.007568 
z"/>
</svg>