<svg version="1.1" id="Layer_1" xmlns="http://www.w3.org/2000/svg" xmlns:xlink="http://www.w3.org/1999/xlink" x="0px" y="0px"
	 width="100%" viewBox="0 0 1920 1920" enable-background="new 0 0 1920 1920" xml:space="preserve">
<path fill="#FFFFFF" opacity="1.000000" stroke="none" 
	d="
M1112.000000,1921.000000 
	C741.333313,1921.000000 371.166656,1921.000000 1.000000,1921.000000 
	C1.000000,1281.000000 1.000000,641.000000 1.000000,1.000000 
	C641.000000,1.000000 1281.000000,1.000000 1921.000000,1.000000 
	C1921.000000,641.000000 1921.000000,1281.000000 1921.000000,1921.000000 
	C1651.500000,1921.000000 1382.000000,1921.000000 1112.000000,1921.000000 
M892.000000,697.395203 
	C892.000000,683.979431 892.000000,670.563660 892.000000,657.329590 
	C838.941895,657.329590 786.555237,657.329590 734.339844,657.329590 
	C734.339844,672.726562 734.339844,687.791992 734.339844,702.842896 
	C786.947815,702.842896 839.215820,702.842896 892.000000,702.842896 
	C892.000000,701.252319 892.000000,699.811462 892.000000,697.395203 
M1015.500000,657.000000 
	C1000.742737,657.000000 985.985535,657.000000 971.306152,657.000000 
	C971.306152,672.659607 971.306152,687.723450 971.306152,702.703186 
	C1023.996887,702.703186 1076.380981,702.703186 1128.693970,702.703186 
	C1128.693970,687.340637 1128.693970,672.276733 1128.693970,657.000000 
	C1091.092285,657.000000 1053.796143,657.000000 1015.500000,657.000000 
z"/>
<path fill="#262626" opacity="1.000000" stroke="none" 
	d="
M892.000000,697.882935 
	C892.000000,699.811462 892.000000,701.252319 892.000000,702.842896 
	C839.215820,702.842896 786.947815,702.842896 734.339844,702.842896 
	C734.339844,687.791992 734.339844,672.726562 734.339844,657.329590 
	C786.555237,657.329590 838.941895,657.329590 892.000000,657.329590 
	C892.000000,670.563660 892.000000,683.979431 892.000000,697.882935 
z"/>
<path fill="#262626" opacity="1.000000" stroke="none" 
	d="
M1016.000000,657.000000 
	C1053.796143,657.000000 1091.092285,657.000000 1128.693970,657.000000 
	C1128.693970,672.276733 1128.693970,687.340637 1128.693970,702.703186 
	C1076.380981,702.703186 1023.996887,702.703186 971.306152,702.703186 
	C971.306152,687.723450 971.306152,672.659607 971.306152,657.000000 
	C985.985535,657.000000 1000.742737,657.000000 1016.000000,657.000000 
z"/>
</svg>