<svg version="1.1" id="Layer_1" xmlns="http://www.w3.org/2000/svg" xmlns:xlink="http://www.w3.org/1999/xlink" x="0px" y="0px"
	 width="100%" viewBox="0 0 1920 1920" enable-background="new 0 0 1920 1920" xml:space="preserve">
<path fill="#FFFFFF" opacity="1.000000" stroke="none" 
	d="
M1111.000000,1921.000000 
	C740.666687,1921.000000 370.833344,1921.000000 1.000000,1921.000000 
	C1.000000,1281.000000 1.000000,641.000000 1.000000,1.000000 
	C641.000000,1.000000 1281.000000,1.000000 1921.000000,1.000000 
	C1921.000000,641.000000 1921.000000,1281.000000 1921.000000,1921.000000 
	C1651.166626,1921.000000 1381.333374,1921.000000 1111.000000,1921.000000 
M1020.500000,681.000000 
	C1053.594116,681.000000 1086.688110,681.000000 1119.708252,681.000000 
	C1119.708252,671.016724 1119.708252,661.610779 1119.708252,652.287354 
	C993.351013,652.287354 867.285767,652.287354 741.291748,652.287354 
	C741.291748,661.983276 741.291748,671.389221 741.291748,681.000000 
	C834.222290,681.000000 926.861145,681.000000 1020.500000,681.000000 
z"/>
<path fill="#020600" opacity="1.000000" stroke="none" 
	d="
M1020.000000,681.000000 
	C926.861145,681.000000 834.222290,681.000000 741.291748,681.000000 
	C741.291748,671.389221 741.291748,661.983276 741.291748,652.287354 
	C867.285767,652.287354 993.351013,652.287354 1119.708252,652.287354 
	C1119.708252,661.610779 1119.708252,671.016724 1119.708252,681.000000 
	C1086.688110,681.000000 1053.594116,681.000000 1020.000000,681.000000 
z"/>
</svg>