<svg version="1.1" id="Layer_1" xmlns="http://www.w3.org/2000/svg" xmlns:xlink="http://www.w3.org/1999/xlink" x="0px" y="0px"
	 width="100%" viewBox="0 0 1024 1024" enable-background="new 0 0 1024 1024" xml:space="preserve">
<path fill="#000000" opacity="1.000000" stroke="none" 
	d="
M588.004150,580.189819 
	C590.853760,592.062317 593.586243,603.530579 596.227661,615.019653 
	C596.621887,616.734253 596.840027,618.720642 599.080933,618.160706 
	C601.407898,617.579285 600.518372,615.613464 600.063049,614.010986 
	C596.111145,600.101807 592.552795,586.069031 590.261719,571.808350 
	C587.656799,555.594116 584.950745,539.315491 586.580200,522.747314 
	C586.743408,521.087769 586.782776,519.498962 587.719177,517.977478 
	C597.799194,501.599487 603.024780,483.377747 607.543274,464.927002 
	C608.182617,462.316193 609.408020,461.074646 611.652405,459.894836 
	C628.443848,451.067871 638.865112,436.919373 645.039551,419.320587 
	C646.009949,416.554810 645.980225,413.763245 644.934937,411.010742 
	C640.919861,400.437805 634.932617,391.866394 622.684631,389.840881 
	C627.006592,366.988098 622.784180,345.169861 618.155334,323.390869 
	C615.562500,311.191101 612.121521,299.392334 606.066101,288.243988 
	C597.175598,271.876007 583.686157,260.963135 567.763489,252.258636 
	C548.232300,241.581482 527.179138,236.104065 505.406647,232.331482 
	C475.121826,227.084015 447.018921,233.293213 421.087128,248.553436 
	C404.248566,258.462494 391.317413,272.910980 382.165894,290.470123 
	C372.909058,308.231293 367.728241,327.052673 365.988129,347.008972 
	C364.520447,363.841400 367.151001,380.010406 372.014526,395.982727 
	C372.394623,397.231079 372.766083,398.482056 373.199066,399.923126 
	C369.869904,401.511688 367.052002,398.790588 363.858185,399.630463 
	C351.983002,402.753174 349.385345,409.456268 348.088806,420.993103 
	C346.839630,432.108948 351.601440,440.764740 359.143036,448.167755 
	C365.279205,454.191101 370.815125,461.074280 379.377716,464.040710 
	C380.473328,464.420288 381.555725,464.858063 382.677826,465.130707 
	C383.085693,465.229828 383.591614,464.925293 383.977386,464.824554 
	C384.627472,463.446869 383.869080,462.894226 382.894775,462.416443 
	C371.523254,456.840027 362.926819,448.089325 356.057892,437.755829 
	C350.209686,428.957947 351.811371,419.250305 354.973022,409.951263 
	C356.348755,405.905029 362.800476,402.741852 367.139648,403.827881 
	C371.776123,404.988312 376.944611,405.688446 378.442017,411.965118 
	C382.179779,427.633057 386.569580,443.147858 390.179382,458.843292 
	C395.156952,480.485596 402.656128,500.834686 417.282257,518.052063 
	C419.533447,520.702087 421.648193,523.432434 424.128632,525.903564 
	C427.022156,528.786194 428.254578,532.231506 428.529449,536.579102 
	C429.302673,548.809143 430.817627,560.993286 432.092468,573.190002 
	C432.541046,577.481934 432.862488,581.811401 433.122101,586.087402 
	C434.169556,603.339050 434.668854,620.624878 435.279053,637.901306 
	C435.352142,639.970337 435.774078,642.245544 434.115753,644.083191 
	C431.843323,644.479858 430.221588,643.213257 428.716187,641.961304 
	C422.773804,637.019531 413.114105,637.673523 408.115753,643.461914 
	C406.050995,645.853027 404.034302,648.285645 401.996704,650.700256 
	C397.521515,656.003357 389.518494,657.614685 383.726807,653.590149 
	C377.816284,649.483093 371.220856,646.687012 365.187653,642.801514 
	C355.091553,636.299377 346.095886,628.381287 336.347565,621.436890 
	C324.866943,613.258545 323.673248,600.780640 325.300690,587.701111 
	C326.335999,579.380615 328.062256,571.311584 331.217834,563.521667 
	C332.651581,559.982300 333.529755,556.221558 334.752502,552.592346 
	C339.509277,538.473999 335.919464,525.596497 329.917145,512.595459 
	C323.483032,498.659210 322.361725,483.864319 325.780823,468.732697 
	C328.114594,458.404114 331.699585,448.850983 337.651917,439.893646 
	C341.325317,434.365692 343.225677,427.569855 343.469696,420.529297 
	C343.877808,408.752289 348.699707,398.641754 356.481873,390.008911 
	C359.278595,386.906494 360.731995,383.400940 360.492859,379.589600 
	C359.972748,371.299286 362.030701,363.198578 361.143188,354.802368 
	C359.378326,338.106415 359.242645,321.234528 357.367432,304.555237 
	C356.052277,292.857269 357.788910,281.926086 362.187561,271.369354 
	C367.096130,259.588745 373.377808,248.455460 380.008881,237.549393 
	C382.679016,233.157791 386.501953,233.160477 389.517365,237.354309 
	C395.537292,245.726837 404.122406,248.024780 414.037903,244.407120 
	C424.643951,240.537476 433.707336,233.722656 444.068695,229.194809 
	C451.793213,225.819229 459.166870,221.311890 467.446014,219.210434 
	C481.304657,215.692841 495.151459,216.268555 508.794006,220.669876 
	C512.156982,221.754807 515.677063,221.833725 519.117920,222.408798 
	C529.762085,224.187820 540.377258,226.146515 550.981995,228.150085 
	C552.580505,228.452087 554.128845,229.242630 555.589294,230.016830 
	C567.468750,236.314407 580.182312,239.936859 593.371338,242.230225 
	C599.260986,243.254333 604.197083,246.091705 608.044495,250.959961 
	C619.466492,265.412384 625.106567,282.289062 627.472290,300.096497 
	C628.492676,307.777008 626.224243,315.804688 627.741638,323.813232 
	C628.468323,327.648651 629.414917,330.843048 632.413818,333.284546 
	C634.794495,335.222656 636.036560,337.838348 635.855591,340.738525 
	C635.261475,350.261841 640.282715,358.391693 642.092834,367.289856 
	C644.622070,379.723145 652.870911,389.279877 658.142395,400.323730 
	C659.253906,402.652252 660.104065,404.847687 659.416382,407.482056 
	C657.342896,415.425659 659.055054,423.312378 659.738281,431.243103 
	C660.269836,437.413971 663.872192,441.797699 667.853455,445.692749 
	C671.770020,449.524445 674.080994,453.771667 674.929565,459.059509 
	C676.226624,467.141785 678.944763,474.793152 681.816895,482.440247 
	C683.487732,486.888916 684.174500,491.609406 682.842651,496.560516 
	C680.173462,506.482849 675.081177,515.227783 670.487732,524.272217 
	C662.592590,539.817749 655.095764,555.567566 647.578308,571.301575 
	C645.977600,574.651978 643.944580,576.979004 640.311951,578.269836 
	C631.486511,581.405945 624.180420,587.141235 618.092712,593.960388 
	C612.420410,600.314270 608.059509,607.719971 609.071289,617.024414 
	C609.374939,619.817139 609.605469,622.846313 608.864014,625.484558 
	C605.676392,636.827026 605.139038,649.216980 596.380371,658.459900 
	C594.146240,660.817566 591.623047,663.063232 588.295227,662.933167 
	C579.452820,662.587402 572.413818,666.564697 566.491455,672.316040 
	C558.158325,680.408569 547.668579,683.288269 537.008606,686.092285 
	C524.947571,689.264771 512.638000,691.250549 500.558868,694.544067 
	C487.651031,698.063416 474.244019,696.327637 461.257568,692.459656 
	C454.461609,690.435486 447.453949,689.810669 440.554291,692.411499 
	C437.712769,693.482605 435.369904,693.119629 433.608032,690.401306 
	C431.325775,686.880005 430.348785,683.181152 431.615906,679.067993 
	C437.776428,679.303894 440.499603,676.173401 440.273315,668.970703 
	C439.918152,657.664246 439.214142,646.363098 439.131470,635.056213 
	C439.095123,630.083374 442.689148,626.130249 445.147797,622.136230 
	C450.601013,613.277588 456.724792,604.793945 463.986420,597.281677 
	C473.531219,587.407593 484.084137,578.914551 497.364807,574.430298 
	C499.997314,573.541443 502.521515,574.754028 505.219238,574.370544 
	C513.068848,573.254395 519.634094,569.260681 526.260376,565.554688 
	C542.092346,556.700073 556.531799,545.686096 571.578796,535.612427 
	C575.149658,533.221802 577.262512,529.102966 582.166626,526.743774 
	C582.526489,544.968201 584.221375,562.500183 588.004150,580.189819 
z"/>
<path fill="#000000" opacity="1.000000" stroke="none" 
	d="
M381.267334,301.398590 
	C390.889679,279.108154 405.685699,261.923370 426.712830,250.307648 
	C444.128876,240.686737 462.595734,234.106171 482.661896,234.831802 
	C519.384155,236.159729 554.079346,244.454910 583.824646,267.625275 
	C597.211853,278.053375 605.291931,292.157379 610.099243,307.987701 
	C616.733948,329.835449 620.150940,352.328339 620.151123,375.197327 
	C620.151184,385.523529 616.542603,395.394287 614.889038,405.534760 
	C612.034058,423.042572 608.847351,440.509583 605.241943,457.877899 
	C601.794556,474.485016 598.213989,491.244415 589.835876,506.176941 
	C583.534790,517.407471 574.393860,526.595398 563.890564,534.098328 
	C552.404358,542.303406 540.617065,550.045227 528.508667,557.378296 
	C509.583771,568.839661 491.584595,567.443420 473.151276,556.657776 
	C451.600311,544.047852 433.190033,527.542603 415.669373,510.100861 
	C410.045746,504.502533 406.956970,496.455994 403.596313,488.994476 
	C396.162598,472.490051 392.946259,454.759155 388.860046,437.359100 
	C385.134583,421.495331 379.226379,406.404968 374.733490,390.843872 
	C370.474304,376.092010 368.925293,361.102539 370.296844,345.573120 
	C371.648285,330.270782 375.464539,315.851501 381.267334,301.398590 
M574.207092,266.202728 
	C566.449524,261.737488 558.562439,259.255859 549.578064,262.943390 
	C545.203491,264.738922 539.120117,270.288208 539.058350,274.503052 
	C538.956543,281.443756 538.258484,288.497375 542.238831,294.911621 
	C543.406860,296.793793 544.730896,299.270508 542.623291,301.710846 
	C536.085205,296.175201 520.007935,295.020508 512.522644,303.140533 
	C509.070251,306.885712 504.918396,307.634796 500.214264,306.514313 
	C496.980957,305.744232 493.830933,306.104218 490.993195,307.677124 
	C484.079163,311.509277 476.601288,313.810822 469.085480,315.985443 
	C461.171265,318.275421 455.488586,322.670685 453.583435,331.076965 
	C452.367371,336.442902 448.997131,340.590851 445.755188,344.834991 
	C443.439087,347.867065 440.298920,350.420990 439.021820,354.075043 
	C436.770447,360.516663 432.464600,365.551910 428.664246,371.021118 
	C419.965942,383.539032 419.263794,398.517487 434.018311,407.175079 
	C437.325562,409.115723 439.905060,412.073242 442.327179,415.050018 
	C448.113678,422.161560 454.045166,424.126038 462.594360,420.845215 
	C468.907440,418.422485 475.469269,417.259552 482.037048,416.478577 
	C489.511200,415.589783 497.341553,416.041504 504.023010,419.502655 
	C513.012634,424.159546 521.994629,428.831573 531.023010,433.425476 
	C539.907898,437.946320 548.041992,439.612732 557.943481,434.868652 
	C569.702026,429.234772 581.733521,423.703796 594.716064,420.966797 
	C598.516785,420.165527 602.201355,418.506866 603.815430,414.661133 
	C607.736938,405.317566 612.169250,396.156097 614.450134,386.187256 
	C615.721069,380.632416 616.944031,375.022736 615.544067,369.396057 
	C612.563538,357.417206 610.482239,345.365082 610.289001,332.968414 
	C610.222778,328.721466 609.970886,324.180176 607.440002,320.450439 
	C603.462585,314.588989 601.559265,307.835693 598.812439,301.443146 
	C593.135620,288.231537 589.126587,273.867340 574.207092,266.202728 
M402.928253,282.428101 
	C395.814819,287.159363 392.991882,294.605438 390.609406,302.239258 
	C388.010040,310.567841 390.425446,313.873505 399.026398,313.829285 
	C402.548187,313.811218 405.441772,314.598816 407.981720,317.241089 
	C411.548187,320.951294 415.593903,320.760742 419.685455,317.891846 
	C422.678345,315.793365 425.512207,313.338043 428.766998,311.767120 
	C439.303284,306.681671 444.618134,295.931946 453.682404,289.243439 
	C456.576050,287.108215 455.774475,284.231628 453.142944,281.594910 
	C447.975555,276.417328 441.586761,272.742035 436.501495,267.424133 
	C434.034576,264.844421 430.254150,265.254150 427.286713,267.412018 
	C425.355896,268.816071 423.173126,269.424805 421.118408,270.409698 
	C414.753052,273.460907 407.754425,275.685425 402.928253,282.428101 
M509.014465,508.532959 
	C516.084839,506.187988 524.159851,506.932526 530.353271,501.710571 
	C522.758301,502.686401 515.007935,502.332153 507.686188,503.987000 
	C494.824249,506.894073 483.244049,504.251099 471.744568,498.007690 
	C474.037506,504.259094 479.330902,506.036346 484.532074,507.522614 
	C492.262817,509.731720 500.242950,508.822327 509.014465,508.532959 
z"/>
<path fill="#000000" opacity="1.000000" stroke="none" 
	d="
M637.682495,427.470581 
	C633.972107,433.808441 630.286499,439.726257 625.703491,444.994324 
	C621.470825,449.859680 616.602722,453.956665 610.347717,456.721527 
	C609.009949,453.360931 610.577637,450.733063 611.039978,448.128815 
	C613.787415,432.654755 616.873230,417.240662 619.607666,401.764465 
	C620.877991,394.574524 625.566589,392.299835 631.017334,397.351501 
	C641.577209,407.138153 644.750916,414.652313 637.682495,427.470581 
z"/>
<path fill="#000000" opacity="1.000000" stroke="none" 
	d="
M547.365112,315.328735 
	C545.473938,310.057098 543.782532,305.055817 547.031433,299.674438 
	C551.266113,302.404694 555.733154,304.313141 556.382385,310.021484 
	C556.709778,312.901031 557.459106,315.786560 554.607483,317.699188 
	C551.613403,319.707428 549.780151,316.913055 547.365112,315.328735 
z"/>
</svg>