<?xml version="1.0" standalone="no"?>
<!DOCTYPE svg PUBLIC "-//W3C//DTD SVG 20010904//EN"
 "http://www.w3.org/TR/2001/REC-SVG-20010904/DTD/svg10.dtd">
<svg version="1.0" xmlns="http://www.w3.org/2000/svg"
 width="1920.000000pt" height="1920.000000pt" viewBox="0 0 1920.000000 1920.000000"
 preserveAspectRatio="xMidYMid meet">

<g transform="translate(0.000000,1920.000000) scale(0.100000,-0.100000)"
fill="#000000" stroke="none">
<path d="M10130 9999 c-25 -4 -153 -5 -285 -2 l-240 5 -83 -31 c-94 -35 -108
-36 -243 -19 -77 9 -131 9 -270 -2 -96 -8 -220 -14 -276 -14 -101 -1 -129 -12
-67 -28 16 -4 47 -11 69 -17 53 -14 132 -14 296 1 110 9 155 9 237 -2 79 -10
116 -11 169 -2 74 13 198 56 225 80 13 11 24 12 45 5 34 -12 464 -10 511 1 18
5 31 13 29 19 -4 14 -57 16 -117 6z"/>
</g>
</svg>
