<?xml version="1.0" standalone="no"?>
<!DOCTYPE svg PUBLIC "-//W3C//DTD SVG 20010904//EN"
 "http://www.w3.org/TR/2001/REC-SVG-20010904/DTD/svg10.dtd">
<svg version="1.0" xmlns="http://www.w3.org/2000/svg"
 width="1920.000000pt" height="1920.000000pt" viewBox="0 0 1920.000000 1920.000000"
 preserveAspectRatio="xMidYMid meet">

<g transform="translate(0.000000,1920.000000) scale(0.100000,-0.100000)"
fill="#000000" stroke="none">
<path d="M9601 12451 c-8 -6 -9 -11 -3 -15 6 -3 14 -1 17 5 9 14 2 20 -14 10z"/>
<path d="M9407 12415 c-15 -15 -12 -55 4 -55 16 0 19 18 3 24 -14 5 -12 9 7
26 13 11 19 19 12 20 -6 0 -18 -7 -26 -15z"/>
<path d="M9500 12419 c0 -5 5 -7 10 -4 6 3 10 8 10 11 0 2 -4 4 -10 4 -5 0
-10 -5 -10 -11z"/>
<path d="M9477 12414 c-11 -11 -8 -26 3 -19 6 3 10 1 10 -6 0 -7 3 -10 6 -6 3
3 2 13 -3 22 -5 8 -12 12 -16 9z"/>
<path d="M9430 12394 c0 -8 5 -12 10 -9 18 11 10 -4 -16 -30 l-26 -26 33 3
c34 3 35 3 30 63 -1 20 -31 19 -31 -1z"/>
<path d="M9554 12397 c-8 -21 2 -35 16 -21 5 5 6 15 0 24 -8 12 -10 12 -16 -3z"/>
<path d="M9529 12365 c-1 -3 -2 -10 -3 -15 0 -6 -7 -15 -15 -19 -7 -5 -9 -11
-4 -14 5 -3 17 3 26 14 9 10 12 19 6 19 -5 0 -7 5 -4 10 3 6 4 10 1 10 -3 0
-7 -2 -7 -5z"/>
<path d="M9389 12309 c-12 -7 -11 -9 2 -9 9 0 22 -7 29 -15 10 -12 9 -16 -3
-21 -9 -3 -13 -12 -10 -20 3 -8 -2 -26 -12 -40 -9 -14 -14 -28 -12 -31 3 -3
12 8 20 23 8 15 17 22 20 17 7 -12 -29 -90 -55 -119 -10 -11 -20 -35 -23 -52
-2 -17 -6 -36 -10 -41 -3 -6 4 -15 15 -21 24 -13 28 -45 4 -36 -8 3 -12 2 -9
-3 3 -5 -3 -12 -12 -14 -13 -3 -12 -5 5 -6 13 0 20 -5 17 -11 -4 -6 -10 -8
-14 -6 -4 3 -5 -8 -3 -25 4 -25 2 -28 -13 -22 -15 5 -17 2 -12 -23 3 -16 4
-23 1 -16 -9 20 -27 14 -21 -8 3 -10 1 -20 -5 -22 -5 -2 0 -14 12 -28 12 -14
17 -26 11 -28 -15 -5 -14 -39 2 -45 9 -3 9 -9 0 -25 -11 -18 -10 -20 3 -15 13
5 15 2 7 -13 -4 -10 -8 -59 -7 -109 1 -52 -3 -96 -10 -104 -14 -18 -17 -204
-2 -213 8 -6 7 -8 -1 -8 -7 0 -13 -8 -13 -17 0 -15 2 -16 10 -3 6 9 10 10 10
3 0 -6 -5 -15 -10 -18 -8 -5 -7 -11 0 -21 7 -7 10 -19 8 -26 -3 -7 1 -35 8
-63 18 -66 19 -154 2 -137 -17 17 -26 15 -39 -10 -10 -18 -9 -20 4 -15 36 14
33 -84 -4 -158 -11 -22 -18 -30 -16 -17 3 12 1 19 -4 16 -6 -3 -20 1 -32 9
-25 16 -48 12 -41 -7 3 -7 -4 -12 -16 -12 -11 0 -20 6 -20 14 0 7 5 10 12 6 7
-5 8 -3 4 5 -6 9 -13 8 -27 -5 -11 -9 -22 -14 -26 -11 -3 4 -1 7 6 7 7 0 9 5
6 10 -3 6 -1 10 6 10 9 0 9 3 0 14 -6 8 -10 19 -9 26 2 7 -3 14 -10 16 -7 1
-8 0 -2 -3 7 -3 6 -11 -1 -24 -5 -11 -15 -16 -21 -13 -7 4 -8 3 -4 -4 5 -8 -1
-11 -17 -10 -16 1 -23 7 -19 16 4 11 6 11 13 0 7 -10 9 -9 9 5 0 10 5 15 10
12 6 -3 10 1 10 9 0 21 -17 29 -24 11 -3 -8 -11 -15 -18 -15 -10 0 -10 2 0 9
10 6 7 10 -13 15 -21 5 -24 10 -15 21 8 10 8 15 -1 21 -7 4 -9 3 -6 -3 4 -6 0
-16 -8 -23 -11 -9 -15 -9 -15 -1 0 7 -5 9 -10 6 -6 -4 -1 -15 12 -26 22 -18
22 -19 3 -17 -11 2 -23 8 -27 13 -5 6 -12 4 -18 -5 -6 -10 -10 -11 -10 -2 0
20 -31 14 -37 -7 -3 -13 -12 -18 -25 -16 -18 4 -20 0 -16 -30 2 -19 0 -36 -4
-37 -5 -2 10 -23 32 -48 22 -24 43 -52 46 -62 3 -10 9 -18 14 -18 7 0 23 -37
21 -51 -1 -11 49 -17 55 -8 7 12 24 11 24 -1 0 -6 -5 -9 -12 -8 -6 2 -14 -5
-16 -14 -5 -27 17 -21 30 7 13 30 44 29 41 0 -1 -17 1 -16 17 5 15 19 22 22
31 13 6 -6 18 -9 25 -6 12 4 19 -12 16 -38 -1 -4 8 -9 18 -12 13 -3 20 0 20 9
0 8 5 14 10 14 6 0 10 -4 10 -9 0 -5 9 -7 20 -4 14 4 20 0 20 -11 0 -10 9 -16
24 -16 14 0 28 -5 32 -11 4 -6 16 -8 33 -3 26 7 126 15 189 14 21 -1 31 3 27
10 -3 5 0 7 9 4 8 -3 30 -1 50 4 22 6 38 7 42 1 8 -14 31 -11 48 6 9 9 21 15
28 14 27 -3 38 2 38 17 0 8 4 13 9 9 6 -3 19 4 30 16 11 12 24 18 30 15 10 -7
68 28 83 49 5 6 8 4 8 -5 0 -13 1 -13 10 0 14 22 12 33 -6 26 -12 -4 -15 -2
-10 9 5 14 -6 19 -41 18 -18 -1 -16 23 3 52 10 15 12 25 5 25 -6 0 -11 4 -11
9 0 4 12 6 28 3 24 -5 26 -4 13 11 -7 10 -22 17 -32 17 -11 0 -19 5 -19 11 0
5 5 7 10 4 20 -12 10 24 -11 38 -13 9 -16 17 -10 22 6 3 11 0 11 -7 0 -10 3
-9 9 2 12 18 2 35 -12 21 -6 -6 -17 -11 -24 -11 -11 0 -11 5 -2 21 9 17 8 23
-2 30 -22 14 -33 10 -19 -6 9 -10 9 -15 1 -15 -6 0 -11 4 -11 9 0 5 -9 7 -20
4 -12 -3 -20 0 -20 7 0 7 7 10 16 6 11 -4 15 -2 11 8 -3 8 0 19 7 25 8 6 16
29 20 51 5 31 10 38 23 33 12 -5 14 -3 7 8 -5 8 -10 25 -10 39 -3 54 -3 56
-14 40 -8 -13 -10 -12 -10 3 0 9 7 17 16 17 14 0 14 1 0 16 -9 8 -21 12 -27 8
-7 -4 -9 -3 -5 4 10 17 -11 24 -27 8 -8 -8 -23 -13 -34 -10 -17 5 -19 14 -18
72 1 50 -3 70 -14 79 -14 11 -14 12 -1 13 13 0 13 2 1 9 -12 8 -12 12 -2 25
11 14 11 16 -3 16 -9 0 -20 8 -23 18 -4 9 -14 23 -22 30 -14 11 -14 11 0 6 12
-4 18 2 21 20 3 14 1 23 -3 20 -13 -8 -11 10 3 24 15 15 8 15 -26 2 -25 -9
-37 2 -16 15 6 4 7 11 4 17 -4 6 -13 0 -21 -16 -11 -22 -12 -30 -2 -42 10 -12
9 -17 -1 -27 -8 -8 -11 -8 -7 -1 4 7 -2 23 -13 36 -11 14 -16 29 -12 33 4 5 2
5 -5 1 -6 -3 -15 -1 -18 5 -4 5 -14 8 -24 5 -14 -5 -13 -4 2 8 24 18 21 24 -9
20 -22 -2 -23 0 -12 14 10 12 10 14 1 8 -20 -12 -15 21 5 34 12 8 12 10 2 7
-9 -3 -25 2 -35 10 -18 14 -18 15 -2 9 13 -4 17 -2 14 6 -2 7 -11 12 -20 12
-13 -1 -13 2 -4 17 6 10 16 15 22 11 5 -3 4 2 -4 12 -10 12 -16 14 -22 5 -5
-8 -8 -6 -11 7 -4 17 -6 16 -16 -6 -10 -24 -11 -24 -11 10 0 19 3 30 7 25 4
-6 13 -10 20 -9 6 1 31 3 55 4 l42 2 -35 9 c-19 4 -43 6 -54 2 -12 -3 -16 -1
-12 6 4 6 14 11 22 11 8 0 14 6 14 14 0 19 18 24 58 18 25 -4 32 -1 32 12 0
21 -47 21 -74 1 -11 -8 -27 -15 -35 -15 -14 0 -14 1 -1 10 13 8 13 10 -2 10
-9 0 -19 4 -22 8 -3 5 5 8 17 8 14 -1 21 4 19 13 -2 8 3 11 13 8 18 -8 20 4 3
21 -9 9 -7 12 11 12 17 0 21 -4 16 -19 -5 -16 -2 -18 15 -14 12 3 20 0 20 -7
0 -7 6 -5 16 5 12 12 19 13 30 4 11 -9 14 -9 14 1 0 7 7 10 15 6 8 -3 15 -1
15 4 0 6 -7 10 -15 10 -8 0 -15 9 -15 20 0 11 -7 20 -15 20 -8 0 -15 -5 -15
-11 0 -5 -5 -7 -11 -3 -6 3 -15 0 -20 -7 -7 -12 -13 -11 -36 3 -39 23 -39 41
-1 55 28 11 30 10 16 -1 -10 -7 -18 -16 -18 -19 0 -9 32 4 47 19 7 6 10 14 7
17 -4 3 -3 11 1 17 6 9 9 9 15 0 5 -8 7 -3 7 13 -1 15 -7 27 -13 27 -7 0 -12
17 -12 40 -1 29 3 38 11 33 7 -4 6 0 -2 10 -15 18 -26 23 -16 7 3 -5 2 -10 -4
-10 -5 0 -12 -14 -16 -30 -5 -24 -10 -29 -20 -20 -15 12 -30 -3 -20 -20 3 -5
1 -10 -6 -10 -10 0 -10 -3 -2 -11 6 -6 9 -18 6 -25 -4 -10 0 -12 12 -8 11 5
13 10 6 17 -16 16 -13 27 5 27 8 0 13 -4 10 -9 -4 -5 3 -7 14 -4 11 3 20 1 20
-5 0 -19 -31 -42 -56 -42 -16 0 -28 -8 -36 -25 -6 -13 -15 -22 -20 -19 -5 3
-4 12 3 20 6 8 13 30 15 50 2 28 0 33 -10 24 -10 -7 -16 -7 -24 3 -8 10 -6 16
9 25 24 15 25 33 2 26 -15 -5 -16 -4 -3 5 13 9 12 11 -4 11 -18 0 -18 1 -4 13
9 6 18 19 22 27 3 8 4 3 1 -11 -3 -16 1 -31 9 -38 11 -9 13 1 15 57 0 37 -3
73 -8 81 -10 16 -35 5 -28 -13 3 -7 1 -19 -4 -27 -7 -11 -10 -9 -15 9 -5 18
-9 20 -20 11 -15 -12 -19 -1 -6 17 7 11 22 14 69 15 15 1 20 6 18 20 -2 10 3
23 12 27 11 7 12 11 4 16 -6 4 -14 0 -17 -8 -3 -9 -12 -16 -20 -16 -8 0 -14
-6 -14 -14 0 -8 -7 -17 -16 -20 -13 -5 -15 0 -10 27 6 31 5 31 -5 5 -11 -28
-35 -43 -44 -28 -3 4 -1 20 4 33 12 32 -16 71 -40 56z m61 -193 c0 -2 -7 -7
-16 -10 -8 -3 -12 -2 -9 4 6 10 25 14 25 6z m27 -132 c-3 -3 -12 -4 -19 -1 -8
3 -5 6 6 6 11 1 17 -2 13 -5z m61 -99 c-12 -9 -68 -22 -68 -15 0 10 52 29 63
23 5 -3 7 -6 5 -8z m-62 -42 c-10 -11 -37 -12 -30 -2 3 5 12 9 21 9 9 0 13 -3
9 -7z m-43 -63 c-3 -11 -9 -17 -15 -14 -5 3 -5 11 1 18 6 7 7 17 3 21 -4 5 -2
5 5 2 6 -4 9 -16 6 -27z m-3 -89 c5 -11 7 -27 3 -37 -6 -16 -7 -16 -14 2 -9
22 -11 54 -4 54 2 0 9 -9 15 -19z m176 -228 c-9 -10 -46 -11 -46 -1 0 5 7 7
16 4 13 -5 15 -2 11 16 -6 22 -5 22 8 4 8 -11 13 -21 11 -23z m69 -110 c9 -18
23 -33 31 -33 12 0 13 4 3 23 -6 12 -18 30 -27 40 -8 9 -13 20 -10 23 10 9 47
-51 53 -86 3 -18 8 -37 10 -41 6 -9 -24 -21 -36 -13 -12 7 -11 -3 3 -26 15
-23 3 -39 -15 -20 -9 10 -9 11 1 6 15 -9 16 10 1 19 -6 4 -8 13 -5 21 7 17 -3
44 -16 44 -5 0 -7 -4 -3 -9 3 -5 1 -12 -4 -16 -6 -3 -8 5 -5 20 3 19 0 25 -14
25 -19 0 -59 36 -50 45 3 3 13 -4 23 -15 28 -30 39 -24 16 9 -12 16 -21 40
-21 53 1 22 1 22 25 -7 14 -16 32 -45 40 -62z m-745 -547 c0 -3 -4 -8 -10 -11
-5 -3 -10 -1 -10 4 0 6 5 11 10 11 6 0 10 -2 10 -4z m182 -48 c-7 -7 -12 -8
-12 -2 0 14 12 26 19 19 2 -3 -1 -11 -7 -17z m2 -210 c-3 -4 -11 -5 -19 -1
-21 7 -19 12 4 10 11 0 18 -5 15 -9z"/>
<path d="M9530 12298 c-10 -18 -10 -21 0 -11 7 6 20 9 29 6 9 -3 12 -1 6 4 -5
4 -13 12 -17 16 -3 5 -12 -2 -18 -15z"/>
<path d="M9385 12279 c-4 -6 -5 -12 -2 -15 2 -3 7 2 10 11 7 17 1 20 -8 4z"/>
<path d="M9552 12080 c0 -14 2 -19 5 -12 2 6 2 18 0 25 -3 6 -5 1 -5 -13z"/>
<path d="M9662 12000 c0 -14 2 -19 5 -12 2 6 2 18 0 25 -3 6 -5 1 -5 -13z"/>
<path d="M10940 11983 c-30 -14 -84 -36 -120 -48 -36 -13 -56 -24 -45 -24 41
-1 143 29 215 63 68 33 71 36 40 35 -19 0 -60 -12 -90 -26z"/>
<path d="M9936 11971 c-11 -4 -15 -10 -9 -14 5 -3 19 0 29 8 20 15 11 18 -20
6z"/>
<path d="M9605 11910 c-44 -20 -36 -26 14 -9 17 6 31 15 31 20 0 5 -1 9 -2 8
-2 0 -21 -9 -43 -19z"/>
<path d="M9666 11915 c4 -8 10 -15 15 -15 4 0 6 7 3 15 -4 8 -10 15 -15 15 -4
0 -6 -7 -3 -15z"/>
<path d="M9305 11900 c-3 -5 -1 -10 4 -10 6 0 11 5 11 10 0 6 -2 10 -4 10 -3
0 -8 -4 -11 -10z"/>
<path d="M10370 11900 c36 -12 72 -12 65 0 -3 6 -25 10 -48 9 -36 -1 -38 -2
-17 -9z"/>
<path d="M9705 11830 c-3 -6 -10 -8 -15 -5 -5 3 -12 0 -16 -6 -5 -9 1 -10 21
-5 19 5 31 3 36 -6 6 -8 9 -9 9 -2 0 18 -27 37 -35 24z"/>
<path d="M9648 11743 c7 -3 16 -2 19 1 4 3 -2 6 -13 5 -11 0 -14 -3 -6 -6z"/>
<path d="M9565 11672 c-5 -4 -11 -12 -12 -18 -2 -9 4 -9 22 -1 13 7 21 15 19
19 -6 10 -16 10 -29 0z"/>
<path d="M9658 11633 c6 -2 18 -2 25 0 6 3 1 5 -13 5 -14 0 -19 -2 -12 -5z"/>
<path d="M9280 11596 c0 -8 5 -18 10 -21 6 -3 10 1 10 9 0 8 -4 18 -10 21 -5
3 -10 -1 -10 -9z"/>
<path d="M9860 11551 c0 -5 7 -12 16 -15 14 -5 15 -4 4 9 -14 17 -20 19 -20 6z"/>
<path d="M9148 11443 c7 -3 16 -2 19 1 4 3 -2 6 -13 5 -11 0 -14 -3 -6 -6z"/>
<path d="M9129 11407 c6 -8 7 -18 3 -22 -4 -5 2 -5 12 -1 12 4 23 2 28 -6 6
-10 8 -10 8 0 0 8 -9 16 -20 19 -11 3 -20 9 -20 14 0 5 -5 9 -11 9 -8 0 -9 -4
0 -13z"/>
<path d="M9730 11400 c-8 -5 -12 -11 -9 -14 2 -3 11 -1 19 4 8 5 12 11 9 14
-2 3 -11 1 -19 -4z"/>
<path d="M9831 11284 c0 -11 3 -14 6 -6 3 7 2 16 -1 19 -3 4 -6 -2 -5 -13z"/>
<path d="M9175 11200 c-10 -11 -15 -20 -11 -20 11 0 39 30 34 36 -3 2 -13 -5
-23 -16z"/>
<path d="M9124 10986 c-1 -21 4 -37 12 -40 8 -3 14 -1 14 4 0 6 -5 10 -11 10
-8 0 -8 4 0 13 8 10 7 18 -2 30 -10 15 -12 13 -13 -17z"/>
<path d="M9137 10919 c12 -12 24 -21 27 -18 2 2 -8 13 -22 23 l-27 19 22 -24z"/>
<path d="M9036 10883 c-6 -14 -5 -15 5 -6 7 7 10 15 7 18 -3 3 -9 -2 -12 -12z"/>
<path d="M9050 10860 c0 -6 7 -10 15 -10 8 0 15 2 15 4 0 2 -7 6 -15 10 -8 3
-15 1 -15 -4z"/>
<path d="M9090 10856 c0 -8 4 -17 9 -20 5 -4 7 3 4 14 -6 23 -13 26 -13 6z"/>
<path d="M9240 10860 c-9 -6 -10 -10 -3 -10 6 0 15 5 18 10 8 12 4 12 -15 0z"/>
<path d="M8925 10850 c3 -5 11 -10 16 -10 6 0 7 5 4 10 -3 6 -11 10 -16 10 -6
0 -7 -4 -4 -10z"/>
<path d="M9140 10845 c-14 -17 -5 -35 16 -35 8 0 12 -4 9 -10 -3 -5 0 -10 7
-10 10 0 10 -2 -1 -9 -9 -6 -10 -11 -2 -15 6 -4 11 -2 11 3 0 6 7 11 16 11 8
0 12 5 9 10 -4 6 -10 8 -14 5 -8 -4 -36 44 -33 58 3 11 -4 8 -18 -8z"/>
<path d="M8881 10814 c0 -11 3 -14 6 -6 3 7 2 16 -1 19 -3 4 -6 -2 -5 -13z"/>
<path d="M9940 10791 c0 -10 30 -24 37 -17 3 2 -5 9 -16 16 -12 6 -21 7 -21 1z"/>
<path d="M9773 10333 c13 -21 -20 -32 -104 -37 -83 -4 -162 -25 -127 -33 9 -2
26 1 38 7 19 10 20 10 8 -9 -11 -18 -34 -26 -60 -22 -5 0 -8 -3 -8 -9 0 -5 9
-10 21 -10 11 0 17 -5 14 -10 -4 -6 -11 -8 -16 -4 -6 3 -10 0 -8 -7 4 -30 -2
-35 -38 -33 -21 2 -28 0 -15 -2 35 -8 26 -26 -10 -20 -18 2 -33 5 -33 6 0 1
-12 3 -27 4 -27 2 -35 -4 -22 -17 4 -3 15 -2 25 4 18 9 24 2 20 -24 -1 -5 4
-5 11 0 7 4 26 8 43 9 27 2 28 1 11 -12 -11 -7 -22 -11 -27 -9 -4 3 -9 1 -11
-4 -5 -16 -78 -15 -248 4 -30 3 -95 1 -144 -5 -79 -10 -90 -9 -107 6 -11 10
-19 12 -19 6 0 -7 5 -12 10 -12 6 0 10 -4 10 -10 0 -11 -36 -22 -79 -24 -16
-1 -36 -7 -45 -15 -14 -12 -19 -11 -32 5 -14 19 -14 19 -12 -1 2 -15 -2 -19
-16 -17 -10 2 -15 -1 -12 -7 6 -9 -51 -34 -70 -30 -5 1 -11 0 -14 -1 -18 -7
-50 -11 -82 -12 -24 0 -35 -4 -31 -11 4 -7 -5 -8 -26 -4 -20 4 -30 3 -26 -3 7
-11 -10 -13 -64 -10 -20 1 -31 -2 -27 -8 3 -6 13 -9 22 -8 9 1 28 -8 42 -21
19 -18 32 -22 56 -17 23 4 38 0 54 -15 14 -11 31 -17 40 -14 12 5 14 2 9 -11
-4 -11 -3 -15 4 -11 6 4 8 13 5 21 -6 15 6 19 18 7 8 -8 13 -10 43 -12 9 0 13
-4 10 -8 -12 -12 54 -34 68 -23 8 7 12 5 12 -5 0 -8 -3 -13 -6 -11 -3 2 -19
-13 -36 -32 -27 -32 -28 -34 -6 -23 19 10 22 10 16 0 -5 -7 -1 -17 9 -25 21
-15 13 -36 -10 -27 -13 5 -13 7 -2 14 9 6 9 9 1 9 -6 0 -18 -14 -27 -30 -14
-30 -14 -30 11 -26 13 3 32 11 41 18 15 11 15 11 4 -4 -10 -13 -10 -17 0 -20
8 -3 5 -9 -10 -17 -12 -6 -22 -18 -22 -26 0 -8 -6 -14 -12 -12 -7 1 -12 -4
-10 -12 2 -10 -4 -12 -22 -7 -26 6 -44 -8 -25 -20 8 -5 9 -3 4 6 -5 9 -4 11 4
6 6 -4 9 -12 6 -17 -4 -5 2 -9 12 -10 10 0 13 -3 6 -5 -7 -3 -20 -1 -30 5 -11
5 -25 6 -32 2 -7 -5 -9 -10 -4 -12 5 -2 0 -12 -10 -22 -18 -19 -19 -18 -12 3
5 15 4 20 -4 16 -6 -4 -11 -16 -11 -28 0 -14 -5 -18 -15 -14 -8 3 -15 1 -15
-3 0 -5 5 -11 11 -13 8 -3 6 -10 -5 -21 -9 -9 -17 -19 -16 -22 0 -3 -2 -5 -5
-5 -28 0 -29 1 -15 11 13 9 13 10 0 6 -8 -2 -14 -10 -12 -17 1 -6 -5 -10 -15
-8 -10 2 -17 10 -15 18 3 11 0 11 -12 1 -9 -7 -13 -18 -9 -24 3 -6 1 -7 -5 -3
-6 4 -20 -1 -30 -11 -20 -20 -47 -29 -38 -14 4 5 2 12 -4 16 -5 3 -15 -6 -20
-21 -9 -23 -23 -26 -26 -6 -2 17 -17 42 -25 42 -5 0 -8 -3 -8 -7 5 -29 -3 -33
-21 -12 -11 13 -19 18 -18 11 2 -10 -10 -15 -39 -16 -23 -1 -40 1 -37 5 2 4
-3 10 -12 13 -22 8 -26 8 -19 -4 3 -5 1 -18 -4 -27 -6 -10 -11 -12 -11 -5 0 6
1 14 3 16 1 3 -8 15 -20 28 -19 20 -20 27 -10 38 10 10 9 11 -2 5 -10 -6 -12
-4 -7 4 5 7 15 10 24 6 9 -3 13 -3 10 1 -4 4 -3 14 1 23 7 12 4 16 -15 17 -13
1 -31 9 -40 18 -15 16 -15 17 8 11 17 -4 29 0 43 15 16 18 16 20 2 14 -9 -3
-17 -10 -17 -15 0 -18 -16 -8 -34 21 -9 17 -22 28 -27 25 -5 -4 -9 -2 -9 4 0
5 -3 18 -6 28 -5 15 -4 15 5 3 6 -8 11 -10 11 -5 0 6 -4 15 -10 21 -5 5 -11
21 -13 34 -2 14 -7 24 -10 23 -4 -2 -9 -3 -12 -3 -2 0 0 -12 6 -26 9 -25 8
-26 -8 -13 -9 8 -14 9 -10 2 4 -6 3 -14 -2 -18 -6 -3 -15 3 -20 14 -14 25 -14
31 0 31 5 0 7 -5 3 -12 -4 -7 -3 -8 4 -4 17 10 15 26 -3 26 -8 0 -24 9 -34 19
-12 12 -21 15 -23 9 -2 -6 -12 -12 -22 -14 -10 -1 -15 0 -12 3 3 3 -4 18 -14
34 -13 17 -16 30 -10 34 5 3 10 1 10 -4 0 -6 4 -11 10 -11 5 0 8 6 6 13 -3 6
-7 25 -10 40 -4 15 -11 25 -16 22 -6 -3 -10 0 -10 7 0 8 -5 6 -11 -5 -5 -9 -8
-21 -5 -25 2 -4 1 -14 -5 -22 -6 -11 -9 -2 -9 27 0 32 -5 45 -20 53 -15 8 -20
8 -20 -2 0 -9 -3 -9 -10 2 -8 12 -11 13 -19 1 -7 -11 -9 -11 -13 0 -4 9 -9 5
-18 -12 -6 -14 -18 -26 -25 -26 -8 0 -12 4 -9 9 3 4 0 8 -6 8 -6 0 -9 4 -6 9
3 5 -1 12 -10 15 -12 4 -15 2 -10 -9 3 -8 1 -15 -4 -15 -6 0 -10 6 -10 14 0
14 -23 16 -37 3 -8 -9 -4 -90 5 -97 4 -3 7 -11 8 -17 3 -38 5 -43 16 -41 6 2
12 -10 12 -27 1 -22 6 -30 19 -29 14 2 15 -1 5 -13 -7 -9 -8 -17 -2 -21 5 -4
15 -20 22 -35 7 -17 17 -25 24 -21 7 4 8 3 4 -5 -4 -6 0 -14 8 -17 9 -3 14
-10 11 -14 -3 -5 3 -15 14 -22 11 -8 25 -26 32 -41 7 -15 18 -27 26 -27 7 0
13 -4 13 -9 0 -13 105 -121 117 -121 6 0 27 -16 46 -35 19 -19 38 -35 41 -35
16 0 57 -56 60 -82 1 -4 7 -13 14 -19 14 -15 16 -29 3 -29 -18 0 -91 -54 -91
-67 0 -7 4 -13 10 -13 5 0 12 -16 16 -35 3 -19 10 -33 14 -30 12 8 41 -25 33
-38 -4 -6 0 -8 10 -4 13 5 17 1 17 -18 0 -13 6 -30 13 -37 8 -7 17 -30 21 -51
4 -21 11 -35 17 -32 5 4 9 -6 9 -21 0 -16 11 -38 28 -54 15 -15 38 -42 52 -60
57 -74 73 -90 87 -90 14 0 13 -3 -3 -22 -10 -12 -13 -18 -6 -14 6 4 12 3 12
-3 0 -5 7 -17 17 -26 12 -13 13 -19 4 -25 -9 -5 -6 -9 9 -13 15 -4 21 -11 17
-21 -4 -10 -1 -16 8 -16 8 0 15 -5 15 -11 0 -5 -5 -7 -12 -3 -8 5 -9 2 -5 -10
4 -10 7 -20 7 -22 0 -2 7 -4 16 -4 8 0 13 -4 9 -9 -3 -5 2 -16 10 -25 14 -13
13 -16 -2 -25 -10 -6 -12 -11 -5 -11 6 0 11 -6 10 -12 -2 -8 5 -12 16 -10 10
2 15 -1 12 -7 -4 -5 6 -17 22 -26 16 -10 35 -27 42 -39 l13 -21 -23 20 c-13
11 -20 14 -15 6 4 -8 2 -17 -6 -22 -10 -6 -8 -9 8 -9 16 0 21 -4 16 -15 -3 -9
3 -23 13 -31 18 -14 18 -15 1 -10 -11 3 -16 2 -12 -4 3 -6 12 -10 19 -10 8 0
13 -8 12 -17 -1 -12 6 -18 21 -18 12 0 26 -5 30 -9 4 -5 3 -6 -4 -2 -6 3 -14
2 -18 -4 -4 -6 -12 -7 -18 -4 -7 4 -8 3 -4 -2 5 -5 13 -10 18 -10 5 -1 13 -2
19 -3 5 0 6 -8 3 -18 -4 -10 -2 -14 4 -10 6 4 13 -2 16 -14 4 -16 3 -18 -8 -9
-17 14 -30 -17 -14 -36 6 -8 9 -21 5 -29 -3 -9 -2 -13 4 -10 6 3 10 12 10 20
0 8 4 16 9 19 5 4 7 -4 3 -16 -4 -16 -2 -19 9 -13 8 5 11 5 7 0 -4 -4 -2 -15
5 -23 10 -13 9 -14 -3 -7 -13 8 -13 6 -2 -8 8 -9 19 -15 24 -14 6 1 13 -4 15
-12 4 -9 0 -11 -16 -6 -15 5 -21 2 -21 -9 0 -9 5 -16 11 -16 8 0 9 -4 0 -13
-6 -8 -7 -17 -3 -21 4 -4 0 -6 -8 -4 -8 1 -14 -3 -12 -9 1 -7 -7 -13 -18 -13
-11 0 -20 -5 -20 -11 0 -5 5 -7 12 -3 7 5 8 3 4 -5 -5 -7 -15 -10 -23 -7 -8 3
-11 1 -8 -4 3 -6 1 -10 -5 -10 -15 0 16 -56 35 -64 24 -9 25 -8 18 12 -5 16
-5 16 8 1 29 -35 81 -27 74 11 -2 11 0 18 4 15 5 -2 14 8 21 24 18 44 52 72
70 60 13 -9 12 -10 -2 -5 -10 3 -20 1 -23 -4 -4 -6 -1 -10 4 -10 6 0 11 -7 11
-15 0 -20 16 -19 24 1 4 10 12 14 22 10 14 -5 15 -4 4 9 -7 8 -11 15 -9 16 38
7 39 6 39 -24 0 -24 3 -28 10 -17 7 11 10 11 10 2 0 -8 5 -10 13 -6 8 6 8 3
-1 -9 -12 -14 -12 -19 2 -32 14 -15 17 -13 36 17 11 18 20 39 20 46 0 6 5 12
10 12 6 0 10 7 10 16 0 9 5 12 12 8 7 -5 8 -3 3 6 -4 7 -3 15 2 19 6 3 13 17
17 31 4 14 4 20 -1 13 -5 -6 -9 10 -10 38 -1 30 2 47 8 44 5 -4 7 -11 4 -16
-9 -14 5 -51 17 -47 14 5 21 48 8 48 -11 0 -8 49 5 69 5 10 4 12 -3 7 -13 -8
-52 10 -52 24 0 6 9 6 23 1 19 -7 28 -5 40 10 16 18 15 19 -13 19 -17 0 -30 4
-30 10 0 5 -8 6 -17 3 -16 -6 -16 -5 -4 11 8 9 23 15 32 13 10 -3 18 -2 17 2
-3 26 3 32 18 17 8 -9 21 -16 28 -16 7 0 26 -6 42 -14 16 -8 52 -14 82 -12 28
1 52 -2 52 -7 0 -5 -18 -7 -40 -6 -43 3 -55 -12 -18 -23 35 -9 60 -9 53 1 -3
6 6 6 25 1 16 -5 30 -6 30 -2 0 4 8 -2 17 -13 12 -16 14 -17 10 -3 -5 14 -1
17 18 16 27 -3 33 -13 13 -21 -8 -3 -5 -6 5 -6 11 -1 21 8 24 20 3 11 11 18
18 16 6 -3 17 3 23 14 8 12 18 16 29 12 15 -6 14 -8 -7 -14 l-25 -7 27 -1 c23
-1 27 3 24 21 -2 20 -8 22 -43 20 -25 -2 -44 2 -49 9 -5 9 -1 11 14 7 12 -4
20 -3 17 2 -7 11 22 20 43 13 14 -5 13 -3 -3 10 -20 16 -19 16 5 12 14 -3 27
-10 28 -15 5 -15 32 8 32 27 0 9 5 11 12 7 7 -5 26 -7 43 -6 20 1 26 -1 17 -7
-11 -7 -11 -9 2 -14 9 -4 16 -2 16 2 0 5 7 12 16 15 8 3 13 2 10 -2 -2 -4 2
-16 10 -27 14 -19 15 -19 52 3 24 14 37 28 36 41 0 11 3 18 8 15 4 -3 8 1 8 8
0 11 2 11 8 0 6 -9 16 -10 33 -4 13 5 29 11 34 12 6 1 9 6 7 11 -2 9 13 13 33
9 5 -1 7 2 3 6 -4 4 -2 14 5 23 11 14 10 14 -5 2 -30 -23 -23 21 7 47 14 12
25 29 25 39 0 9 3 13 7 10 3 -4 15 0 25 10 13 11 18 12 18 3 0 -10 3 -10 15 0
8 6 18 9 24 6 5 -3 12 1 15 10 5 12 2 15 -11 9 -15 -5 -15 -3 2 12 36 34 76
38 43 5 -9 -9 -9 -12 0 -12 7 0 12 4 12 9 0 5 12 8 26 5 17 -3 23 -1 19 6 -4
6 -14 9 -22 6 -8 -4 -11 -1 -8 5 4 6 14 8 22 5 19 -8 43 11 43 32 0 13 -3 12
-14 -4 -8 -10 -18 -16 -22 -11 -4 4 -2 7 4 7 7 0 12 7 12 15 0 8 7 15 15 15 8
0 15 5 15 12 0 6 3 8 7 5 3 -4 12 -2 19 4 8 6 21 8 31 5 16 -6 16 -6 0 12 -24
26 -21 35 13 55 17 10 30 23 30 29 0 5 7 7 16 4 14 -5 15 -4 5 8 -8 10 -9 16
-1 21 5 3 10 3 10 0 0 -4 12 3 26 14 15 11 30 18 34 16 5 -3 12 0 16 6 5 8 2
10 -7 5 -8 -4 -5 0 5 8 11 9 24 16 29 16 4 0 5 5 2 10 -3 6 0 10 8 10 8 0 18
8 21 17 6 15 8 15 17 3 8 -13 9 -12 7 2 -4 19 42 97 58 98 6 0 11 6 12 13 3
33 11 52 21 50 6 -2 11 4 11 12 0 8 21 29 48 47 60 41 72 53 72 72 0 9 7 16
15 16 8 0 15 7 15 16 0 8 5 12 10 9 6 -3 11 -1 11 4 1 6 2 16 3 22 0 6 9 17
19 24 12 8 14 16 8 20 -6 3 -11 1 -11 -5 0 -6 -5 -8 -10 -5 -6 4 -7 11 -4 17
5 7 1 9 -9 5 -9 -3 -18 -1 -21 6 -2 7 -5 4 -5 -5 -1 -10 6 -18 14 -18 8 0 15
-5 15 -10 0 -7 -6 -7 -20 0 -11 6 -20 16 -20 22 0 6 -8 17 -17 24 -17 11 -15
15 19 50 21 20 40 45 43 55 4 11 11 19 16 19 5 0 9 4 9 10 0 5 23 32 50 58 28
27 50 52 50 56 0 4 13 18 28 31 46 38 84 102 87 142 3 53 3 51 26 74 30 30 35
85 9 99 -12 6 -17 17 -14 28 5 13 4 14 -4 3 -5 -7 -15 -10 -22 -6 -7 4 -10 2
-9 -6 5 -20 -20 -61 -32 -53 -6 3 -17 -3 -25 -15 -9 -12 -20 -19 -25 -15 -6 3
-9 -2 -7 -12 2 -14 -3 -19 -19 -18 -13 1 -20 -3 -17 -11 3 -7 -2 -15 -10 -18
-9 -4 -16 -16 -16 -27 0 -14 -4 -19 -12 -15 -7 4 -6 1 3 -7 17 -14 14 -42 -3
-32 -13 8 -7 -59 7 -68 6 -5 6 -8 -2 -8 -6 0 -15 5 -18 10 -3 6 -12 10 -18 10
-7 0 -6 -4 3 -11 11 -8 12 -12 3 -16 -7 -2 -13 -9 -13 -14 0 -6 6 -7 13 -4 6
4 3 -1 -7 -9 -11 -9 -16 -16 -12 -16 5 0 3 -6 -3 -13 -6 -8 -8 -17 -5 -20 4
-4 -3 -4 -15 -2 -12 2 -19 0 -16 -5 3 -5 -5 -18 -17 -29 -17 -17 -19 -21 -6
-21 12 0 6 -11 -19 -40 -20 -22 -39 -37 -43 -35 -4 3 -11 -5 -14 -18 -6 -20
-7 -21 -20 -5 -7 10 -16 15 -19 11 -4 -3 -7 1 -7 11 0 9 5 14 10 11 6 -3 10
-2 10 3 0 12 -50 12 -72 1 -13 -7 -18 -6 -18 3 -1 8 -6 6 -15 -6 -8 -11 -19
-15 -27 -10 -9 5 -8 2 2 -11 9 -11 10 -16 3 -11 -7 4 -13 3 -13 -3 0 -5 -10
-13 -22 -17 -12 -3 -30 -15 -42 -25 -11 -10 -22 -17 -25 -14 -2 3 4 12 15 21
16 13 14 13 -9 -1 -23 -13 -31 -14 -43 -4 -11 9 -12 15 -4 23 8 8 13 7 19 -2
6 -11 10 -10 16 5 13 30 14 41 1 39 -16 -2 -71 -59 -68 -70 2 -5 -3 -4 -12 3
-10 8 -16 9 -21 1 -3 -5 -18 -7 -32 -4 -19 5 -24 4 -18 -6 5 -9 2 -10 -14 -5
-16 5 -21 2 -21 -12 0 -14 -2 -15 -9 -4 -6 9 -11 10 -15 2 -9 -14 -36 -14 -36
0 0 5 4 8 9 4 11 -6 24 12 28 40 3 16 1 17 -7 5 -5 -8 -21 -16 -35 -17 -23 -2
-24 0 -10 13 8 9 15 24 15 34 0 10 4 21 8 24 12 7 11 -26 -1 -41 -6 -9 -6 -13
1 -13 6 0 14 9 17 20 4 12 11 17 18 14 7 -4 1 5 -12 20 -25 26 -36 66 -19 66
5 0 6 4 3 10 -4 7 2 7 19 0 28 -10 56 -4 56 12 0 7 -4 7 -12 0 -8 -6 -21 -6
-33 -1 -19 9 -19 9 2 5 15 -2 23 2 26 15 4 14 0 19 -16 19 -18 0 -19 -2 -7
-10 12 -8 11 -10 -7 -10 -13 0 -23 5 -23 10 0 6 -7 10 -15 10 -8 0 -15 7 -15
16 0 10 -6 14 -14 11 -11 -4 -13 -1 -9 11 5 14 3 15 -8 5 -19 -18 -32 -16 -25
3 5 13 3 14 -6 7 -19 -15 -59 2 -52 22 7 18 20 20 27 3 3 -7 6 -4 6 7 1 17 3
17 11 5 8 -13 10 -13 10 1 0 9 -7 22 -15 29 -13 11 -14 10 -9 -4 4 -12 1 -16
-14 -16 -12 0 -24 5 -27 10 -4 6 -1 9 7 8 8 -2 14 8 16 26 3 23 6 26 14 15 7
-11 9 -9 5 9 -3 14 -1 20 6 15 6 -4 8 0 5 9 -5 11 0 15 14 14 11 0 27 8 34 20
12 18 12 21 -1 21 -8 0 -15 -6 -15 -12 0 -6 -7 -12 -15 -12 -20 0 -19 6 6 28
12 10 26 16 32 12 6 -4 8 0 4 10 -4 12 -2 14 11 10 15 -6 16 -5 2 12 -9 11
-10 16 -3 11 13 -7 62 22 63 37 0 13 -16 7 -38 -13 -12 -12 -22 -18 -22 -15 0
4 -12 -2 -27 -13 -16 -10 -36 -22 -45 -25 -12 -4 -16 -13 -12 -24 4 -14 4 -15
-4 -4 -11 15 -4 53 8 46 9 -5 24 25 21 40 -1 6 3 5 9 -1 13 -13 60 3 60 20 0
5 15 23 33 39 22 20 25 26 10 18 -34 -17 -27 1 7 21 17 9 30 25 30 35 0 15 -4
14 -20 -7 -11 -14 -19 -18 -18 -10 5 28 45 50 90 50 59 1 82 19 67 53 -11 24
-37 36 -89 42 -8 1 -24 4 -35 8 -11 3 -36 9 -55 12 -19 3 -55 10 -80 15 -25 6
-76 16 -114 23 -38 6 -71 17 -73 24 -3 7 4 9 18 6 15 -4 20 -2 15 5 -8 13 -66
13 -66 0 0 -5 5 -6 10 -3 6 3 10 -1 10 -10 0 -9 -4 -14 -9 -11 -4 3 -37 8 -72
11 -82 7 -97 21 -22 21 32 0 62 -5 66 -10 4 -6 7 0 5 14 -2 14 -11 32 -20 41
-24 22 -23 25 15 24 45 -2 99 14 91 26 -3 6 -12 8 -20 5 -8 -3 -14 -1 -14 4 0
5 8 11 18 13 9 3 -2 3 -26 1 -24 -1 -40 1 -37 7 4 5 -2 9 -12 9 -15 0 -16 2
-3 10 10 7 -2 8 -40 4 -49 -6 -54 -6 -42 9 10 12 10 17 1 23 -7 4 -9 3 -6 -3z
m-111 -55 c-9 -9 -15 -9 -24 0 -9 9 -7 12 12 12 19 0 21 -3 12 -12z m155 -2
c4 -3 -13 -6 -36 -6 -61 0 -118 -41 -73 -53 9 -3 0 -5 -20 -4 -21 1 -38 5 -38
9 0 4 5 8 10 8 6 0 10 5 10 11 0 7 -12 9 -34 5 -31 -6 -34 -5 -29 15 3 11 9
16 12 11 7 -11 83 -4 97 10 7 8 93 3 101 -6z m-62 -26 c3 -5 -1 -10 -9 -10 -9
0 -16 5 -16 10 0 6 4 10 9 10 6 0 13 -4 16 -10z m-121 -38 c2 -4 -7 -9 -22
-10 -21 -1 -24 0 -12 8 18 12 27 12 34 2z m153 -34 c-3 -8 -6 -5 -6 6 -1 11 2
17 5 13 3 -3 4 -12 1 -19z m-217 -8 c0 -5 -2 -10 -4 -10 -3 0 -8 5 -11 10 -3
6 -1 10 4 10 6 0 11 -4 11 -10z m250 -212 c25 -1 20 -3 -20 -7 -45 -5 -57 -10
-67 -31 -14 -29 -15 -29 -67 -11 l-40 14 45 23 c31 17 54 23 79 19 19 -3 51
-6 70 -7z m-1086 -64 c26 -18 17 -18 -29 1 -20 9 -46 13 -57 9 -14 -4 -18 -3
-13 6 9 14 70 5 99 -16z m40 -23 c3 -5 -1 -11 -9 -14 -9 -4 -12 -1 -8 9 6 16
10 17 17 5z m1396 -4 c0 -2 -9 -12 -20 -22 -24 -21 -27 -14 -4 9 15 15 24 20
24 13z m887 -83 c-3 -3 -12 -4 -19 -1 -8 3 -5 6 6 6 11 1 17 -2 13 -5z m-1234
-154 c6 -43 5 -44 -7 -16 -7 16 -11 38 -8 48 6 25 8 21 15 -32z m-1113 -137
c0 -1 -7 1 -17 4 -9 4 -14 2 -10 -3 9 -16 -31 -14 -44 2 -14 17 2 19 20 2 11
-10 13 -10 7 0 -13 22 4 32 24 14 11 -9 20 -18 20 -19z m-625 -17 c0 -13 -4
-28 -8 -32 -4 -5 -5 -1 -1 9 4 10 1 17 -6 17 -10 0 -10 3 0 15 16 19 16 19 15
-9z m565 -31 c20 -11 21 -14 7 -15 -15 0 -16 -2 -5 -13 7 -8 20 -16 28 -20 8
-3 1 -6 -16 -6 -50 -1 -94 -13 -88 -22 3 -5 3 -9 0 -9 -3 0 -8 5 -11 10 -3 6
6 15 22 21 26 10 26 12 8 19 -11 4 -28 3 -38 -2 -10 -5 -23 -7 -30 -5 -10 3
43 38 58 37 41 -1 49 1 35 10 -24 15 2 11 30 -5z m1517 -1 c-3 -3 -12 -4 -19
-1 -8 3 -5 6 6 6 11 1 17 -2 13 -5z m-2057 -34 c0 -5 -2 -10 -4 -10 -3 0 -8 5
-11 10 -3 6 -1 10 4 10 6 0 11 -4 11 -10z m263 -15 c-7 -21 -12 -19 -10 4 0
11 5 18 9 15 4 -3 5 -11 1 -19z m121 13 c-3 -4 -9 -8 -15 -8 -5 0 -9 4 -9 8 0
5 7 9 15 9 8 0 12 -4 9 -9z m1651 -17 c-3 -6 -11 -11 -16 -11 -5 0 -4 6 3 14
14 16 24 13 13 -3z m-65 -21 c5 8 10 11 10 5 0 -5 -4 -16 -9 -24 -12 -19 -42
-6 -34 14 5 13 7 14 14 3 7 -11 11 -10 19 2z m77 -10 c2 -23 -12 -35 -22 -20
-4 6 -1 17 5 25 16 19 15 19 17 -5z m-1493 2 c2 -4 -4 -9 -15 -9 -11 -1 -17 2
-14 8 7 11 22 12 29 1z m-69 -32 c-3 -5 -14 -10 -23 -9 -14 0 -13 2 3 9 27 11
27 11 20 0z m66 -8 c-7 -2 -18 1 -23 6 -8 8 -4 9 13 5 13 -4 18 -8 10 -11z
m1455 -21 c-4 -6 -13 -11 -19 -11 -8 0 -7 3 2 9 8 5 10 14 6 22 -6 11 -5 11 5
2 7 -6 9 -16 6 -22z m-1501 9 c-3 -5 -11 -10 -16 -10 -6 0 -7 5 -4 10 3 6 11
10 16 10 6 0 7 -4 4 -10z m1790 0 c3 -5 1 -10 -4 -10 -6 0 -11 5 -11 10 0 6 2
10 4 10 3 0 8 -4 11 -10z m-1876 -4 c-2 -2 -15 -9 -29 -16 -23 -12 -24 -12
-11 3 7 10 20 17 29 17 8 0 13 -2 11 -4z m11 -46 c-8 -5 -17 -7 -19 -4 -3 3 1
9 9 14 8 5 17 7 19 4 3 -3 -1 -9 -9 -14z m1490 0 c0 -5 -2 -10 -4 -10 -3 0 -8
5 -11 10 -3 6 -1 10 4 10 6 0 11 -4 11 -10z m290 -484 c0 -3 -4 -8 -10 -11 -5
-3 -10 -1 -10 4 0 6 5 11 10 11 6 0 10 -2 10 -4z m-1945 -144 c-3 -3 -11 0
-18 7 -9 10 -8 11 6 5 10 -3 15 -9 12 -12z m1907 -4 c-7 -7 -12 -8 -12 -2 0
14 12 26 19 19 2 -3 -1 -11 -7 -17z m-372 -273 c-7 -9 -15 -13 -17 -11 -6 6
20 36 26 30 2 -2 -2 -10 -9 -19z m-1316 -27 c-3 -5 -10 -5 -16 -2 -7 5 -9 1
-5 -9 5 -13 0 -17 -21 -17 -24 1 -25 2 -10 14 10 7 14 17 10 21 -4 5 -1 4 7 0
11 -6 13 -4 8 8 -5 14 -3 15 13 5 10 -7 16 -16 14 -20z m-74 13 c0 -6 -4 -12
-8 -15 -5 -3 -9 1 -9 9 0 8 4 15 9 15 4 0 8 -4 8 -9z m1065 -131 c-3 -5 -12
-10 -18 -10 -7 0 -6 4 3 10 19 12 23 12 15 0z m215 0 c0 -5 -7 -10 -16 -10 -8
0 -12 5 -9 10 3 6 10 10 16 10 5 0 9 -4 9 -10z m-660 -10 c0 -5 -7 -10 -15
-10 -8 0 -15 5 -15 10 0 6 7 10 15 10 8 0 15 -4 15 -10z m617 -5 c0 -8 -7 -15
-15 -15 -12 0 -12 3 -2 15 7 8 13 15 15 15 1 0 2 -7 2 -15z m-370 -11 c-3 -3
-12 -4 -19 -1 -8 3 -5 6 6 6 11 1 17 -2 13 -5z m-77 -39 c0 -1 -21 -2 -47 -2
-40 0 -43 1 -18 6 26 6 65 4 65 -4z m53 -2 c-7 -2 -21 -2 -30 0 -10 3 -4 5 12
5 17 0 24 -2 18 -5z m87 -8 c19 -22 3 -30 -50 -25 -18 2 -14 5 15 9 l40 7 -35
11 c-32 10 -32 11 -9 12 15 1 32 -6 39 -14z m-85 -15 c3 -5 -1 -10 -10 -10 -9
0 -13 5 -10 10 3 6 8 10 10 10 2 0 7 -4 10 -10z m-279 -82 c4 -7 3 -8 -4 -4
-7 4 -12 3 -12 -3 0 -5 6 -11 13 -14 6 -2 -8 -10 -31 -16 -36 -10 -43 -16 -39
-32 3 -12 0 -19 -8 -19 -11 0 -12 6 -4 30 6 17 14 30 18 30 5 0 18 9 31 20 27
23 27 23 36 8z m-333 -43 c-3 -9 -8 -14 -10 -11 -3 3 -2 9 2 15 9 16 15 13 8
-4z m207 -90 c0 -8 -4 -15 -10 -15 -5 0 -7 7 -4 15 4 8 8 15 10 15 2 0 4 -7 4
-15z m-181 -48 c-5 -20 -14 -37 -20 -37 -6 0 -15 -13 -20 -30 -6 -16 -15 -30
-21 -30 -5 0 -6 -5 -3 -10 4 -6 11 -7 17 -4 7 4 8 2 4 -4 -4 -6 -13 -9 -21 -6
-18 7 -10 47 16 86 11 14 19 32 20 40 0 7 4 4 8 -7 7 -16 9 -14 14 15 4 18 9
31 12 29 2 -3 0 -22 -6 -42z m131 19 c0 -3 -4 -8 -10 -11 -5 -3 -10 -1 -10 4
0 6 5 11 10 11 6 0 10 -2 10 -4z"/>
<path d="M9885 10300 c4 -6 11 -8 16 -5 14 9 11 15 -7 15 -8 0 -12 -5 -9 -10z"/>
<path d="M9873 10199 c11 -7 23 -7 35 0 14 9 11 10 -18 10 -29 0 -32 -1 -17
-10z"/>
<path d="M9870 10176 c0 -9 40 -13 46 -5 3 5 -6 9 -20 9 -14 0 -26 -2 -26 -4z"/>
<path d="M9330 10151 c0 -6 4 -13 10 -16 6 -3 7 1 4 9 -7 18 -14 21 -14 7z"/>
<path d="M8635 10094 c-15 -11 -17 -18 -9 -32 13 -20 44 -29 44 -12 0 7 -6 10
-13 7 -16 -6 -19 25 -3 35 6 4 8 9 6 12 -3 2 -14 -2 -25 -10z"/>
<path d="M8730 10102 c1 -17 30 -44 42 -39 9 4 9 6 1 6 -7 1 -10 7 -7 15 3 8
-3 16 -15 19 -12 3 -21 2 -21 -1z"/>
<path d="M8700 10091 c0 -6 4 -13 10 -16 6 -3 7 1 4 9 -7 18 -14 21 -14 7z"/>
<path d="M8876 10091 c-4 -5 -2 -12 3 -15 5 -4 12 -2 15 3 4 5 2 12 -3 15 -5
4 -12 2 -15 -3z"/>
<path d="M8820 10080 c0 -5 5 -10 11 -10 5 0 7 5 4 10 -3 6 -8 10 -11 10 -2 0
-4 -4 -4 -10z"/>
<path d="M8598 10043 c7 -3 16 -2 19 1 4 3 -2 6 -13 5 -11 0 -14 -3 -6 -6z"/>
<path d="M8670 10034 c-8 -10 -10 -16 -6 -12 5 4 15 3 22 -3 14 -12 67 -1 58
12 -3 5 -10 7 -15 4 -5 -4 -9 0 -9 7 -1 8 -6 7 -14 -5 -13 -17 -14 -17 -18 -1
-3 16 -4 16 -18 -2z"/>
<path d="M8605 10000 c3 -5 8 -10 11 -10 2 0 4 5 4 10 0 6 -5 10 -11 10 -5 0
-7 -4 -4 -10z"/>
<path d="M7670 9951 c0 -5 7 -12 16 -15 14 -5 15 -4 4 9 -14 17 -20 19 -20 6z"/>
<path d="M7710 9940 c0 -5 5 -10 10 -10 6 0 10 5 10 10 0 6 -4 10 -10 10 -5 0
-10 -4 -10 -10z"/>
<path d="M8420 9928 c0 -4 7 -8 15 -8 8 0 15 4 15 8 0 5 -7 9 -15 9 -8 0 -15
-4 -15 -9z"/>
<path d="M8480 9890 c20 -13 33 -13 25 0 -3 6 -14 10 -23 10 -15 0 -15 -2 -2
-10z"/>
<path d="M8390 9870 c0 -5 7 -7 15 -4 8 4 15 8 15 10 0 2 -7 4 -15 4 -8 0 -15
-4 -15 -10z"/>
<path d="M8436 9855 c-3 -8 -1 -15 4 -15 14 0 12 -16 -3 -32 -8 -7 -12 -19 -9
-27 3 -8 0 -11 -6 -7 -18 11 -22 -10 -6 -33 12 -17 19 -19 29 -11 8 6 11 18 8
26 -3 8 0 21 7 29 7 9 10 18 6 22 -3 3 -6 1 -6 -5 0 -7 -5 -12 -11 -12 -7 0
-5 10 5 25 9 14 12 25 6 25 -5 0 -10 5 -10 11 0 5 4 8 9 4 5 -3 12 -1 16 5 3
5 -3 10 -13 10 -11 0 -22 -7 -26 -15z m8 -116 c-6 -11 -24 -2 -24 11 0 5 7 7
15 4 8 -4 12 -10 9 -15z"/>
<path d="M8485 9851 c-3 -2 -2 -7 0 -11 6 -9 45 -1 45 9 0 7 -38 9 -45 2z"/>
<path d="M7960 9808 c0 -9 5 -20 10 -23 13 -8 13 5 0 25 -8 13 -10 13 -10 -2z"/>
<path d="M8750 9810 c0 -5 5 -10 11 -10 5 0 7 5 4 10 -3 6 -8 10 -11 10 -2 0
-4 -4 -4 -10z"/>
<path d="M8554 9796 c-3 -8 -19 -20 -35 -26 -16 -7 -29 -16 -29 -21 0 -15 22
-10 42 8 18 16 19 16 13 -3 -6 -17 -6 -18 5 -1 12 19 22 57 14 57 -2 0 -7 -6
-10 -14z"/>
<path d="M8475 9780 c-3 -5 -1 -10 4 -10 6 0 11 5 11 10 0 6 -2 10 -4 10 -3 0
-8 -4 -11 -10z"/>
<path d="M8511 9726 c-10 -11 -9 -14 1 -12 14 2 23 15 15 22 -2 2 -10 -2 -16
-10z"/>
<path d="M10150 9690 c0 -5 5 -10 11 -10 5 0 7 5 4 10 -3 6 -8 10 -11 10 -2 0
-4 -4 -4 -10z"/>
<path d="M8700 9670 c0 -5 5 -10 10 -10 6 0 10 5 10 10 0 6 -4 10 -10 10 -5 0
-10 -4 -10 -10z"/>
<path d="M8734 9659 c-19 -22 -19 -22 4 -10 12 6 22 16 22 21 0 15 -5 12 -26
-11z"/>
<path d="M8126 9654 c-9 -22 21 -54 42 -46 13 4 10 8 -12 17 -18 8 -24 15 -17
19 13 8 15 26 2 26 -5 0 -12 -7 -15 -16z"/>
<path d="M8636 9632 c-2 -4 4 -9 15 -9 11 -1 17 2 14 8 -7 11 -22 12 -29 1z"/>
<path d="M8275 9581 c-3 -5 -1 -12 5 -16 5 -3 10 1 10 9 0 18 -6 21 -15 7z"/>
<path d="M8567 9543 c-12 -11 -8 -25 5 -17 8 5 9 2 5 -10 -4 -9 -3 -15 2 -11
6 3 9 14 8 25 -1 20 -9 25 -20 13z"/>
<path d="M10185 9480 c4 -6 11 -8 16 -5 14 9 11 15 -7 15 -8 0 -12 -5 -9 -10z"/>
<path d="M8251 9461 c-8 -5 -9 -11 -3 -15 5 -3 12 1 16 9 6 17 6 18 -13 6z"/>
<path d="M8208 9453 c7 -3 16 -2 19 1 4 3 -2 6 -13 5 -11 0 -14 -3 -6 -6z"/>
<path d="M10335 9360 c-3 -5 -1 -10 4 -10 6 0 11 5 11 10 0 6 -2 10 -4 10 -3
0 -8 -4 -11 -10z"/>
<path d="M10690 9355 c-20 -24 -6 -28 15 -5 10 11 13 20 8 20 -6 0 -16 -7 -23
-15z"/>
<path d="M10435 9340 c-3 -5 -1 -10 6 -10 8 0 8 -4 -1 -15 -7 -8 -8 -15 -2
-15 5 0 15 6 21 14 8 10 8 16 -3 25 -10 8 -16 9 -21 1z"/>
<path d="M10234 9313 c3 -7 0 -13 -6 -13 -6 0 -8 -3 -5 -6 7 -7 37 14 37 26 0
3 -7 7 -15 7 -9 0 -14 -6 -11 -14z"/>
<path d="M10290 9306 c0 -2 7 -7 16 -10 8 -3 12 -2 9 4 -6 10 -25 14 -25 6z"/>
<path d="M10790 9088 c0 -11 -5 -15 -15 -12 -8 4 -15 1 -15 -6 0 -6 5 -8 10
-5 6 3 10 -1 10 -10 0 -15 1 -15 16 -1 11 12 13 20 5 33 -10 17 -10 17 -11 1z"/>
<path d="M10722 9025 c-12 -14 -20 -30 -17 -35 4 -6 1 -10 -4 -10 -6 0 -11 -9
-11 -20 0 -11 7 -20 16 -20 8 0 12 5 9 10 -9 14 4 52 16 45 11 -8 22 18 17 40
-2 14 -7 12 -26 -10z"/>
<path d="M10596 8881 c-17 -19 -17 -19 3 -14 12 3 21 12 21 19 0 18 -4 18 -24
-5z"/>
<path d="M10112 8414 c-7 -8 -8 -14 -3 -14 10 0 25 19 20 25 -2 1 -10 -3 -17
-11z"/>
<path d="M10012 8321 c-10 -6 -8 -10 9 -14 13 -4 25 -4 28 -2 2 3 -1 5 -8 5
-7 0 -9 5 -6 10 8 12 -5 13 -23 1z"/>
<path d="M10089 8190 c-9 -10 -23 -20 -30 -22 -8 -3 -12 -8 -9 -11 3 -3 19 5
35 18 17 13 28 25 25 27 -3 3 -12 -3 -21 -12z"/>
<path d="M9965 8160 c-3 -6 1 -7 9 -4 18 7 21 14 7 14 -6 0 -13 -4 -16 -10z"/>
<path d="M9715 8150 c3 -6 2 -10 -2 -10 -5 0 -18 -7 -29 -15 -15 -13 -13 -13
16 1 44 21 44 20 25 28 -9 3 -13 2 -10 -4z"/>
<path d="M10013 8135 c-3 -9 -3 -19 1 -22 3 -4 6 1 6 10 0 8 6 18 13 20 9 4 9
6 -1 6 -7 1 -15 -6 -19 -14z"/>
<path d="M9970 8109 c0 -11 4 -18 10 -14 5 3 7 12 3 20 -7 21 -13 19 -13 -6z"/>
<path d="M9210 8110 c0 -5 5 -10 11 -10 5 0 7 5 4 10 -3 6 -8 10 -11 10 -2 0
-4 -4 -4 -10z"/>
<path d="M9644 8111 c4 -5 0 -11 -6 -14 -7 -2 -10 -8 -6 -12 4 -4 11 -4 17 0
14 8 14 35 0 35 -5 0 -8 -4 -5 -9z"/>
<path d="M9940 8104 c0 -8 5 -12 10 -9 6 4 8 11 5 16 -9 14 -15 11 -15 -7z"/>
<path d="M9830 8095 c-8 -9 -8 -15 -2 -15 12 0 26 19 19 26 -2 2 -10 -2 -17
-11z"/>
<path d="M10016 8094 c-17 -16 -13 -35 7 -33 8 0 8 2 -1 6 -10 4 -10 8 -1 19
6 8 16 11 22 7 6 -3 7 -1 3 5 -9 15 -11 15 -30 -4z"/>
<path d="M9900 8090 c0 -5 5 -10 10 -10 6 0 10 5 10 10 0 6 -4 10 -10 10 -5 0
-10 -4 -10 -10z"/>
<path d="M9556 8081 c-4 -6 -23 -11 -42 -11 -19 0 -34 -4 -34 -10 0 -5 11 -10
25 -10 14 0 25 -5 25 -11 0 -6 -8 -7 -22 -2 -13 4 -78 6 -146 4 -86 -2 -127 1
-137 9 -9 8 -15 8 -15 2 0 -6 -8 -13 -17 -16 -12 -3 -9 -5 7 -4 102 2 151 -3
144 -14 -5 -7 -3 -8 7 -2 24 15 60 16 77 2 9 -7 13 -8 10 -3 -4 6 9 11 32 11
39 1 61 -18 38 -32 -7 -4 -8 -3 -4 4 5 8 2 10 -8 6 -24 -9 -19 -19 8 -22 20
-1 26 4 31 28 4 17 11 30 16 30 6 0 8 4 4 9 -3 5 1 11 10 13 9 2 12 8 6 17 -6
9 -11 10 -15 2z"/>
<path d="M9144 8056 c2 -11 9 -22 17 -24 11 -3 11 -2 -1 7 -12 8 -9 12 13 20
35 14 34 18 -3 17 -23 -1 -28 -5 -26 -20z"/>
<path d="M9285 8060 c3 -5 8 -10 11 -10 2 0 4 5 4 10 0 6 -5 10 -11 10 -5 0
-7 -4 -4 -10z"/>
<path d="M9960 8059 c0 -5 5 -7 10 -4 6 3 10 8 10 11 0 2 -4 4 -10 4 -5 0 -10
-5 -10 -11z"/>
<path d="M9722 8033 c-7 -10 -10 -12 -6 -5 5 11 2 12 -14 3 -13 -7 -19 -17
-15 -27 3 -8 2 -14 -3 -13 -5 1 -16 1 -24 0 -13 -1 -13 -3 0 -10 8 -6 18 -7
22 -5 4 3 8 1 8 -4 0 -5 -13 -9 -30 -9 -18 0 -30 6 -30 14 0 7 -9 13 -20 13
-10 0 -29 10 -40 23 l-21 22 10 -27 c7 -20 7 -29 -1 -34 -8 -5 -5 -10 7 -14
12 -4 15 -9 8 -13 -6 -4 -19 0 -27 9 -14 14 -19 14 -33 2 -14 -11 -16 -11 -9
1 7 10 -2 12 -47 8 -44 -3 -57 -1 -62 11 -3 8 -8 12 -12 9 -3 -4 -13 -1 -22 6
-14 11 -14 10 -2 -5 7 -10 18 -15 24 -11 6 4 7 1 3 -6 -5 -7 -15 -10 -23 -7
-22 9 -36 -3 -23 -19 8 -10 6 -15 -10 -20 -16 -5 -26 -1 -36 13 -9 13 -21 18
-37 15 -14 -3 -28 0 -31 6 -4 6 -15 11 -24 11 -14 -1 -13 -3 4 -13 12 -7 19
-18 17 -24 -3 -7 0 -13 5 -13 6 0 12 5 14 12 3 8 6 9 11 1 4 -6 -6 -16 -24
-23 -29 -12 -30 -16 -28 -63 2 -33 -1 -52 -9 -55 -8 -2 -10 3 -6 15 5 14 3 13
-10 -4 -14 -19 -14 -25 -2 -54 l14 -34 11 35 11 35 -5 -40 c-5 -37 -4 -38 8
-17 l13 23 12 -23 c12 -23 12 -23 6 0 -3 12 -1 22 5 22 5 0 12 -8 14 -17 4
-17 5 -17 6 -1 0 10 -8 22 -19 28 -22 12 -28 35 -6 27 11 -4 13 3 9 34 -4 31
-2 39 10 39 19 0 30 -41 21 -86 -4 -20 -2 -34 4 -34 20 0 24 57 8 105 -4 11 0
8 9 -7 17 -30 28 -37 19 -13 -4 8 -1 15 5 15 11 0 15 -12 12 -40 -2 -13 -1
-13 9 0 9 12 10 7 6 -20 -5 -26 -4 -30 3 -15 5 11 10 31 10 44 1 28 10 24 16
-7 2 -12 0 -24 -6 -27 -18 -12 -8 -24 16 -19 17 3 25 0 25 -10 0 -8 3 -23 7
-33 6 -16 5 -16 -11 -4 -14 12 -17 12 -14 1 5 -25 22 -39 31 -26 9 14 4 -35
-5 -50 -9 -14 1 -54 14 -54 5 0 6 5 3 10 -4 6 5 23 20 37 30 30 57 39 48 16
-5 -12 -7 -12 -14 -1 -15 22 -10 -7 7 -48 9 -22 16 -40 15 -41 -3 -9 13 -32
19 -28 5 3 6 -3 3 -14 -3 -11 2 -21 12 -25 13 -5 15 -1 10 17 -16 55 -17 62
-8 52 6 -5 18 -41 27 -80 10 -38 20 -78 23 -87 3 -14 0 -16 -13 -11 -14 5 -13
2 4 -15 23 -23 29 -52 12 -52 -5 0 -10 -4 -10 -10 0 -5 8 -6 17 -3 12 5 15 2
10 -10 -3 -9 -2 -19 3 -22 6 -4 10 -11 10 -17 0 -6 -7 -5 -17 3 -14 12 -14 10
2 -14 13 -20 15 -31 7 -36 -8 -5 -9 -16 -2 -36 l10 -30 -4 28 c-2 16 0 25 5
20 4 -4 9 -299 11 -655 3 -601 4 -649 21 -665 20 -21 21 -16 7 75 -6 38 -11
337 -13 697 -1 347 -6 638 -11 648 -5 10 -4 17 2 17 20 0 24 -111 29 -730 3
-375 8 -617 14 -605 8 20 7 -38 -7 -226 -4 -57 -2 -79 5 -74 8 4 11 -22 12
-82 1 -77 13 -157 19 -128 1 6 6 -3 11 -20 7 -26 8 -25 4 10 -3 22 -9 41 -15
43 -13 5 -13 32 0 32 6 0 10 5 10 11 0 5 -3 8 -7 6 -5 -3 -10 38 -11 91 -4
107 7 118 18 20 6 -49 8 -28 10 97 2 120 4 150 11 120 5 -22 6 -123 3 -225 -3
-108 -1 -198 5 -215 8 -25 10 -17 11 50 2 90 5 88 24 -16 l14 -74 3 70 3 70 5
-55 c5 -52 6 -51 11 35 6 89 6 88 9 -45 3 -163 12 -196 29 -112 12 58 8 117
-9 128 -5 3 -8 35 -7 72 l2 67 6 -70 c6 -77 17 -70 24 15 2 30 3 -25 1 -122
-1 -97 2 -175 7 -172 4 3 9 22 9 42 2 35 2 34 8 -10 12 -86 16 -58 15 105 -1
89 1 133 4 97 l6 -65 7 80 c6 77 6 75 8 -45 1 -69 2 -159 2 -200 1 -57 2 -67
8 -40 7 33 8 31 15 -29 6 -45 11 -60 17 -49 5 10 3 55 -7 114 -9 61 -17 184
-19 319 l-3 220 7 -185 c8 -178 25 -314 43 -334 4 -6 8 -43 8 -83 0 -42 4 -73
10 -73 6 0 10 -14 10 -32 0 -17 3 -28 7 -24 4 3 6 25 4 47 -1 26 2 38 9 34 13
-8 11 -25 19 230 l7 220 3 -200 c3 -175 15 -367 20 -310 1 16 3 17 10 6 23
-37 25 211 3 544 -7 107 -9 118 -12 65 l-3 -65 -7 50 c-5 45 -7 47 -12 20 -4
-16 -5 6 -3 50 3 55 1 72 -5 55 -6 -17 -7 -4 -3 39 3 37 2 62 -3 58 -5 -3 -9
42 -8 106 2 105 1 107 -5 30 -9 -120 -21 -113 -22 13 0 60 -4 127 -8 149 l-9
40 -3 -55 c-9 -172 -25 345 -39 1290 -2 100 -5 145 -9 115 -3 -27 -4 -300 -1
-605 3 -388 2 -570 -6 -605 l-11 -50 -8 46 c-4 26 -5 319 -3 653 1 333 0 606
-4 606 -4 0 -3 12 1 28 5 15 5 52 1 82 -4 30 -5 61 -3 68 3 6 0 12 -7 12 -6 0
-9 -4 -5 -9 3 -5 1 -12 -4 -15 -5 -3 -11 3 -14 14 -3 11 -1 18 4 14 5 -3 9 -1
9 5 0 5 7 17 16 25 13 14 13 16 1 16 -8 0 -15 6 -14 13 1 34 -4 48 -15 41 -6
-4 -8 -3 -5 3 4 6 -1 19 -11 30 -9 10 -13 13 -8 5 7 -10 3 -12 -19 -8 -16 3
-33 11 -39 17 -8 9 -8 10 2 5 18 -10 15 -1 -5 15 -10 8 -14 9 -10 2 4 -6 3
-14 -3 -18 -5 -3 -10 2 -11 12 0 16 -1 16 -9 -2 -6 -13 -9 -15 -9 -5 -1 13 -3
13 -10 1 -5 -8 -19 -12 -35 -9 -14 3 -26 1 -26 -3 0 -5 -5 -9 -12 -9 -6 0 -8
3 -5 7 4 3 2 12 -5 20 -10 12 -7 13 15 8 31 -8 48 0 40 20 -7 20 -15 19 -31
-2z m-102 -79 c0 -2 -9 0 -20 6 -11 6 -20 13 -20 16 0 2 9 0 20 -6 11 -6 20
-13 20 -16z m153 -18 c4 -11 0 -11 -18 -2 -13 6 -21 14 -19 18 6 10 31 -1 37
-16z m77 14 c0 -5 -2 -10 -4 -10 -3 0 -8 5 -11 10 -3 6 -1 10 4 10 6 0 11 -4
11 -10z m-400 -10 c0 -5 -2 -10 -4 -10 -3 0 -8 5 -11 10 -3 6 -1 10 4 10 6 0
11 -4 11 -10z m210 -11 c0 -14 -17 -10 -23 5 -4 10 -1 13 9 9 7 -3 14 -9 14
-14z m-286 -19 c-6 -6 -10 -3 -10 10 0 13 4 16 10 10 7 -7 7 -13 0 -20z m46
21 c0 -6 -4 -13 -10 -16 -5 -3 -10 -19 -10 -35 0 -32 -15 -48 -24 -25 -3 8 -1
15 4 15 5 0 9 8 8 18 -3 36 2 52 17 52 8 0 15 -4 15 -9z m183 -20 c3 -14 1
-18 -9 -14 -8 3 -17 -2 -20 -11 -6 -16 -24 -13 -24 5 0 6 5 7 11 4 6 -4 13 2
16 14 7 26 19 27 26 2z m-332 -16 c5 4 6 -2 2 -11 -4 -11 -8 -13 -11 -6 -2 7
-8 10 -13 7 -5 -4 -6 2 -2 11 4 11 8 13 11 6 2 -7 8 -10 13 -7z m389 6 c0 -6
-4 -12 -8 -15 -5 -3 -9 1 -9 9 0 8 4 15 9 15 4 0 8 -4 8 -9z m-230 -20 c0 -6
-4 -13 -10 -16 -5 -3 -10 1 -10 9 0 9 5 16 10 16 6 0 10 -4 10 -9z m29 -61 c0
-9 -4 -8 -9 5 -5 11 -9 27 -9 35 0 9 4 8 9 -5 5 -11 9 -27 9 -35z m-102 8 c-3
-7 -5 -2 -5 12 0 14 2 19 5 13 2 -7 2 -19 0 -25z m564 -28 c14 0 19 -7 19 -27
0 -16 -5 -35 -10 -43 -6 -10 -8 -3 -3 23 4 30 3 37 -11 37 -11 0 -16 -9 -16
-27 0 -16 -4 -23 -9 -17 -5 5 -6 25 -3 44 3 19 7 29 9 23 3 -7 13 -13 24 -13z
m-394 -42 c-3 -8 -6 -5 -6 6 -1 11 2 17 5 13 3 -3 4 -12 1 -19z m-73 6 c9 -3
16 -10 16 -15 0 -4 -7 -6 -15 -3 -8 4 -15 2 -15 -4 0 -6 4 -12 9 -14 13 -4 19
-78 7 -75 -6 1 -10 16 -11 34 0 17 -4 35 -8 39 -7 8 -10 44 -3 44 2 0 11 -3
20 -6z m96 -55 c0 -5 -4 -9 -10 -9 -5 0 -10 7 -10 16 0 8 5 12 10 9 6 -3 10
-10 10 -16z m14 -55 c3 -8 2 -12 -4 -9 -6 3 -10 10 -10 16 0 14 7 11 14 -7z
m348 -9 c3 -13 1 -22 -3 -19 -9 5 -13 44 -5 44 2 0 6 -11 8 -25z m-372 -15 c0
-5 -2 -10 -4 -10 -3 0 -8 5 -11 10 -3 6 -1 10 4 10 6 0 11 -4 11 -10z m390
-42 c0 -18 -2 -20 -9 -8 -6 8 -7 18 -5 22 9 14 14 9 14 -14z m-373 -3 c0 -8
-4 -15 -9 -15 -10 0 -11 14 -1 23 9 10 10 9 10 -8z m71 -30 c-3 -3 -9 2 -12
12 -6 14 -5 15 5 6 7 -7 10 -15 7 -18z m-10 -66 c-3 -8 -7 -3 -11 10 -4 17 -3
21 5 13 5 -5 8 -16 6 -23z m9 -51 c-3 -8 -6 -5 -6 6 -1 11 2 17 5 13 3 -3 4
-12 1 -19z m10 -40 c-3 -8 -6 -5 -6 6 -1 11 2 17 5 13 3 -3 4 -12 1 -19z m350
-1110 c-3 -7 -5 -2 -5 12 0 14 2 19 5 13 2 -7 2 -19 0 -25z m-70 -293 c-1 -75
-1 -76 -4 -15 -2 36 -8 75 -14 87 -7 12 -8 30 -4 40 13 30 23 -21 22 -112z
m-210 18 c-3 -10 -5 -2 -5 17 0 19 2 27 5 18 2 -10 2 -26 0 -35z m100 -105
c-2 -18 -4 -6 -4 27 0 33 2 48 4 33 2 -15 2 -42 0 -60z m22 -60 c0 -57 -4 -92
-8 -78 -7 26 -3 180 5 180 2 0 4 -46 3 -102z m-92 -40 c-2 -24 -4 -5 -4 42 0
47 2 66 4 43 2 -24 2 -62 0 -85z m-17 -10 c0 -23 -3 -29 -11 -21 -6 6 -8 20
-4 32 9 30 15 26 15 -11z m121 -163 l-9 -40 -1 41 c-1 23 2 70 7 105 l7 64 3
-65 c1 -36 -1 -83 -7 -105z m296 -277 c-2 -13 -4 -3 -4 22 0 25 2 35 4 23 2
-13 2 -33 0 -45z"/>
<path d="M9585 8020 c-3 -5 -2 -10 4 -10 5 0 13 5 16 10 3 6 2 10 -4 10 -5 0
-13 -4 -16 -10z"/>
<path d="M9624 8021 c4 -5 0 -12 -6 -14 -8 -3 -6 -6 5 -6 9 -1 17 6 17 14 0 8
-5 15 -11 15 -5 0 -8 -4 -5 -9z"/>
<path d="M9656 8021 c-4 -7 -5 -15 -2 -18 9 -9 19 4 14 18 -4 11 -6 11 -12 0z"/>
<path d="M9445 8006 c-19 -20 -26 -36 -18 -36 18 0 42 25 35 36 -5 9 -10 9
-17 0z"/>
<path d="M9137 7986 c-3 -8 -1 -16 5 -18 7 -3 9 -12 4 -24 -4 -10 -9 -43 -10
-72 -2 -29 -9 -58 -16 -65 -10 -10 -12 -8 -7 10 3 12 -1 27 -8 33 -11 9 -12 7
-8 -11 5 -17 3 -20 -7 -14 -9 5 -11 4 -6 -3 4 -7 2 -20 -3 -29 -8 -14 -11 -15
-11 -3 0 12 -3 11 -11 -3 -11 -18 -6 -31 12 -33 5 -1 12 -2 17 -3 9 -1 39 -56
52 -96 l10 -30 -5 30 c-2 17 -8 41 -11 55 -7 22 -5 23 8 12 9 -7 19 -29 23
-48 3 -20 9 -34 12 -31 8 8 -8 88 -16 82 -5 -2 -13 7 -20 21 -14 31 -14 37 -1
29 10 -6 12 6 16 120 1 33 3 69 5 79 5 23 -16 33 -24 12z"/>
<path d="M9168 7930 c-8 -52 6 -67 18 -20 6 21 8 37 3 35 -4 -3 -9 1 -12 7 -2
7 -6 -3 -9 -22z"/>
<path d="M9290 7955 c0 -2 9 -9 20 -15 16 -9 18 -8 14 5 -5 13 -34 22 -34 10z"/>
<path d="M9958 7903 c7 -3 16 -2 19 1 4 3 -2 6 -13 5 -11 0 -14 -3 -6 -6z"/>
<path d="M8680 7865 c-1 -5 -2 -13 -1 -17 0 -5 -3 -8 -9 -8 -5 0 -10 -5 -10
-12 0 -8 6 -7 16 4 9 9 14 22 11 30 -3 7 -6 9 -7 3z"/>
<path d="M8588 7773 c7 -3 16 -2 19 1 4 3 -2 6 -13 5 -11 0 -14 -3 -6 -6z"/>
<path d="M8846 7754 c-5 -14 -4 -15 9 -4 17 14 19 20 6 20 -5 0 -12 -7 -15
-16z"/>
<path d="M8930 7760 c0 -5 5 -10 10 -10 6 0 9 -3 9 -7 -1 -5 -1 -17 1 -28 l1
-20 8 20 c5 11 3 28 -3 38 -12 19 -26 23 -26 7z"/>
<path d="M8597 7743 c3 -7 6 -13 8 -13 2 0 5 6 8 13 3 8 -1 14 -8 14 -7 0 -11
-6 -8 -14z"/>
<path d="M8626 7723 c-6 -14 -5 -15 5 -6 7 7 10 15 7 18 -3 3 -9 -2 -12 -12z"/>
<path d="M9365 7731 c-3 -5 -2 -12 3 -15 5 -3 9 1 9 9 0 17 -3 19 -12 6z"/>
<path d="M9020 7719 c0 -5 5 -7 10 -4 6 3 10 8 10 11 0 2 -4 4 -10 4 -5 0 -10
-5 -10 -11z"/>
<path d="M9285 7708 c4 -13 13 -29 21 -37 11 -12 11 -9 2 22 -6 20 -15 37 -20
37 -5 0 -6 -10 -3 -22z"/>
<path d="M9371 7679 c-1 -9 8 -24 19 -34 11 -10 20 -13 20 -7 0 6 -6 15 -14
19 -7 4 -16 15 -19 23 -5 13 -6 13 -6 -1z"/>
<path d="M9470 7594 c0 -17 17 -36 24 -26 3 5 -1 15 -9 22 -8 7 -15 9 -15 4z"/>
<path d="M9454 7470 c0 -13 4 -16 10 -10 7 7 7 13 0 20 -6 6 -10 3 -10 -10z"/>
<path d="M9522 7445 c0 -16 2 -22 5 -12 2 9 2 23 0 30 -3 6 -5 -1 -5 -18z"/>
<path d="M9542 7450 c0 -14 2 -19 5 -12 2 6 2 18 0 25 -3 6 -5 1 -5 -13z"/>
<path d="M9488 7444 c-2 -5 -2 -22 2 -39 4 -24 7 -26 12 -13 8 19 -5 68 -14
52z"/>
<path d="M9572 7425 c-1 -13 3 -27 8 -30 6 -3 10 5 10 19 0 32 -15 42 -18 11z"/>
<path d="M9464 7395 c1 -8 8 -21 16 -28 12 -10 12 -9 2 4 -6 9 -9 18 -6 21 3
3 1 9 -4 12 -6 3 -9 -1 -8 -9z"/>
<path d="M9505 7367 c-8 -19 -2 -31 13 -26 5 2 6 13 2 24 -7 19 -8 19 -15 2z"/>
<path d="M9590 7341 c0 -5 5 -13 10 -16 6 -3 10 -2 10 4 0 5 -4 13 -10 16 -5
3 -10 2 -10 -4z"/>
<path d="M9516 7311 c-4 -5 -2 -12 3 -15 5 -4 12 -2 15 3 4 5 2 12 -3 15 -5 4
-12 2 -15 -3z"/>
<path d="M9590 7147 c4 -41 5 -41 8 -8 2 18 0 37 -5 42 -5 5 -6 -11 -3 -34z"/>
<path d="M9542 7160 c0 -14 2 -19 5 -12 2 6 2 18 0 25 -3 6 -5 1 -5 -13z"/>
<path d="M9550 7075 c0 -8 4 -15 10 -15 5 0 7 7 4 15 -4 8 -8 15 -10 15 -2 0
-4 -7 -4 -15z"/>
<path d="M9602 7050 c0 -14 2 -19 5 -12 2 6 2 18 0 25 -3 6 -5 1 -5 -13z"/>
<path d="M9611 6954 c0 -11 3 -14 6 -6 3 7 2 16 -1 19 -3 4 -6 -2 -5 -13z"/>
<path d="M9567 6953 c-2 -5 -1 -19 4 -33 7 -23 7 -23 8 8 1 31 -3 40 -12 25z"/>
<path d="M9576 6857 c3 -10 9 -15 12 -12 3 3 0 11 -7 18 -10 9 -11 8 -5 -6z"/>
<path d="M9585 6790 c2 -31 15 -37 15 -7 0 15 -4 27 -8 27 -5 0 -8 -9 -7 -20z"/>
<path d="M9550 6790 c0 -5 5 -10 11 -10 5 0 7 5 4 10 -3 6 -8 10 -11 10 -2 0
-4 -4 -4 -10z"/>
<path d="M9597 6697 c-3 -8 -1 -20 4 -28 6 -10 9 -7 9 14 0 29 -5 35 -13 14z"/>
<path d="M9600 6626 c0 -8 4 -17 9 -20 5 -4 7 3 4 14 -6 23 -13 26 -13 6z"/>
<path d="M9962 6430 c0 -14 2 -19 5 -12 2 6 2 18 0 25 -3 6 -5 1 -5 -13z"/>
<path d="M10033 6325 c0 -38 2 -53 4 -32 2 20 2 52 0 70 -2 17 -4 1 -4 -38z"/>
<path d="M9641 5774 c0 -11 3 -14 6 -6 3 7 2 16 -1 19 -3 4 -6 -2 -5 -13z"/>
<path d="M9692 5610 c0 -14 2 -19 5 -12 2 6 2 18 0 25 -3 6 -5 1 -5 -13z"/>
<path d="M10163 5435 c0 -33 2 -45 4 -27 2 18 2 45 0 60 -2 15 -4 0 -4 -33z"/>
<path d="M10171 5186 c-1 -34 2 -47 9 -40 7 7 7 24 1 50 l-9 39 -1 -49z"/>
<path d="M9781 5203 c7 -12 15 -20 18 -17 3 2 -3 12 -13 22 -17 16 -18 16 -5
-5z"/>
<path d="M9910 5205 c-10 -12 -10 -15 1 -15 10 0 10 -3 1 -12 -16 -16 -15 -40
4 -64 8 -10 13 -13 9 -6 -10 19 13 14 24 -5 6 -10 10 -13 10 -8 0 17 -25 45
-33 37 -4 -4 -6 14 -4 41 3 26 4 47 3 47 -2 0 -8 -7 -15 -15z"/>
<path d="M9940 5201 c0 -6 4 -13 10 -16 6 -3 7 1 4 9 -7 18 -14 21 -14 7z"/>
<path d="M9917 5065 c-4 -9 2 -19 13 -25 23 -12 25 -3 6 23 -12 15 -14 15 -19
2z"/>
</g>
</svg>
