<svg version="1.1" id="Layer_1" xmlns="http://www.w3.org/2000/svg" xmlns:xlink="http://www.w3.org/1999/xlink" x="0px" y="0px"
	 width="100%" viewBox="0 0 1024 1024" enable-background="new 0 0 1024 1024" xml:space="preserve">
<path fill="#000000" opacity="1.000000" stroke="none" 
	d="
M467.454254,99.414780 
	C473.503601,100.332947 479.134003,101.015129 484.699005,102.049377 
	C491.866089,103.381386 498.939270,103.017990 506.048340,101.704727 
	C511.996796,100.605865 517.993591,100.595673 523.945312,101.682137 
	C535.609131,103.811340 547.901428,101.148384 559.152527,105.069618 
	C577.367676,111.417938 597.092285,112.532257 614.507080,121.416466 
	C617.017395,122.697151 619.425110,124.228073 621.728210,125.858109 
	C638.397644,137.656006 652.615723,152.000381 665.640442,167.669800 
	C674.170776,177.932236 685.436096,185.038406 696.795654,191.598892 
	C713.638916,201.326401 722.383118,216.356613 726.910278,234.412277 
	C729.323486,244.037048 732.618286,252.898834 738.705933,261.081970 
	C745.937744,270.803040 751.629456,281.655304 760.996155,289.744324 
	C762.330139,290.896393 763.218384,292.669220 764.040894,294.292542 
	C771.728516,309.464844 778.865967,324.909119 783.733704,341.226837 
	C789.428101,360.315979 789.586670,379.618134 784.502075,398.945770 
	C781.319580,411.043549 781.745056,423.411530 782.399414,435.725800 
	C783.911682,464.182281 782.406372,492.322571 774.473450,519.877319 
	C773.128357,524.549438 771.132874,528.930420 768.885559,533.224060 
	C760.134644,549.943481 752.678894,567.094666 748.458862,585.664307 
	C745.148376,600.231750 746.122375,614.371277 753.741638,626.721619 
	C763.137085,641.951050 766.363586,658.399841 767.950562,675.565796 
	C768.679810,683.454956 770.426453,690.962036 773.934814,698.107910 
	C775.910095,702.131165 777.612610,706.301636 778.751526,710.689087 
	C782.650818,725.710449 790.849854,738.675049 798.295105,752.059326 
	C806.570312,766.935608 808.726013,782.449402 802.699646,799.130920 
	C798.582458,810.527588 791.922180,819.949829 784.665466,829.274658 
	C781.616150,833.193115 778.946533,837.478394 776.616394,841.868652 
	C773.058655,848.572021 767.415344,852.281311 760.747009,855.469482 
	C754.979797,858.226990 749.465820,861.939758 744.635803,866.144531 
	C734.222534,875.209778 719.963989,877.854492 707.476562,872.225708 
	C698.724182,868.280579 689.489014,865.328857 682.314636,858.369507 
	C679.423218,855.564758 676.039001,856.252808 672.204773,858.028748 
	C662.482239,862.532166 655.712952,869.848938 649.037292,877.964111 
	C641.899170,886.641724 632.909668,891.034973 620.249451,889.806152 
	C602.404968,888.074219 584.378052,885.970886 566.322510,892.135925 
	C554.682739,896.110413 541.819153,897.203735 529.243469,895.928711 
	C515.532959,894.538574 502.043152,897.859375 488.389435,897.375183 
	C486.255157,897.299500 484.106934,897.514771 481.932922,897.376099 
	C474.621094,896.909912 467.215332,896.139709 460.055786,898.164978 
	C450.755707,900.795837 441.602814,900.378174 432.441772,897.828308 
	C421.744324,894.850952 410.734833,893.741516 399.780823,894.206604 
	C389.873474,894.627258 380.887695,892.048645 372.377106,887.973511 
	C363.540619,883.742249 354.156525,880.820801 345.660645,875.703796 
	C336.602448,870.248108 331.870575,861.963562 328.196533,852.757080 
	C325.957794,847.147156 322.888702,842.108643 319.824005,836.937866 
	C312.052124,823.825134 306.954010,809.498291 304.188507,794.531555 
	C300.857391,776.503662 297.075531,758.586548 292.305664,740.900330 
	C290.528839,734.311951 286.726471,728.456360 283.236603,722.596313 
	C279.685852,716.634094 277.660889,710.321411 276.634308,703.432617 
	C274.788330,691.044922 270.858521,679.167297 266.299438,667.524231 
	C255.122604,638.980652 240.702423,611.935669 227.504913,584.334473 
	C217.064957,562.500427 210.280319,539.666443 205.580948,516.036743 
	C204.056808,508.372955 202.131348,500.784576 200.851410,493.056915 
	C200.111847,488.591858 198.514893,484.336304 196.158707,480.470306 
	C194.044724,477.001740 191.513229,474.174286 186.806366,473.967346 
	C178.529861,473.603546 174.459244,470.261658 174.343979,462.172150 
	C174.127121,446.953766 175.695236,431.783142 182.235855,417.794067 
	C186.921387,407.772583 191.292953,397.827087 191.800964,386.581390 
	C191.926102,383.811127 191.526886,381.832031 189.226624,379.614136 
	C185.062897,375.599457 182.328247,370.327271 179.731598,365.127197 
	C178.957504,363.576996 178.871689,361.775879 180.685226,360.717346 
	C182.314224,359.766510 183.444717,360.861145 184.601349,361.924957 
	C187.315353,364.421143 188.499023,367.620941 189.278305,371.111053 
	C190.056030,374.593964 191.428574,377.066772 195.167343,373.471588 
	C196.296951,372.385376 197.795410,372.045166 199.288940,371.835571 
	C209.904495,370.345673 214.613968,362.591156 217.443207,353.670532 
	C220.677231,343.473541 221.203583,332.739777 221.950729,322.095703 
	C222.812668,309.816040 223.695770,297.555328 226.842514,285.544525 
	C233.719482,259.296021 243.665344,234.111526 257.509827,210.985672 
	C274.142944,183.201706 298.113983,163.270111 329.442322,152.902359 
	C344.779999,147.826569 359.934052,142.167084 372.803070,131.850540 
	C378.100403,127.603882 382.710602,122.632912 388.417755,118.768135 
	C406.368011,106.612534 425.176178,97.260002 447.573303,98.060593 
	C454.057861,98.292381 460.528992,98.899971 467.454254,99.414780 
M659.863403,796.584534 
	C661.517822,800.832458 663.172241,805.080383 664.826721,809.328308 
	C666.022461,806.499390 666.333008,803.752197 669.158508,801.847046 
	C664.046021,802.652222 663.975708,796.494629 659.825195,795.302490 
	C659.449646,790.642273 661.561951,787.755798 666.193726,787.032715 
	C665.770386,785.636475 664.936157,785.468811 664.177307,785.129150 
	C661.464661,783.914673 658.552002,783.187805 660.020203,778.754517 
	C660.876343,776.169006 658.055481,776.249329 655.917786,776.406128 
	C656.522949,774.277283 656.607544,771.897522 659.581909,772.780579 
	C662.921936,773.772278 662.829285,771.166687 662.977600,769.452209 
	C663.208435,766.783020 662.559814,764.164978 660.812256,761.957153 
	C659.187866,759.904724 658.984436,757.455444 658.576965,754.956482 
	C657.555725,748.692444 656.126709,742.528259 650.663696,738.292175 
	C649.778687,737.605896 648.955627,736.560120 648.603333,735.512573 
	C646.541809,729.382812 644.806885,723.138062 642.589600,717.068054 
	C641.500061,714.085144 641.447205,709.392212 635.049133,710.825623 
	C641.670349,752.683411 646.602295,794.543457 645.698975,837.511108 
	C647.205200,833.907959 648.962341,837.919922 650.410156,836.491272 
	C649.582886,833.830505 651.094788,831.342712 650.985962,828.370117 
	C649.887024,827.863159 647.463684,829.351501 647.309021,826.041016 
	C649.389587,825.793518 651.746399,825.401733 653.042236,822.895691 
	C648.623352,820.777222 651.951965,819.533447 653.819397,818.428101 
	C648.938477,816.114624 650.390198,812.053101 650.419739,808.499512 
	C650.420898,808.360107 650.956848,808.225159 651.130127,808.142273 
	C653.078735,808.034607 652.528015,810.756226 654.276306,810.797363 
	C658.363403,806.409424 658.966675,801.542480 656.409790,796.378723 
	C657.716980,795.340088 658.870728,795.907837 659.863403,796.584534 
M349.841125,410.478363 
	C348.987396,411.920074 348.647125,413.486298 348.262421,415.124878 
	C347.085052,420.139526 350.127716,424.612030 349.994080,429.205322 
	C349.754242,437.447418 353.725677,442.619507 359.872040,446.956207 
	C360.951904,447.718170 361.817261,448.778564 362.872589,449.581726 
	C371.348511,456.032440 378.005676,465.132935 389.900635,467.432617 
	C387.111359,472.752350 394.019897,476.780914 390.594635,481.840607 
	C394.859222,484.340698 395.242889,488.961456 397.258606,492.518219 
	C400.124329,497.574707 402.285706,503.308014 406.974701,506.770630 
	C410.547699,509.409149 412.617462,512.673218 414.639923,516.285461 
	C416.431213,519.484741 418.857147,522.083984 421.822601,524.347168 
	C426.391602,527.834106 429.705994,531.907715 429.515198,538.449951 
	C429.344543,544.303101 429.591309,550.291931 430.956024,556.096558 
	C435.073669,573.610352 435.437561,591.435425 435.303802,609.289185 
	C435.208160,622.053772 432.975159,634.530945 435.367157,647.679321 
	C437.012634,656.724365 436.546021,667.150513 434.603271,676.856201 
	C434.044342,679.648499 433.805481,682.709961 436.442535,684.672607 
	C438.964539,686.549500 439.537933,689.199219 440.365875,691.908936 
	C444.576660,705.689636 447.784180,719.894958 457.188873,731.491821 
	C459.681183,734.565063 461.484344,738.094666 463.437744,741.555420 
	C467.700256,749.107056 473.596283,755.412048 482.807465,756.490479 
	C498.263489,758.299866 512.674011,754.952332 526.475403,747.584778 
	C544.433960,737.997925 557.055908,722.907654 569.638489,707.667847 
	C576.001831,699.960693 579.685547,690.530701 585.653259,682.525330 
	C590.526672,675.987793 595.943726,670.318787 603.902649,667.832031 
	C606.484863,667.025208 606.966980,665.678955 607.224670,663.180481 
	C607.853271,657.087769 606.561096,651.220459 605.590027,645.356506 
	C603.843872,634.811584 603.001465,624.043457 598.614380,614.059204 
	C597.436462,611.378479 595.458313,609.072449 595.549255,605.765198 
	C595.840637,595.168579 591.320374,585.459351 588.992554,575.405334 
	C586.891907,566.332886 585.078918,557.481140 584.406616,548.157043 
	C583.796082,539.688232 584.242432,531.208496 583.337097,522.792297 
	C583.073914,520.345581 583.786560,518.140747 585.255066,516.877319 
	C590.546448,512.324951 593.371521,506.498108 596.178284,500.249451 
	C598.925781,494.132721 601.411560,488.215759 602.268250,481.486816 
	C602.779480,477.471710 604.265991,473.413177 606.101379,469.770935 
	C609.413025,463.199371 613.228638,456.910339 620.356689,453.497589 
	C621.888611,452.764130 622.908630,450.995728 623.893311,449.393311 
	C625.542480,446.709503 627.122375,443.711426 629.497925,441.796509 
	C636.672119,436.013489 638.839478,427.529816 642.104248,419.669983 
	C643.375061,416.610504 642.858154,413.229187 641.616821,409.946289 
	C638.462463,401.603821 633.100464,395.412292 624.823120,391.897247 
	C625.698547,388.740387 628.026001,385.307678 625.609558,382.862671 
	C623.548157,380.776917 623.726257,378.824066 623.676025,376.623230 
	C623.516418,369.635895 624.212769,362.539032 623.226074,355.679016 
	C621.061951,340.632874 618.677979,325.633118 615.041931,310.786621 
	C612.544189,300.588287 607.404236,292.094147 602.083557,283.623932 
	C599.332581,279.244476 596.459839,274.528534 592.109253,271.264740 
	C585.236450,266.108765 579.018921,260.220520 571.890259,255.247681 
	C562.275757,248.540726 552.277466,243.381866 541.103149,240.644424 
	C536.979309,239.634171 534.873901,235.880310 530.645996,235.249100 
	C518.347473,233.412964 506.173431,231.252304 493.608215,233.253830 
	C482.817749,234.972656 471.912170,235.909912 461.008240,236.894241 
	C447.547150,238.109406 434.977173,243.690460 423.326904,250.519958 
	C409.721497,258.495575 397.578278,268.508392 390.048248,282.656952 
	C385.706421,290.815063 380.132294,298.100800 376.979553,307.244385 
	C370.478149,326.099731 365.755035,344.859833 367.223877,364.941284 
	C367.516235,368.938171 368.442108,372.813477 368.697784,376.748871 
	C369.169617,384.011780 370.855560,390.718384 376.306458,397.378693 
	C371.650391,396.315094 371.145721,399.279541 370.516022,402.379242 
	C361.710022,399.781219 354.817139,401.909363 349.841125,410.478363 
M622.671509,271.002228 
	C625.332947,265.094482 620.852173,259.363129 611.761353,258.135284 
	C613.707642,264.037903 616.997131,268.101959 622.671509,271.002228 
z"/>
</svg>