<?xml version="1.0" standalone="no"?>
<!DOCTYPE svg PUBLIC "-//W3C//DTD SVG 20010904//EN"
 "http://www.w3.org/TR/2001/REC-SVG-20010904/DTD/svg10.dtd">
<svg version="1.0" xmlns="http://www.w3.org/2000/svg"
 width="1920.000000pt" height="1920.000000pt" viewBox="0 0 1920.000000 1920.000000"
 preserveAspectRatio="xMidYMid meet">

<g transform="translate(0.000000,1920.000000) scale(0.100000,-0.100000)"
fill="#000000" stroke="none">
<path d="M9415 16361 c250 -44 376 -81 514 -150 104 -53 149 -103 232 -261 40
-76 75 -137 77 -135 8 8 -124 258 -156 296 -95 111 -341 210 -642 259 -69 11
-138 20 -155 19 -16 0 42 -13 130 -28z"/>
<path d="M8151 16372 c-1 -20 39 -100 57 -114 15 -11 15 -11 5 3 -7 8 -24 40
-37 70 -14 30 -25 48 -25 41z"/>
<path d="M8125 16329 c7 -46 48 -149 81 -200 34 -54 41 -49 9 6 -15 24 -42 86
-61 137 -20 53 -32 77 -29 57z"/>
<path d="M9300 16330 c8 -5 20 -10 25 -10 6 0 3 5 -5 10 -8 5 -19 10 -25 10
-5 0 -3 -5 5 -10z"/>
<path d="M8240 16074 c0 -17 58 -77 115 -119 36 -26 65 -51 65 -55 0 -11 -34
-21 -245 -74 -156 -39 -333 -93 -314 -95 9 -1 302 71 424 104 55 15 111 34
125 43 14 9 31 15 38 14 31 -7 6 22 -58 64 -38 25 -85 63 -103 85 -31 36 -47
47 -47 33z"/>
<path d="M8410 16076 c0 -3 9 -10 20 -16 11 -6 20 -8 20 -6 0 3 -9 10 -20 16
-11 6 -20 8 -20 6z"/>
<path d="M8494 16026 c11 -9 24 -16 30 -16 12 0 7 5 -24 19 -24 11 -24 11 -6
-3z"/>
<path d="M9909 15953 c36 -48 59 -67 43 -37 -6 11 -25 33 -43 49 l-33 30 33
-42z"/>
<path d="M8610 15960 c64 -51 174 -60 395 -30 86 11 124 9 369 -21 87 -11 160
-18 163 -16 6 7 -106 25 -276 43 -134 15 -169 16 -265 5 -237 -28 -239 -27
-356 18 -53 21 -54 21 -30 1z"/>
<path d="M9975 15849 c26 -71 -19 -89 -116 -48 -27 12 -52 19 -55 17 -2 -3 19
-15 47 -28 115 -49 178 -15 134 70 -22 43 -27 37 -10 -11z"/>
<path d="M10750 15770 c-35 -6 -28 -7 30 -3 200 10 349 -31 522 -147 92 -61
432 -351 483 -411 l20 -23 -25 17 c-88 60 -77 43 21 -33 44 -34 83 -60 85 -57
9 8 -134 154 -222 227 -42 36 -107 92 -143 125 -152 139 -310 241 -435 281
-88 28 -250 39 -336 24z"/>
<path d="M10643 15753 c9 -2 25 -2 35 0 9 3 1 5 -18 5 -19 0 -27 -2 -17 -5z"/>
<path d="M10440 15725 l-135 -24 -17 22 -18 22 3 -25 c2 -21 -3 -25 -36 -31
-20 -3 -41 -9 -45 -14 -4 -4 13 -4 38 0 77 11 374 65 385 69 27 11 -54 2 -175
-19z"/>
<path d="M7554 15577 c-28 -19 -104 -76 -170 -127 -146 -115 -297 -215 -355
-236 -24 -8 -75 -24 -114 -34 -38 -10 -59 -19 -45 -19 106 -3 324 114 530 284
41 34 102 81 135 105 33 23 64 47 70 51 19 18 -2 8 -51 -24z"/>
<path d="M10706 15581 c-3 -4 42 -11 100 -14 74 -3 110 -9 122 -20 21 -19 131
-61 139 -53 3 3 -7 10 -23 16 -16 6 -38 14 -49 19 -42 20 42 11 141 -14 53
-14 99 -23 102 -21 2 3 -13 9 -34 15 -22 5 -59 15 -84 21 -67 18 -329 60 -372
60 -20 0 -39 -4 -42 -9z"/>
<path d="M9131 15559 c-148 -19 -271 -76 -369 -172 -64 -63 -155 -183 -150
-198 2 -6 19 13 38 43 18 29 70 90 115 134 133 133 269 184 487 184 188 0 372
-58 437 -137 33 -40 54 -39 28 1 -75 114 -333 178 -586 145z"/>
<path d="M11415 15420 c7 -11 145 -83 145 -76 0 6 -107 69 -133 79 -11 4 -16
3 -12 -3z"/>
<path d="M11220 15416 c0 -3 9 -10 20 -16 11 -6 20 -8 20 -6 0 3 -9 10 -20 16
-11 6 -20 8 -20 6z"/>
<path d="M6303 15316 c55 -51 193 -122 220 -113 6 2 -26 18 -72 37 -57 22 -99
48 -136 81 -29 27 -57 49 -61 49 -5 -1 17 -25 49 -54z"/>
<path d="M7982 15322 c-117 -65 -306 -216 -373 -295 -69 -82 -116 -176 -163
-327 -55 -176 -105 -459 -94 -531 2 -13 9 26 16 86 39 336 129 614 246 758 62
75 237 215 364 289 56 33 102 62 102 64 0 9 -20 1 -98 -44z"/>
<path d="M11570 15336 c0 -3 9 -10 20 -16 11 -6 20 -8 20 -6 0 3 -9 10 -20 16
-11 6 -20 8 -20 6z"/>
<path d="M11430 15265 c13 -14 26 -25 28 -25 3 0 -5 11 -18 25 -13 14 -26 25
-28 25 -3 0 5 -11 18 -25z"/>
<path d="M10871 15273 c0 -5 30 -23 67 -41 152 -74 285 -204 390 -382 120
-202 162 -334 186 -585 39 -393 53 -466 141 -735 36 -107 72 -222 81 -255 10
-33 19 -53 21 -44 6 24 -29 153 -87 324 -28 83 -60 186 -70 230 -20 84 -53
328 -65 479 -11 142 -64 337 -128 468 -124 256 -273 420 -474 522 -56 28 -63
30 -62 19z"/>
<path d="M6299 15224 c6 -12 25 -35 44 -51 59 -52 370 -202 448 -217 21 -4 10
3 -31 20 -218 87 -403 185 -445 237 -15 18 -22 22 -16 11z"/>
<path d="M10407 15230 c-87 -8 -207 -39 -237 -61 -17 -13 -14 -12 95 21 101
31 291 38 409 16 48 -10 90 -15 93 -12 6 6 -20 13 -92 25 -100 16 -175 19
-268 11z"/>
<path d="M11632 14975 c29 -57 54 -103 56 -101 4 5 -96 206 -103 206 -3 0 19
-47 47 -105z"/>
<path d="M6840 14946 c3 -2 44 -19 90 -36 96 -35 130 -62 130 -100 0 -34 -34
-66 -195 -178 -123 -85 -208 -161 -234 -210 -6 -12 26 16 71 61 47 47 130 115
193 156 197 132 223 173 144 231 -40 28 -112 60 -174 74 -16 4 -28 5 -25 2z"/>
<path d="M9810 14852 c-128 -18 -386 -150 -463 -237 -76 -86 -154 -233 -204
-384 -32 -99 -73 -257 -73 -283 0 -28 12 7 44 132 76 296 190 503 331 600 91
62 254 135 349 154 57 12 69 26 16 18z"/>
<path d="M11711 14815 c0 -5 6 -21 14 -35 8 -14 14 -20 14 -15 0 6 -6 21 -14
35 -8 14 -14 21 -14 15z"/>
<path d="M11741 14745 c0 -5 11 -30 24 -55 13 -25 24 -40 24 -35 0 6 -11 30
-24 55 -13 25 -24 41 -24 35z"/>
<path d="M7210 14543 c-190 -203 -360 -514 -449 -819 -24 -81 -24 -84 -12 -84
5 0 13 15 16 33 14 62 57 183 102 287 116 269 220 435 372 592 30 32 52 60 49
63 -3 3 -38 -29 -78 -72z"/>
<path d="M11800 14617 c0 -14 141 -290 170 -332 15 -22 38 -49 51 -60 l24 -20
-15 20 c-8 11 -24 31 -37 45 -12 14 -61 100 -108 190 -46 91 -85 161 -85 157z"/>
<path d="M7960 14545 c-35 -80 -89 -288 -115 -445 -13 -80 -21 -147 -19 -149
11 -11 22 21 33 99 18 127 59 302 97 419 37 114 40 156 4 76z"/>
<path d="M10030 14511 c0 -4 26 -24 58 -44 56 -34 192 -167 192 -186 0 -5 -25
-15 -56 -21 -31 -7 -99 -33 -151 -59 l-95 -48 -23 36 c-12 20 -34 46 -47 59
-65 60 -255 86 -418 58 -51 -9 -96 -19 -99 -21 -11 -12 8 -15 32 -6 56 22 194
32 285 21 132 -15 154 -28 85 -51 -305 -99 -477 -334 -548 -744 -8 -49 -15
-97 -14 -105 1 -26 18 41 35 140 61 359 237 597 513 691 30 11 66 19 81 19 28
0 65 -33 96 -87 10 -18 22 -33 27 -33 5 0 32 15 60 34 51 34 144 67 222 80 40
7 40 7 72 -46 18 -29 41 -73 51 -98 27 -63 104 -301 99 -306 -2 -2 -19 9 -37
26 -40 36 -217 123 -311 153 -38 12 -69 25 -69 29 0 14 89 59 127 65 l38 6
-24 -27 c-14 -14 -19 -26 -13 -26 18 0 112 74 104 82 -10 10 -110 -8 -159 -28
-47 -20 -105 -63 -101 -75 2 -5 46 -24 98 -43 156 -54 256 -108 349 -188 l23
-20 -7 44 c-9 58 -70 236 -111 326 -70 153 -191 304 -294 367 -61 37 -70 40
-70 26z"/>
<path d="M9506 14401 c-5 -8 15 -11 67 -11 131 0 314 -64 402 -141 19 -17 35
-27 35 -21 0 33 -138 113 -251 145 -100 30 -243 45 -253 28z"/>
<path d="M6580 14340 c-6 -11 -8 -20 -6 -20 3 0 10 9 16 20 6 11 8 20 6 20 -3
0 -10 -9 -16 -20z"/>
<path d="M8800 14274 c-30 -94 -58 -235 -69 -355 -17 -180 -23 -353 -13 -379
7 -19 11 6 16 105 16 313 48 546 91 649 18 41 18 46 6 46 -5 0 -19 -30 -31
-66z"/>
<path d="M8197 14248 c-29 -44 -106 -254 -131 -354 -14 -55 -36 -163 -50 -240
-23 -132 -24 -150 -16 -364 9 -236 23 -336 66 -466 24 -74 52 -137 40 -89 -3
11 -17 63 -30 115 -43 163 -56 262 -56 434 0 105 -4 166 -11 173 -8 8 -5 46
10 140 45 266 100 459 172 607 30 60 33 87 6 44z"/>
<path d="M6522 14225 c-17 -37 -14 -45 4 -12 9 16 14 31 11 33 -2 2 -9 -7 -15
-21z"/>
<path d="M6489 14154 c-51 -133 -92 -259 -99 -310 -5 -34 -13 -70 -16 -80 -5
-13 -4 -16 3 -9 6 6 16 39 23 75 7 36 34 128 61 204 27 76 47 141 45 144 -3 3
-10 -8 -17 -24z"/>
<path d="M12125 14136 c29 -25 234 -136 251 -136 5 0 -34 24 -86 53 -52 29
-117 65 -145 81 -49 27 -50 27 -20 2z"/>
<path d="M6794 14111 c-109 -59 -252 -183 -333 -286 -92 -116 -79 -114 18 3
33 40 80 89 103 108 24 19 60 48 80 65 21 16 76 53 123 80 47 28 85 52 85 55
0 11 -29 1 -76 -25z"/>
<path d="M12410 13987 c0 -7 112 -49 117 -43 2 2 -15 11 -39 19 -24 8 -51 18
-60 22 -10 4 -18 5 -18 2z"/>
<path d="M6602 13905 c-17 -56 -14 -78 4 -30 8 22 13 46 11 55 -2 8 -9 -3 -15
-25z"/>
<path d="M12645 13900 c11 -5 27 -9 35 -9 9 0 8 4 -5 9 -11 5 -27 9 -35 9 -9
0 -8 -4 5 -9z"/>
<path d="M12738 13873 c7 -3 16 -2 19 1 4 3 -2 6 -13 5 -11 0 -14 -3 -6 -6z"/>
<path d="M12818 13853 c7 -3 16 -2 19 1 4 3 -2 6 -13 5 -11 0 -14 -3 -6 -6z"/>
<path d="M12853 13843 c4 -3 1 -13 -6 -22 -11 -14 -10 -14 6 -2 20 15 22 31 5
31 -6 0 -8 -3 -5 -7z"/>
<path d="M12726 13745 c-118 -76 -169 -90 -301 -82 -98 6 -206 35 -271 73 -42
25 -64 30 -64 15 0 -14 139 -69 219 -86 79 -17 207 -22 262 -10 59 13 234 113
254 145 10 15 7 14 -99 -55z"/>
<path d="M12270 13649 c0 -8 11 -49 26 -90 30 -88 73 -296 75 -359 0 -25 5
-54 10 -65 10 -23 3 103 -12 201 -9 61 -73 286 -90 314 -7 13 -8 13 -9 -1z"/>
<path d="M8909 13408 c-21 -41 -21 -42 -2 -25 19 16 21 16 27 2 3 -9 6 -34 6
-55 0 -21 5 -42 11 -45 7 -5 8 4 4 28 -4 20 -8 58 -8 86 -1 28 -5 51 -9 51 -4
0 -17 -19 -29 -42z"/>
<path d="M10650 13417 c0 -19 -9 -58 -19 -88 -10 -30 -22 -63 -26 -74 -4 -11
5 0 20 24 21 32 30 40 36 30 5 -9 9 14 9 58 0 39 -4 75 -10 78 -6 4 -10 -8
-10 -28z"/>
<path d="M6502 13400 c0 -14 2 -19 5 -12 2 6 2 18 0 25 -3 6 -5 1 -5 -13z"/>
<path d="M8855 13303 c-19 -46 -55 -158 -54 -167 0 -6 16 31 35 83 19 52 33
96 31 98 -3 2 -8 -4 -12 -14z"/>
<path d="M9222 13235 c-2 -72 9 -194 29 -323 21 -130 20 -68 0 104 -12 93 -22
196 -24 229 l-3 60 -2 -70z"/>
<path d="M8971 13177 c-1 -29 35 -163 69 -257 37 -100 99 -234 106 -227 3 3
-6 28 -21 57 -41 82 -83 195 -120 325 -19 66 -34 112 -34 102z"/>
<path d="M10478 13038 c-143 -233 -145 -235 -124 -219 9 8 39 51 65 95 26 45
64 106 83 136 39 61 81 140 74 140 -2 0 -46 -69 -98 -152z"/>
<path d="M10397 13145 c-9 -19 -15 -35 -12 -35 7 0 37 61 33 66 -3 2 -12 -12
-21 -31z"/>
<path d="M11693 13148 c3 -13 19 -59 35 -103 63 -171 79 -403 42 -602 -26
-134 -30 -147 -41 -136 -13 13 -87 212 -149 402 -31 96 -62 177 -68 179 -17 5
-15 -24 8 -98 27 -90 25 -135 -14 -286 -34 -131 -108 -304 -133 -312 -10 -3
-13 17 -13 75 0 87 -17 245 -31 280 -14 36 -33 29 -24 -9 20 -90 24 -120 31
-209 7 -95 6 -97 -17 -104 -14 -5 -25 -3 -27 3 -2 6 -19 31 -38 57 -49 64
-114 176 -190 327 -70 140 -95 166 -44 47 42 -100 147 -281 223 -385 34 -47
72 -102 84 -122 12 -21 28 -36 36 -34 18 3 31 -49 48 -193 10 -76 10 -128 1
-225 -7 -69 -11 -156 -11 -195 l2 -70 8 85 c4 47 13 130 19 186 9 82 9 122 -4
220 -9 65 -23 145 -31 178 l-15 58 28 47 c56 92 107 236 132 374 7 37 16 67
21 67 5 0 9 -5 9 -10 0 -22 112 -316 135 -356 62 -105 8 -319 -145 -575 -101
-168 -162 -319 -130 -319 12 0 26 34 47 115 8 33 18 62 22 65 4 3 27 35 51 73
68 104 74 97 68 -98 -3 -91 -1 -162 3 -159 5 3 9 85 9 183 l0 178 45 95 c24
52 53 132 63 179 26 113 43 229 37 239 -3 5 5 62 19 127 32 156 40 285 27 409
-19 171 -83 374 -117 374 -12 0 -15 -6 -11 -22z"/>
<path d="M8220 13131 c0 -80 67 -319 136 -482 117 -281 200 -411 332 -523 104
-90 316 -196 389 -196 26 0 12 19 -19 25 -53 11 -178 65 -252 109 -82 49 -206
167 -263 251 -117 173 -250 511 -289 734 -10 56 -21 101 -26 101 -4 0 -8 -9
-8 -19z"/>
<path d="M10992 13080 c-1 -36 -11 -119 -22 -185 -24 -148 -24 -141 -1 -141
15 0 17 3 9 13 -7 9 -5 47 7 130 9 65 15 147 13 183 l-4 65 -2 -65z"/>
<path d="M10366 13083 c-6 -14 -5 -15 5 -6 7 7 10 15 7 18 -3 3 -9 -2 -12 -12z"/>
<path d="M12372 12944 c-3 -197 -18 -395 -38 -492 -21 -100 -53 -202 -64 -202
-5 0 -12 36 -16 80 -3 45 -9 79 -11 76 -9 -8 10 -186 19 -186 17 0 58 105 77
202 31 149 42 297 39 498 l-3 185 -3 -161z"/>
<path d="M6855 13006 c-18 -190 43 -494 140 -702 l43 -94 0 -202 c-1 -128 3
-214 10 -233 10 -26 11 -21 5 30 -7 63 -5 336 2 344 3 2 11 -2 20 -9 23 -19
19 -8 -34 99 -61 120 -112 265 -143 403 -19 85 -23 132 -23 270 0 93 -3 168
-7 168 -3 0 -9 -33 -13 -74z"/>
<path d="M6620 13036 c-5 -15 -13 -39 -16 -54 -4 -15 -33 -81 -66 -147 -86
-175 -285 -449 -453 -624 -90 -93 -192 -180 -230 -196 -17 -7 -17 -9 -4 -12
30 -7 309 94 309 112 0 3 -17 -2 -37 -11 -75 -32 -164 -64 -177 -64 -8 0 45
60 118 133 177 177 404 480 490 655 38 76 89 222 81 230 -2 3 -9 -7 -15 -22z"/>
<path d="M12110 13016 c0 -4 14 -49 31 -100 32 -95 40 -166 26 -226 -8 -33 -8
-34 7 -15 13 17 17 18 26 5 9 -13 10 -13 10 0 0 27 -39 193 -61 260 -19 58
-39 97 -39 76z"/>
<path d="M10294 12958 c-4 -7 -14 -24 -22 -38 -14 -24 -13 -24 3 -5 20 24 37
55 31 55 -3 0 -8 -6 -12 -12z"/>
<path d="M8781 12884 c0 -21 4 -59 9 -84 6 -34 7 -25 3 35 -6 84 -14 115 -12
49z"/>
<path d="M7151 12843 c-11 -26 -10 -27 4 -8 14 17 17 18 25 5 5 -8 10 -26 11
-40 1 -21 2 -22 6 -4 5 24 -12 74 -25 74 -5 0 -14 -12 -21 -27z"/>
<path d="M7535 12806 c6 -63 75 -269 125 -371 42 -88 115 -188 181 -250 26
-25 12 -4 -40 59 -46 56 -100 134 -123 180 -59 117 -119 299 -68 206 27 -49
24 -26 -5 45 -15 37 -25 83 -27 120 -1 50 -2 53 -5 18 -2 -24 -8 -43 -12 -43
-5 0 -13 19 -19 43 l-11 42 4 -49z"/>
<path d="M7205 12731 c3 -24 12 -55 20 -70 19 -34 18 -28 -5 49 -18 56 -20 59
-15 21z"/>
<path d="M7126 12665 c10 -139 78 -369 165 -554 83 -177 252 -392 349 -445
l35 -18 -40 32 c-116 96 -245 261 -320 409 -73 146 -156 405 -180 561 l-14 95
5 -80z"/>
<path d="M8802 12720 c0 -14 2 -19 5 -12 2 6 2 18 0 25 -3 6 -5 1 -5 -13z"/>
<path d="M8041 12725 c-6 -20 1 -84 25 -240 26 -163 56 -255 95 -291 26 -24
24 -12 -11 49 -16 28 -36 78 -44 109 -14 56 -52 276 -59 348 -2 19 -5 31 -6
25z"/>
<path d="M6710 12712 c0 -7 -22 -59 -48 -115 -43 -90 -70 -137 -139 -237 -13
-19 -8 -16 20 9 20 19 38 33 40 30 2 -2 23 -62 45 -134 54 -170 193 -451 306
-620 48 -71 103 -163 122 -202 37 -79 51 -95 30 -35 -17 48 -71 140 -159 272
-39 57 -90 147 -115 200 -24 52 -60 129 -80 170 -20 41 -59 142 -87 225 l-50
150 70 137 c55 109 67 140 57 150 -9 9 -12 9 -12 0z"/>
<path d="M10059 12623 c-79 -103 -93 -123 -86 -123 4 0 143 180 160 207 4 7 6
13 4 13 -2 0 -37 -44 -78 -97z"/>
<path d="M10932 12680 c0 -14 2 -19 5 -12 2 6 2 18 0 25 -3 6 -5 1 -5 -13z"/>
<path d="M8812 12670 c0 -14 2 -19 5 -12 2 6 2 18 0 25 -3 6 -5 1 -5 -13z"/>
<path d="M8120 12675 c0 -5 5 -17 10 -25 5 -8 10 -10 10 -5 0 6 -5 17 -10 25
-5 8 -10 11 -10 5z"/>
<path d="M10195 12608 c-39 -40 -43 -46 -18 -29 27 18 82 81 71 81 -2 0 -26
-23 -53 -52z"/>
<path d="M10922 12630 c0 -14 2 -19 5 -12 2 6 2 18 0 25 -3 6 -5 1 -5 -13z"/>
<path d="M12212 12630 c0 -14 2 -19 5 -12 2 6 2 18 0 25 -3 6 -5 1 -5 -13z"/>
<path d="M10661 12627 c-2 -39 106 -307 123 -307 2 0 -13 40 -35 89 -21 49
-45 113 -54 142 -9 30 -20 63 -25 74 -8 18 -9 18 -9 2z"/>
<path d="M8140 12625 c0 -5 5 -17 10 -25 5 -8 10 -10 10 -5 0 6 -5 17 -10 25
-5 8 -10 11 -10 5z"/>
<path d="M8831 12594 c0 -11 3 -14 6 -6 3 7 2 16 -1 19 -3 4 -6 -2 -5 -13z"/>
<path d="M7251 12590 c0 -8 6 -28 14 -45 17 -39 18 -21 0 25 -7 19 -14 28 -14
20z"/>
<path d="M10912 12580 c0 -14 2 -19 5 -12 2 6 2 18 0 25 -3 6 -5 1 -5 -13z"/>
<path d="M8160 12574 c0 -6 7 -19 16 -30 14 -18 14 -18 3 6 -14 31 -19 36 -19
24z"/>
<path d="M12222 12555 c0 -16 2 -22 5 -12 2 9 2 23 0 30 -3 6 -5 -1 -5 -18z"/>
<path d="M7430 12539 c0 -6 18 -46 41 -89 47 -91 136 -193 212 -243 30 -20 59
-43 67 -51 11 -14 10 -15 -16 -3 -16 7 -44 20 -61 30 -18 10 -45 22 -60 27
l-28 10 23 -18 c30 -24 284 -132 308 -132 11 0 -10 15 -46 34 -96 50 -257 173
-307 236 -25 30 -62 89 -84 132 -38 75 -49 90 -49 67z"/>
<path d="M10903 12460 c0 -47 2 -66 4 -42 2 23 2 61 0 85 -2 23 -4 4 -4 -43z"/>
<path d="M12076 12428 c-54 -176 -78 -267 -73 -286 4 -13 5 -12 6 5 0 11 26
103 57 203 30 100 53 184 50 187 -2 3 -20 -46 -40 -109z"/>
<path d="M8207 12491 c34 -62 172 -218 269 -304 71 -63 123 -99 198 -136 95
-48 145 -64 131 -41 -3 6 -14 10 -23 10 -25 0 -133 53 -201 99 -83 57 -217
186 -292 282 -35 45 -72 91 -82 103 -18 20 -18 20 0 -13z"/>
<path d="M9365 12490 c9 -16 18 -30 21 -30 2 0 -2 14 -11 30 -9 17 -18 30 -21
30 -2 0 2 -13 11 -30z"/>
<path d="M12233 12485 c0 -22 2 -30 4 -17 2 12 2 30 0 40 -3 9 -5 -1 -4 -23z"/>
<path d="M8860 12503 c0 -25 92 -249 127 -306 51 -85 130 -175 209 -238 86
-69 164 -122 164 -112 -1 4 -37 33 -81 63 -91 62 -228 202 -277 283 -18 30
-57 115 -87 188 -30 74 -55 129 -55 122z"/>
<path d="M9269 12491 c31 -56 220 -221 255 -221 6 0 -14 17 -44 37 -30 20 -92
74 -138 121 -46 46 -79 75 -73 63z"/>
<path d="M7698 12465 c11 -22 30 -49 42 -60 14 -12 8 0 -15 35 -47 70 -52 75
-27 25z"/>
<path d="M7310 12443 c13 -23 41 -59 63 -80 37 -36 37 -34 -13 32 -70 91 -78
99 -50 48z"/>
<path d="M8801 12394 c-2 -46 40 -154 83 -211 69 -92 150 -164 304 -267 126
-85 162 -105 162 -92 0 2 -28 20 -62 41 -285 177 -420 319 -472 500 -8 28 -14
40 -15 29z"/>
<path d="M9899 12324 c-124 -104 -120 -100 -89 -84 47 24 217 170 198 170 -3
0 -52 -39 -109 -86z"/>
<path d="M9473 12346 c32 -31 63 -56 69 -56 11 0 -85 90 -111 103 -9 5 10 -17
42 -47z"/>
<path d="M7810 12331 c69 -60 295 -171 349 -171 14 0 -39 29 -74 40 -67 21
-190 86 -248 129 -69 52 -86 53 -27 2z"/>
<path d="M6412 12273 c-91 -69 -99 -82 -19 -29 65 43 114 83 107 88 -3 3 -42
-24 -88 -59z"/>
<path d="M7440 12301 c0 -9 64 -53 93 -64 29 -11 19 -1 -38 37 -30 20 -55 32
-55 27z"/>
<path d="M9793 12278 c-20 -26 -26 -41 -15 -34 12 7 36 46 29 46 -3 0 -9 -6
-14 -12z"/>
<path d="M11981 12041 c-13 -90 -6 -139 32 -203 26 -45 87 -109 87 -92 0 5
-16 25 -36 44 -61 57 -77 108 -71 228 3 56 4 102 2 102 -1 0 -8 -35 -14 -79z"/>
<path d="M7110 12080 c6 -11 13 -20 16 -20 2 0 0 9 -6 20 -6 11 -13 20 -16 20
-2 0 0 -9 6 -20z"/>
<path d="M7156 12000 c4 -8 27 -40 50 -70 66 -88 181 -178 335 -263 100 -56
96 -44 -7 17 -178 106 -258 173 -357 296 -16 19 -25 28 -21 20z"/>
<path d="M11790 11860 c0 -5 6 -10 13 -10 8 0 19 -11 25 -24 14 -30 81 -106
94 -106 5 0 -6 15 -24 34 -18 19 -44 52 -58 75 -23 38 -50 54 -50 31z"/>
<path d="M11771 11789 c0 -9 -19 -74 -42 -143 -22 -70 -39 -132 -36 -139 2 -6
14 23 26 64 13 41 32 102 43 136 11 35 17 71 15 80 -4 15 -5 15 -6 2z"/>
<path d="M12120 11726 c0 -3 9 -10 20 -16 11 -6 20 -8 20 -6 0 3 -9 10 -20 16
-11 6 -20 8 -20 6z"/>
<path d="M7060 11716 c0 -4 14 -43 31 -87 23 -60 28 -83 20 -93 -8 -10 -7 -34
4 -92 l15 -79 -6 73 c-3 47 -2 72 5 72 19 0 12 32 -25 120 -37 85 -44 99 -44
86z"/>
<path d="M12224 11665 c22 -17 40 -20 32 -6 -3 5 -16 11 -28 14 -22 6 -22 5
-4 -8z"/>
<path d="M11651 11424 c-12 -26 -19 -49 -16 -52 8 -9 23 16 35 57 14 50 7 48
-19 -5z"/>
</g>
</svg>
