<?xml version="1.0" standalone="no"?>
<!DOCTYPE svg PUBLIC "-//W3C//DTD SVG 20010904//EN"
 "http://www.w3.org/TR/2001/REC-SVG-20010904/DTD/svg10.dtd">
<svg version="1.0" xmlns="http://www.w3.org/2000/svg"
 width="1920.000000pt" height="1920.000000pt" viewBox="0 0 1920.000000 1920.000000"
 preserveAspectRatio="xMidYMid meet">

<g transform="translate(0.000000,1920.000000) scale(0.100000,-0.100000)"
fill="#000000" stroke="none">
<path d="M9325 16174 c-109 -12 -205 -38 -278 -75 l-77 -40 -78 22 c-137 39
-204 46 -351 38 -172 -9 -234 -20 -453 -74 -150 -37 -195 -54 -305 -108 -71
-36 -169 -92 -218 -125 -83 -56 -224 -186 -276 -257 -13 -16 -42 -51 -66 -77
-24 -26 -43 -53 -43 -61 0 -7 -19 -40 -41 -73 -234 -333 -725 -1170 -807
-1374 -17 -41 -44 -111 -62 -155 -35 -88 -266 -658 -380 -939 -46 -113 -88
-239 -116 -346 -40 -155 -112 -362 -135 -384 -5 -6 -9 -17 -9 -25 0 -9 -43
-144 -96 -301 -115 -345 -119 -359 -155 -535 -68 -325 -93 -616 -68 -791 33
-240 168 -578 296 -743 47 -61 71 -82 128 -112 100 -54 233 -87 400 -100 77
-6 145 -16 152 -22 6 -7 46 -86 88 -177 190 -410 217 -462 276 -520 30 -30 74
-81 97 -112 23 -31 74 -82 113 -113 95 -76 108 -114 66 -183 -13 -20 -29 -52
-35 -70 -15 -44 -152 -288 -215 -382 -107 -160 -209 -248 -366 -316 -92 -40
-104 -59 -35 -50 27 3 76 8 109 12 33 4 108 24 167 46 90 34 119 50 182 104
41 35 88 83 104 106 35 52 108 203 116 241 12 50 26 28 26 -41 0 -99 -19 -231
-39 -277 -22 -50 -120 -201 -155 -238 -14 -15 -33 -43 -42 -62 -26 -56 -167
-136 -301 -171 -7 -2 -13 -8 -13 -14 0 -6 54 -10 150 -10 146 0 152 1 208 29
79 40 152 100 182 149 27 45 44 52 59 23 6 -10 33 -33 61 -51 45 -29 56 -43
94 -124 51 -107 81 -148 156 -209 30 -25 141 -129 245 -232 190 -186 190 -187
304 -241 62 -30 126 -58 142 -61 23 -4 29 -11 29 -32 0 -40 -37 -174 -76 -274
-36 -95 -46 -152 -13 -77 39 87 87 236 99 307 11 66 14 74 46 92 48 29 69 80
55 137 -6 24 -11 87 -12 141 0 54 -4 120 -8 146 -5 32 -4 68 5 105 17 70 17
132 3 222 -11 66 -11 70 10 87 21 18 21 20 10 168 -33 458 -38 691 -17 900 14
146 17 633 5 738 -5 37 -13 67 -18 67 -5 0 -6 -23 -2 -57 11 -79 7 -706 -4
-768 -7 -39 -11 4 -17 200 -8 277 -22 511 -36 595 -11 63 -37 91 -172 187
-113 79 -236 222 -238 275 0 9 -6 21 -13 25 -29 19 -119 159 -153 240 -21 48
-48 104 -61 123 -12 20 -34 84 -47 145 -34 151 -74 225 -122 225 -19 0 -24 8
-35 58 -22 97 -16 239 20 452 31 183 33 205 28 358 -4 89 -3 160 2 158 4 -3
18 -36 31 -73 27 -80 168 -373 235 -488 198 -340 239 -452 249 -690 6 -120 4
-151 -13 -215 -10 -41 -15 -76 -10 -78 5 -2 9 -10 9 -18 0 -8 5 -14 10 -14 6
0 10 17 10 38 0 20 12 91 27 157 18 83 26 152 27 225 1 139 10 140 107 13 41
-54 103 -134 139 -178 36 -44 97 -127 135 -184 39 -57 85 -121 103 -142 64
-73 158 -392 193 -654 11 -87 7 -288 -7 -364 -4 -22 -3 -32 3 -28 6 4 16 49
23 102 17 127 7 259 -35 470 -37 188 -69 296 -122 418 -19 45 -54 130 -78 188
-53 130 -79 183 -157 313 -34 55 -66 110 -72 121 -6 11 -30 52 -52 90 -23 39
-63 108 -89 154 -27 46 -65 103 -86 127 -32 37 -49 80 -132 336 -127 387 -150
467 -192 666 -20 92 -47 219 -61 282 -36 170 -54 367 -54 596 0 208 9 254 29
147 14 -73 42 -129 62 -124 50 15 100 12 125 -8 16 -13 31 -18 36 -13 17 17
37 127 38 201 0 41 3 71 6 68 4 -3 24 -59 45 -123 21 -64 42 -121 46 -125 9
-9 177 32 212 51 40 21 44 59 22 191 -26 164 -36 289 -22 289 11 0 14 -13 35
-162 18 -125 66 -247 113 -289 33 -29 37 -30 96 -22 83 11 201 7 228 -8 38
-20 32 -35 157 371 60 195 87 298 98 384 4 25 11 46 17 46 13 0 4 -353 -13
-485 -7 -55 -25 -152 -41 -215 -16 -63 -30 -122 -32 -130 -2 -13 23 -15 173
-16 166 0 217 6 205 26 -3 5 4 31 14 58 55 138 105 407 113 606 4 78 22 82 38
9 26 -124 30 -149 45 -276 21 -171 53 -367 65 -392 5 -11 10 -28 12 -38 10
-61 45 29 47 123 1 43 14 80 25 70 2 -3 9 -49 14 -104 6 -63 15 -102 23 -108
8 -6 95 -7 215 -4 199 4 259 14 278 45 4 6 9 84 11 174 2 89 9 223 15 297 14
151 7 1020 -9 1195 -5 55 -7 102 -4 105 12 12 120 -152 182 -276 111 -224 177
-444 217 -729 13 -91 16 -188 15 -400 0 -154 -4 -305 -7 -335 -6 -47 -5 -53 8
-43 11 9 44 9 148 -2 174 -19 224 -19 307 1 51 12 105 15 218 12 137 -3 155
-6 207 -30 31 -14 61 -35 67 -46 6 -12 27 -79 45 -150 19 -71 53 -178 76 -238
23 -60 50 -136 61 -170 25 -78 107 -215 139 -231 14 -7 51 -13 83 -13 42 0 59
-4 63 -15 4 -8 10 -15 15 -15 5 0 9 7 9 15 0 28 43 15 95 -30 59 -50 78 -84
102 -181 11 -44 19 -61 23 -50 12 37 27 -9 33 -101 7 -116 -7 -171 -67 -265
-25 -39 -46 -77 -46 -83 0 -6 -43 -65 -95 -131 -52 -65 -109 -142 -125 -171
-39 -65 -83 -98 -139 -106 -26 -3 -54 -15 -70 -30 -14 -13 -39 -28 -56 -31
-78 -18 -96 -50 -136 -233 -55 -250 -139 -473 -254 -678 -37 -65 -45 -87 -41
-117 3 -30 -2 -45 -25 -75 -17 -21 -36 -42 -43 -48 -14 -11 -87 -98 -162 -195
-84 -108 -208 -401 -243 -577 -30 -144 -42 -348 -26 -426 8 -34 21 -127 30
-207 20 -179 39 -294 72 -430 14 -58 40 -181 57 -275 23 -117 37 -170 46 -170
7 0 19 -18 27 -40 7 -22 25 -74 39 -115 14 -41 35 -106 46 -145 12 -38 32 -99
45 -134 45 -118 45 -120 -36 -186 -38 -32 -68 -62 -65 -66 2 -4 30 2 62 13
104 37 99 40 168 -102 59 -121 155 -258 182 -259 22 -1 13 17 -32 67 -69 79
-193 323 -180 355 3 7 30 30 61 52 64 46 137 128 178 200 15 28 43 70 60 95
37 50 181 344 225 460 70 179 97 298 105 454 4 80 11 146 16 146 4 0 28 -20
52 -44 49 -48 161 -117 217 -134 113 -33 191 -44 323 -45 150 -2 185 9 99 32
-27 6 -103 38 -170 71 -104 50 -132 70 -207 141 -108 103 -154 173 -191 285
-23 71 -29 107 -29 179 0 80 3 96 29 145 15 30 40 69 55 88 35 45 247 222 266
222 25 0 208 95 288 149 76 51 109 87 212 226 32 44 80 105 106 135 55 65 93
138 143 280 38 106 43 120 122 310 23 58 55 157 71 220 25 108 27 128 26 325
-1 148 -6 235 -17 295 -9 47 -26 146 -37 220 -12 74 -25 143 -30 152 -5 10 -9
66 -9 125 0 104 -9 273 -30 565 -16 220 -84 517 -171 747 -21 58 -39 115 -39
128 0 31 -56 187 -120 338 -28 66 -96 228 -150 360 -54 132 -115 272 -136 310
-21 39 -73 138 -116 220 -111 210 -234 424 -268 465 -57 69 -96 120 -165 215
-38 53 -88 118 -110 144 -22 26 -77 92 -122 147 -75 90 -443 464 -457 464 -3
0 -50 33 -103 74 -178 133 -441 286 -638 369 -106 44 -339 122 -535 178 -166
48 -182 50 -315 54 -77 2 -158 1 -180 -1z m721 -1696 c22 -42 12 -45 -19 -5
-14 19 -23 37 -20 40 9 10 22 -2 39 -35z m308 -713 c5 -22 4 -26 -4 -15 -5 8
-10 24 -10 34 0 26 6 18 14 -19z m62 -307 c15 -70 19 -218 6 -218 -5 0 -12 44
-15 98 -4 54 -10 120 -13 148 -9 67 5 49 22 -28z m-2892 -1572 c9 -43 16 -86
16 -95 -1 -14 -2 -14 -15 2 -7 11 -17 49 -20 85 -4 37 -9 76 -12 87 -4 13 -2
17 5 10 5 -5 17 -45 26 -89z m-347 -125 c83 -83 94 -124 100 -386 5 -190 4
-210 -27 -400 -28 -170 -32 -215 -27 -310 3 -60 9 -122 13 -137 6 -25 4 -28
-19 -28 -15 0 -42 11 -62 25 -52 34 -142 66 -169 59 -22 -5 -25 -1 -40 68 -63
292 -59 560 14 780 21 64 59 163 83 220 25 56 48 118 52 136 4 17 10 32 14 32
5 0 35 -27 68 -59z m5780 -238 c-3 -10 -5 -2 -5 17 0 19 2 27 5 18 2 -10 2
-26 0 -35z m-5248 -316 c32 -101 38 -132 21 -122 -10 6 -42 110 -58 189 -15
74 2 42 37 -67z m5280 -630 c0 -222 -11 -284 -86 -472 -75 -189 -94 -225 -221
-417 -129 -194 -208 -289 -307 -367 -76 -61 -223 -147 -233 -136 -8 7 32 88
123 251 69 121 188 355 238 468 45 101 170 342 193 373 14 18 75 133 136 255
127 256 126 252 144 237 11 -9 14 -52 13 -192z m-7429 75 c54 -104 182 -266
310 -392 92 -92 130 -122 186 -148 38 -18 76 -37 84 -41 11 -6 17 -34 23 -97
13 -146 35 -254 62 -309 36 -74 34 -79 -22 -71 -115 15 -334 114 -419 189 -80
70 -201 347 -245 561 -12 55 -24 157 -28 226 -10 176 -5 186 49 82z m6832
-234 c-23 -68 -55 -168 -72 -223 -45 -141 -139 -323 -263 -510 -93 -142 -169
-245 -180 -245 -24 0 19 268 57 354 12 28 35 94 50 146 32 113 75 188 189 330
91 115 247 283 254 276 3 -2 -13 -60 -35 -128z m29 15 c-12 -20 -14 -14 -5 12
4 9 9 14 11 11 3 -2 0 -13 -6 -23z m-22 -72 c-16 -54 -24 -46 -9 9 6 23 14 40
16 37 3 -3 0 -24 -7 -46z m-4059 -421 c12 -23 12 -24 -3 -11 -10 7 -17 20 -17
29 0 18 3 16 20 -18z m3638 -425 c-10 -23 -28 -34 -28 -18 0 7 31 43 36 43 2
0 -2 -11 -8 -25z m167 -521 c-11 -8 -25 -12 -32 -9 -13 4 -125 -82 -225 -174
-26 -24 -48 -39 -48 -33 0 21 85 108 154 158 82 58 112 73 146 73 24 0 24 0 5
-15z m-815 -884 c18 -83 25 -373 11 -471 -27 -191 -50 -280 -143 -569 -46
-144 -189 -383 -214 -357 -3 3 -11 55 -17 116 -16 172 -4 237 72 364 33 56 76
138 97 182 20 44 46 103 59 130 67 146 96 291 102 519 3 87 8 154 13 150 4 -5
13 -34 20 -64z m-3680 -361 c60 -175 225 -499 254 -499 7 0 21 -9 32 -21 17
-19 20 -44 25 -213 4 -105 10 -210 14 -233 7 -41 7 -43 -18 -43 -56 0 -208
174 -271 311 -79 173 -138 420 -135 574 2 138 25 241 51 233 7 -3 28 -51 48
-109z m-1226 -84 c-35 -28 -75 -46 -92 -43 -11 3 5 15 43 35 61 32 84 35 49 8z
m1406 -255 c12 -23 12 -24 -3 -11 -10 7 -17 20 -17 29 0 18 3 16 20 -18z
m3100 -810 c0 -9 -32 -30 -46 -30 -4 0 1 9 11 20 19 21 35 26 35 10z"/>
</g>
</svg>
