<?xml version="1.0" standalone="no"?>
<!DOCTYPE svg PUBLIC "-//W3C//DTD SVG 20010904//EN"
 "http://www.w3.org/TR/2001/REC-SVG-20010904/DTD/svg10.dtd">
<svg version="1.0" xmlns="http://www.w3.org/2000/svg"
 width="1920.000000pt" height="1920.000000pt" viewBox="0 0 1920.000000 1920.000000"
 preserveAspectRatio="xMidYMid meet">

<g transform="translate(0.000000,1920.000000) scale(0.100000,-0.100000)"
fill="#000000" stroke="none">
<path d="M8705 16264 c-144 -12 -290 -38 -384 -70 -98 -33 -148 -58 -380 -192
-214 -124 -420 -280 -556 -423 -73 -76 -255 -307 -255 -324 0 -3 41 45 92 107
109 134 217 254 250 276 13 9 1 -8 -25 -38 -263 -299 -409 -498 -572 -780 -43
-74 -106 -180 -140 -235 -35 -55 -79 -142 -99 -193 -20 -51 -41 -101 -46 -110
-10 -17 -72 -170 -142 -347 -22 -55 -45 -113 -52 -130 -15 -34 -78 -195 -106
-270 -10 -27 -30 -81 -45 -120 -95 -244 -222 -633 -301 -925 -108 -398 -146
-562 -175 -750 -20 -132 -28 -520 -17 -840 l10 -305 -25 -94 c-21 -80 -23 -97
-11 -105 15 -12 16 -7 -36 -201 -38 -142 -50 -322 -31 -477 14 -121 71 -349
121 -487 52 -140 85 -272 120 -466 19 -111 38 -407 30 -485 -10 -93 -34 -182
-66 -237 -34 -59 -145 -338 -187 -468 -19 -60 -41 -144 -47 -185 -8 -44 -21
-84 -32 -96 -21 -24 -23 -35 -5 -29 9 4 12 -35 12 -172 1 -194 12 -274 65
-438 45 -141 77 -222 133 -333 49 -100 51 -105 32 -118 -10 -8 -15 -17 -12
-21 4 -4 13 -1 19 5 19 19 35 14 42 -12 3 -13 20 -60 36 -103 41 -107 193
-299 391 -493 81 -80 167 -174 190 -210 24 -36 55 -79 70 -97 15 -17 32 -49
39 -70 7 -21 32 -91 56 -156 24 -64 51 -142 59 -173 13 -52 13 -60 -5 -112
-11 -31 -20 -68 -20 -82 0 -42 -53 -140 -132 -241 -41 -53 -87 -125 -104 -160
-26 -58 -29 -74 -29 -169 0 -96 3 -114 38 -211 46 -131 47 -176 7 -255 -34
-68 -33 -64 -20 -64 21 0 62 91 67 147 4 49 -2 78 -37 188 -38 119 -41 137
-38 215 6 120 55 220 165 335 15 16 39 46 53 67 14 21 42 55 62 76 20 21 53
70 74 108 20 38 45 76 55 84 19 16 57 138 133 425 56 212 75 312 83 442 3 57
9 103 12 103 23 -2 148 -205 132 -215 -5 -2 -12 -22 -15 -42 -13 -71 -39 -138
-133 -341 -51 -112 -105 -236 -118 -277 -36 -106 -50 -250 -37 -372 15 -130
25 -161 78 -239 40 -58 45 -73 49 -132 8 -127 52 -219 172 -358 82 -95 206
-291 236 -372 23 -62 30 -206 13 -271 -6 -25 -5 -32 5 -29 7 2 23 35 36 74 12
38 30 81 38 97 13 21 16 52 14 140 -3 188 -43 273 -199 426 -96 95 -133 143
-128 167 3 16 358 -326 453 -436 44 -51 45 -52 25 -15 -62 109 -211 273 -369
405 -29 25 -71 67 -93 94 l-39 50 6 80 c12 158 46 258 128 385 70 107 104 148
247 296 107 112 135 148 194 253 39 67 76 139 82 160 50 147 65 345 40 511 -9
58 -16 123 -16 146 0 110 94 349 178 453 60 74 70 136 82 502 5 162 17 370 26
461 26 254 16 427 -46 854 -47 323 -50 359 -44 470 7 140 -10 430 -31 510 -25
95 -59 147 -182 276 -93 99 -137 156 -207 269 -115 185 -154 270 -211 459 -26
85 -55 176 -66 203 -10 27 -19 60 -19 73 0 46 -23 56 -114 49 -81 -7 -83 -6
-151 30 -37 20 -72 36 -77 36 -21 0 -103 66 -186 148 -78 78 -94 100 -149 212
-81 162 -107 280 -92 421 10 103 14 122 36 202 9 31 20 57 25 57 5 0 7 -9 3
-19 -3 -11 -1 -22 5 -26 6 -4 10 5 10 23 0 36 10 44 76 68 49 17 55 17 113 1
59 -17 63 -17 100 3 47 23 59 51 37 82 -23 33 -69 190 -58 197 5 3 14 20 20
36 6 17 31 77 57 135 26 58 66 157 89 220 24 63 68 169 99 235 31 66 77 174
103 240 67 174 214 458 278 540 30 39 83 111 117 160 76 110 150 191 249 275
41 35 107 93 145 130 89 84 209 166 300 203 32 13 8 -5 -105 -79 -245 -160
-487 -461 -679 -845 -139 -278 -251 -620 -276 -844 -4 -33 -15 -101 -25 -151
-24 -117 -36 -244 -23 -244 6 0 13 33 16 73 4 40 13 106 22 147 9 41 22 122
30 180 39 278 171 657 326 936 275 495 609 804 990 917 151 45 428 93 588 102
167 9 313 -28 303 -77 -6 -31 24 -19 49 19 22 34 35 40 169 85 196 66 213 69
341 52 373 -49 647 -229 791 -519 60 -120 87 -231 109 -440 28 -272 22 -345
-47 -547 -64 -185 -81 -251 -94 -362 -13 -106 -3 -229 26 -327 32 -107 131
-277 199 -339 15 -14 57 -68 93 -120 66 -95 157 -194 220 -241 26 -19 36 -35
43 -72 6 -34 20 -62 49 -94 75 -86 109 -234 77 -344 -9 -30 -19 -85 -23 -123
-6 -62 -13 -77 -60 -145 -407 -588 -718 -1099 -800 -1318 -39 -104 -83 -303
-78 -353 3 -28 -3 -74 -15 -120 l-20 -75 4 65 4 65 -14 -50 c-8 -27 -26 -115
-41 -195 -25 -136 -26 -157 -20 -335 10 -328 33 -473 110 -720 25 -77 58 -194
75 -260 17 -66 45 -148 61 -182 17 -34 30 -69 30 -77 0 -21 32 -86 42 -86 8 0
38 -53 38 -67 0 -4 -8 1 -17 12 -15 19 -15 19 -9 -8 4 -16 17 -45 30 -65 12
-20 34 -67 49 -105 26 -63 27 -77 28 -240 0 -115 6 -210 18 -287 l19 -115 -33
-50 c-92 -140 -150 -377 -176 -708 -19 -245 1 -486 52 -647 40 -125 202 -399
319 -540 81 -97 309 -320 327 -320 9 0 21 7 28 16 10 14 14 12 33 -20 24 -41
27 -50 12 -41 -14 9 -12 -1 3 -17 52 -55 119 -146 123 -167 3 -15 30 -59 59
-99 29 -40 67 -106 84 -146 81 -194 76 -459 -9 -541 -30 -29 -40 -65 -17 -65
16 0 69 65 97 120 l24 45 9 -40 c13 -60 2 -281 -17 -341 -9 -28 -38 -81 -66
-118 -27 -37 -50 -70 -50 -73 0 -3 21 12 46 32 43 35 46 36 39 14 -12 -41 -82
-176 -122 -236 -21 -32 -83 -112 -138 -178 -112 -136 -81 -120 65 31 133 139
211 311 270 594 20 101 21 110 7 229 -15 129 -14 140 25 226 45 101 48 348 6
500 -26 95 -29 159 -7 180 18 19 46 11 54 -16 7 -22 79 -113 140 -179 53 -57
110 -152 126 -210 8 -31 11 -103 8 -230 -9 -412 -6 -498 20 -582 25 -82 41
-93 41 -28 0 21 5 42 10 45 6 3 10 23 10 43 0 49 21 126 50 182 26 52 143 168
177 177 13 3 54 21 91 39 37 19 74 34 82 34 8 0 43 -28 77 -62 34 -34 66 -58
70 -54 5 4 -18 31 -50 59 -31 29 -57 57 -57 64 0 6 28 21 63 32 80 27 121 53
202 125 36 32 67 57 70 55 2 -3 0 -22 -5 -44 -5 -22 -10 -80 -10 -130 0 -97
24 -186 69 -255 13 -19 20 -26 16 -15 -41 112 -55 176 -55 255 0 84 11 150 31
202 13 32 67 48 167 48 l70 0 25 43 c14 23 57 68 96 101 39 32 71 66 71 76 0
67 24 239 36 258 28 44 89 46 120 4 15 -19 17 -95 5 -197 -7 -58 -6 -72 7 -80
8 -5 34 -24 58 -42 35 -26 43 -29 48 -16 5 13 9 13 23 2 15 -13 15 -12 4 9 -7
13 -10 28 -8 35 3 7 16 -13 31 -44 14 -30 41 -71 58 -91 61 -66 168 -161 174
-155 4 3 -21 37 -55 74 -34 37 -88 106 -119 152 l-57 85 1 120 c2 149 36 337
95 521 44 138 67 191 105 242 19 25 28 56 39 144 8 61 19 127 24 147 15 55 41
200 40 220 0 9 -7 -5 -14 -31 -7 -27 -16 -52 -20 -55 -4 -4 -3 79 2 183 4 105
7 305 6 445 -1 151 1 249 6 240 28 -47 48 -511 29 -665 -5 -35 -4 -54 1 -45
20 34 34 264 28 458 -7 235 -25 338 -149 842 -69 286 -202 609 -333 810 -27
41 -69 106 -94 145 -25 38 -90 115 -144 170 -55 55 -124 134 -155 175 -31 41
-86 116 -123 165 -60 81 -169 249 -169 261 0 8 -48 112 -96 209 -24 50 -45
101 -45 115 0 14 -7 43 -15 65 -51 134 -67 230 -94 536 -22 251 21 633 120
1059 79 344 118 777 87 971 -9 52 -23 144 -31 204 -25 167 -53 332 -66 380 -4
17 -13 57 -20 90 -13 61 -49 193 -77 275 -33 100 -76 239 -92 300 -10 36 -26
80 -35 99 -10 18 -20 48 -22 65 -9 71 -279 792 -463 1235 -66 157 -154 374
-196 481 -79 201 -111 262 -376 711 -136 231 -241 394 -323 499 -175 226 -191
243 -309 334 -255 196 -442 292 -705 361 -53 15 -119 30 -147 35 -27 6 -81 16
-120 25 -110 23 -281 30 -387 15 -107 -14 -134 -23 -166 -53 -17 -16 -25 -18
-34 -9 -7 7 -31 9 -69 5 -51 -5 -66 -2 -136 30 -43 19 -107 41 -143 47 -36 7
-103 21 -150 32 -84 20 -240 30 -345 22z m317 -36 c-9 -9 -15 -9 -24 0 -9 9
-7 12 12 12 19 0 21 -3 12 -12z m-1042 -238 c-30 -26 -60 -39 -60 -26 0 6 82
56 90 55 3 0 -11 -13 -30 -29z m3340 -5632 c-18 -29 -49 -84 -70 -123 -79
-149 -196 -356 -279 -494 -81 -135 -219 -408 -290 -575 -35 -82 -35 -44 -1 61
96 288 185 457 479 909 47 73 108 167 134 209 26 43 51 75 54 71 3 -3 -9 -29
-27 -58z m-5561 -921 c33 -139 38 -175 20 -145 -11 20 -79 275 -79 298 1 12 3
11 14 -3 8 -10 28 -77 45 -150z m170 -3317 c0 -10 -3 -8 -9 5 -12 27 -12 43 0
25 5 -8 9 -22 9 -30z m5091 30 c0 -5 -5 -10 -11 -10 -5 0 -7 5 -4 10 3 6 8 10
11 10 2 0 4 -4 4 -10z m-5010 -83 c0 -6 -9 -2 -20 8 -11 10 -20 23 -20 28 0 6
9 2 20 -8 11 -10 20 -23 20 -28z m1886 -482 c-6 -117 -23 -220 -45 -279 -18
-46 -20 -26 -4 44 7 36 16 144 19 240 3 96 8 186 11 200 13 51 25 -84 19 -205z
m3324 -26 c0 -9 16 -45 34 -81 19 -36 40 -87 47 -114 7 -27 19 -62 27 -79 8
-16 17 -61 18 -100 2 -38 8 -94 14 -124 5 -30 10 -76 10 -103 0 -101 181 -390
373 -596 45 -49 48 -54 34 -70 -36 -39 -49 -374 -22 -527 8 -43 13 -81 11 -83
-3 -3 -36 53 -218 368 -77 133 -176 298 -208 345 -43 64 -176 313 -211 395
-37 86 -53 204 -65 481 -6 138 -4 167 8 179 32 32 50 72 59 127 5 32 12 76 15
97 l7 39 34 -69 c18 -38 33 -76 33 -85z m-3937 -128 c33 -100 57 -234 57 -320
-1 -113 -21 -179 -99 -319 -81 -146 -112 -221 -141 -337 -12 -44 -25 -94 -30
-111 -6 -17 -10 -38 -10 -47 0 -51 -60 31 -87 119 -14 47 -18 93 -18 224 0
162 1 167 34 255 18 50 75 178 126 285 93 195 125 274 125 310 0 42 18 17 43
-59z m-554 -797 c-14 -18 -24 -11 -15 11 3 9 11 13 16 10 8 -5 7 -11 -1 -21z
m5063 -594 l-10 -55 -1 76 c0 42 2 79 7 83 11 12 14 -44 4 -104z m26 -350 c0
-9 -3 -7 -8 5 -5 11 -8 29 -8 40 0 16 2 15 8 -5 4 -14 8 -32 8 -40z m-4298
-385 c0 -11 -5 -27 -10 -35 -7 -11 -10 -1 -10 35 0 36 3 46 10 35 5 -8 10 -24
10 -35z"/>
<path d="M11197 5520 c9 -37 70 -178 88 -203 31 -45 12 10 -41 118 -29 61 -51
99 -47 85z"/>
<path d="M10621 9064 c0 -11 3 -14 6 -6 3 7 2 16 -1 19 -3 4 -6 -2 -5 -13z"/>
<path d="M10611 9024 c0 -11 3 -14 6 -6 3 7 2 16 -1 19 -3 4 -6 -2 -5 -13z"/>
<path d="M7805 3410 c16 -66 16 -151 0 -240 -27 -154 -28 -168 -14 -146 14 23
59 239 58 286 0 19 -11 55 -25 80 -15 27 -23 35 -19 20z"/>
<path d="M13527 2357 c-4 -10 -7 -35 -7 -56 0 -20 -7 -61 -16 -91 -26 -93 -28
-103 -16 -96 6 3 22 38 37 77 24 62 26 77 18 127 -6 40 -11 52 -16 39z"/>
<path d="M13425 2220 c-3 -5 -1 -10 4 -10 6 0 11 5 11 10 0 6 -2 10 -4 10 -3
0 -8 -4 -11 -10z"/>
</g>
</svg>
