<?xml version="1.0" standalone="no"?>
<!DOCTYPE svg PUBLIC "-//W3C//DTD SVG 20010904//EN"
 "http://www.w3.org/TR/2001/REC-SVG-20010904/DTD/svg10.dtd">
<svg version="1.0" xmlns="http://www.w3.org/2000/svg"
 width="1920.000000pt" height="1920.000000pt" viewBox="0 0 1920.000000 1920.000000"
 preserveAspectRatio="xMidYMid meet">

<g transform="translate(0.000000,1920.000000) scale(0.100000,-0.100000)"
fill="#000000" stroke="none">
<path d="M10350 16364 c-170 -18 -230 -31 -340 -75 -238 -95 -391 -215 -468
-363 -14 -28 -28 -67 -31 -86 -10 -58 -40 -48 -67 22 -7 20 -44 35 -106 44
-44 6 -46 5 -41 -15 7 -26 -27 -36 -85 -22 -86 19 -142 -18 -142 -92 l0 -39
-37 6 c-21 4 -60 9 -88 11 -27 3 -67 12 -87 21 -60 27 -239 14 -410 -29 -76
-19 -138 -33 -138 -31 0 2 33 28 73 57 39 30 114 93 166 140 59 53 112 92 140
103 25 10 51 23 56 30 16 21 100 35 163 28 68 -8 77 -12 136 -63 48 -42 185
-104 218 -99 12 2 -19 20 -83 48 -56 25 -130 64 -163 87 -58 41 -64 43 -135
43 -58 0 -101 -8 -190 -36 -124 -39 -171 -61 -245 -118 -27 -20 -59 -36 -74
-36 -27 0 -100 -29 -287 -113 -55 -24 -175 -70 -267 -100 -221 -73 -371 -155
-594 -323 -180 -135 -266 -237 -460 -542 -45 -70 -107 -176 -139 -237 -32 -60
-65 -123 -75 -140 -10 -16 -35 -70 -55 -120 -21 -49 -53 -112 -70 -140 -17
-27 -53 -90 -80 -140 -27 -49 -64 -106 -82 -126 -29 -32 -33 -43 -33 -91 0
-71 -15 -113 -89 -245 -34 -60 -61 -114 -61 -121 0 -6 -14 -41 -30 -76 -31
-66 -80 -201 -80 -220 1 -19 40 75 40 95 0 10 4 19 8 19 5 0 17 19 26 43 29
71 68 147 126 247 68 116 160 294 160 309 0 24 -26 9 -47 -27 -14 -24 -22 -31
-23 -19 0 10 33 73 73 140 105 174 151 261 187 352 18 44 47 105 65 135 18 30
54 98 80 150 42 85 76 140 244 395 86 131 361 391 500 472 53 31 107 65 121
75 14 10 36 20 49 23 13 2 54 16 90 30 36 13 122 45 191 71 203 75 239 89 359
143 63 28 118 50 123 49 12 -4 -203 -174 -275 -217 -34 -20 -92 -50 -129 -65
-80 -33 -157 -78 -239 -140 -32 -25 -85 -59 -117 -76 -194 -108 -266 -157
-319 -218 -117 -133 -198 -304 -227 -483 -57 -344 -49 -438 56 -625 136 -244
178 -365 178 -516 0 -51 2 -59 18 -56 12 2 18 14 19 43 8 124 15 165 29 165
18 0 18 13 -6 119 -59 266 -69 412 -38 541 48 196 372 605 594 750 90 59 146
76 394 124 102 20 217 46 255 59 109 37 122 39 139 21 33 -32 20 -69 -56 -157
-113 -129 -250 -295 -282 -341 -82 -116 -107 -145 -120 -140 -10 4 -23 -12
-41 -50 -14 -31 -37 -64 -51 -75 -25 -20 -30 -36 -15 -45 21 -13 416 176 646
309 50 28 148 83 219 121 92 49 150 87 198 133 38 35 70 62 73 60 6 -7 -54
-138 -165 -359 -107 -214 -243 -437 -345 -568 -59 -77 -60 -78 -87 -211 -15
-74 -26 -136 -24 -138 2 -2 76 32 164 76 293 147 448 312 646 693 68 130 106
188 106 162 0 -37 -22 -240 -31 -284 -20 -95 -58 -198 -166 -439 l-104 -234
56 -171 c31 -94 54 -182 53 -196 -2 -15 3 -25 12 -27 12 -3 44 53 117 199 145
289 207 455 240 643 21 120 12 533 -15 708 -10 65 -15 120 -11 122 7 5 173
-112 270 -191 37 -29 104 -94 150 -145 139 -152 156 -169 176 -169 22 0 23 2
103 213 l49 128 -95 157 c-52 86 -109 175 -126 197 -17 22 -35 45 -40 51 -15
20 38 45 230 109 157 52 184 59 195 47 7 -9 13 -55 15 -108 3 -72 -1 -110 -18
-171 -65 -237 -99 -335 -147 -431 -29 -58 -51 -108 -48 -111 4 -3 27 6 53 19
37 20 61 46 119 130 75 109 183 317 203 390 6 24 13 66 16 94 2 28 7 94 12
146 5 52 7 119 4 148 -2 28 0 52 5 52 4 0 22 -9 40 -20 66 -40 310 -150 365
-164 48 -12 74 -29 150 -95 51 -44 113 -103 137 -131 24 -29 94 -104 155 -168
114 -119 296 -345 419 -520 37 -53 85 -115 106 -137 50 -51 97 -146 121 -242
10 -42 24 -81 29 -86 6 -6 11 -18 11 -26 1 -9 10 -34 21 -56 l19 -40 -6 50
c-7 58 -31 149 -48 185 -15 29 -55 142 -65 181 -6 26 -70 89 -80 79 -7 -6
-134 162 -156 205 -25 48 -110 170 -115 165 -6 -5 -100 93 -100 105 0 4 -27
32 -60 62 -33 31 -60 63 -60 72 0 28 -75 121 -163 201 -45 41 -95 87 -111 102
-15 15 -38 30 -50 34 -11 4 -33 15 -48 26 -15 10 -73 39 -130 64 -57 26 -146
65 -199 89 -159 70 -194 98 -253 195 l-52 84 -84 37 c-47 21 -92 38 -100 38
-8 0 5 -9 30 -20 24 -11 47 -24 50 -28 3 -5 20 -16 38 -25 46 -24 130 -110
139 -143 5 -16 8 -113 7 -218 0 -224 -8 -264 -88 -431 -65 -135 -216 -365
-216 -329 0 4 9 20 21 36 12 17 35 72 53 123 18 51 35 97 39 102 3 5 21 59 41
119 44 137 57 266 41 381 -15 97 -21 110 -81 163 -61 53 -132 75 -212 65 -130
-16 -339 -101 -485 -198 -62 -42 -69 -43 -111 -17 -17 10 -62 29 -101 41 -38
12 -73 25 -77 29 -4 3 -11 41 -17 84 -6 49 -16 86 -26 97 -22 24 -15 94 16
173 51 129 305 297 554 367 87 24 109 22 38 -5 -127 -46 -394 -207 -483 -291
-55 -51 -114 -155 -105 -184 10 -33 32 -30 68 10 20 23 66 54 108 75 69 33
103 55 86 55 -17 0 -145 -70 -181 -99 -70 -56 -87 -20 -28 55 87 110 380 296
557 354 39 13 79 29 90 36 11 8 28 14 39 14 40 0 145 22 162 34 28 21 -1 23
-126 10z m135 -712 c17 -10 12 -11 -27 -6 -53 7 -176 -9 -287 -37 -42 -11 -85
-22 -96 -24 -11 -3 2 6 28 20 79 42 180 65 277 62 47 -2 94 -8 105 -15z
m-3118 -484 c-47 -46 -100 -94 -119 -108 l-33 -25 29 40 c50 68 109 126 156
150 25 13 47 24 49 25 1 0 -35 -37 -82 -82z m1744 -71 c-37 -39 -161 -121
-161 -107 0 8 178 140 189 140 3 0 -10 -15 -28 -33z m385 -297 c-85 -197 -267
-501 -342 -570 l-37 -35 45 60 c126 167 250 390 316 565 11 30 26 69 33 85
l13 30 4 -27 c2 -16 -11 -60 -32 -108z m-2296 -860 c6 -11 8 -20 6 -20 -3 0
-10 9 -16 20 -6 11 -8 20 -6 20 3 0 10 -9 16 -20z m40 -85 c0 -5 -5 -3 -10 5
-5 8 -10 20 -10 25 0 6 5 3 10 -5 5 -8 10 -19 10 -25z"/>
<path d="M10008 15993 c23 -2 59 -2 80 0 20 2 1 4 -43 4 -44 0 -61 -2 -37 -4z"/>
<path d="M9905 15980 c-25 -11 1 -11 35 0 20 6 21 8 5 8 -11 0 -29 -3 -40 -8z"/>
<path d="M10178 15983 c18 -2 45 -2 60 0 15 2 0 4 -33 4 -33 0 -45 -2 -27 -4z"/>
<path d="M10288 15973 c12 -2 30 -2 40 0 9 3 -1 5 -23 4 -22 0 -30 -2 -17 -4z"/>
<path d="M9858 15963 c7 -3 16 -2 19 1 4 3 -2 6 -13 5 -11 0 -14 -3 -6 -6z"/>
<path d="M10358 15963 c6 -2 18 -2 25 0 6 3 1 5 -13 5 -14 0 -19 -2 -12 -5z"/>
<path d="M10415 15950 c27 -12 43 -12 25 0 -8 5 -22 9 -30 9 -10 0 -8 -3 5 -9z"/>
<path d="M10468 15933 c7 -3 16 -2 19 1 4 3 -2 6 -13 5 -11 0 -14 -3 -6 -6z"/>
<path d="M12120 14342 c0 -4 21 -43 46 -87 64 -112 108 -201 159 -318 69 -162
80 -204 80 -292 -1 -304 -9 -525 -22 -620 -8 -60 -19 -138 -23 -172 -4 -34
-16 -79 -27 -100 -11 -21 -32 -76 -48 -123 -15 -47 -47 -137 -71 -200 -68
-183 -96 -293 -96 -378 0 -41 4 -77 9 -81 5 -3 19 -23 31 -43 13 -20 50 -61
82 -92 59 -54 75 -75 44 -58 -26 15 -105 -5 -136 -35 -30 -28 -48 -73 -49
-119 0 -16 -1 -58 -2 -93 l0 -63 -23 43 c-42 79 -66 153 -78 234 -9 58 -16 80
-27 80 -18 0 -15 -73 6 -156 24 -95 116 -278 169 -334 26 -27 61 -65 77 -82
l30 -33 -33 0 c-48 1 -173 18 -219 30 -22 6 -57 27 -78 46 -21 18 -43 34 -49
34 -18 0 -21 -27 -6 -49 8 -12 17 -30 19 -41 2 -11 16 -36 31 -55 31 -41 19
-45 -48 -16 -53 23 -87 59 -124 131 -36 69 -45 185 -20 276 63 238 76 289 76
311 0 26 -42 71 -195 206 -172 152 -254 235 -248 255 4 17 -3 20 -49 26 -87
11 -150 49 -255 153 -52 51 -100 92 -107 90 -23 -7 -16 -44 26 -127 23 -47 44
-89 46 -93 13 -28 -238 134 -445 287 -82 60 -179 130 -218 156 -38 26 -125
100 -192 164 -118 113 -143 131 -143 102 0 -20 200 -208 299 -280 46 -33 136
-100 200 -147 64 -47 145 -105 181 -130 56 -38 71 -55 105 -121 22 -42 47 -84
56 -95 8 -10 25 -35 38 -57 58 -103 -32 -102 -269 1 -47 21 -105 49 -130 64
-25 14 -83 40 -127 56 -108 40 -151 66 -254 155 -127 108 -265 262 -317 351
-25 43 -50 76 -56 74 -6 -2 -22 -47 -35 -100 -19 -75 -28 -97 -44 -101 -18 -4
-19 -10 -13 -78 19 -204 70 -422 110 -468 8 -8 23 -34 35 -57 12 -24 24 -43
26 -43 3 0 -10 30 -28 68 -56 110 -109 306 -94 345 2 7 1 35 -3 62 -4 28 -7
51 -6 52 2 2 23 -27 49 -65 92 -134 368 -347 494 -381 87 -24 152 -61 199
-117 69 -80 83 -51 29 59 -27 52 -24 54 30 32 20 -9 55 -20 78 -24 169 -35
242 -53 301 -75 86 -33 104 -33 116 0 l10 25 53 -29 c67 -38 124 -56 276 -87
70 -14 133 -32 143 -42 10 -9 29 -35 41 -57 13 -23 38 -64 55 -91 44 -68 63
-170 67 -340 2 -109 8 -159 26 -224 22 -82 23 -83 68 -103 122 -53 140 -73
104 -113 -10 -11 -57 -65 -104 -120 -119 -138 -180 -193 -279 -251 -47 -28
-92 -53 -101 -56 -12 -5 -18 -26 -23 -80 -11 -108 -40 -222 -107 -423 -70
-208 -148 -374 -249 -530 -53 -82 -69 -115 -64 -130 4 -11 10 -132 14 -270 6
-227 8 -255 29 -307 15 -40 28 -58 40 -58 23 0 48 27 56 63 5 20 44 57 139
132 146 117 180 136 248 143 41 4 57 -1 132 -42 47 -25 89 -46 92 -46 18 0
-79 66 -134 93 -105 49 -170 27 -356 -119 l-108 -85 5 38 c3 21 21 94 41 163
39 135 81 336 91 440 4 36 22 124 40 195 18 72 41 175 50 230 9 55 34 157 56
228 38 119 44 130 87 169 103 93 172 169 266 293 121 159 122 160 102 110 -21
-51 -72 -128 -153 -232 -35 -46 -78 -113 -96 -150 -31 -67 -32 -70 -29 -205 1
-76 8 -168 16 -205 8 -38 22 -99 30 -138 33 -147 14 -332 -46 -449 -29 -57
-97 -143 -152 -192 -46 -41 -58 -64 -33 -64 20 0 146 131 189 197 44 67 74
156 89 263 13 91 6 172 -27 310 -19 76 -27 141 -29 235 -4 118 -3 126 8 85 7
-25 18 -56 24 -70 6 -14 30 -81 53 -150 79 -235 118 -296 229 -354 52 -27 73
-44 77 -62 10 -39 -3 -111 -31 -172 -29 -62 -30 -72 -12 -72 7 0 23 21 36 47
l23 48 24 -30 c13 -17 24 -32 24 -35 0 -3 10 -11 21 -19 18 -11 14 1 -20 63
-29 54 -40 83 -35 100 8 35 -12 99 -42 127 -66 61 -191 274 -253 431 -74 190
-65 287 46 476 24 41 43 76 43 78 0 3 18 32 41 65 39 58 119 224 119 248 0 6
-4 11 -10 11 -5 0 -10 7 -10 15 0 20 2 20 55 -14 55 -35 134 -56 167 -45 13 4
26 8 30 9 29 2 -17 53 -136 148 -55 46 -132 140 -118 145 6 2 25 -4 42 -13 36
-18 65 -22 240 -31 l125 -6 -35 29 c-115 92 -162 152 -140 178 8 10 8 24 1 52
-18 64 -13 133 14 191 28 60 29 66 15 57 -5 -3 -10 -1 -10 5 0 7 9 14 20 17
11 3 20 9 20 14 0 5 13 9 29 9 36 0 91 19 91 32 0 5 -24 42 -54 81 -64 86
-105 178 -108 245 -2 40 5 64 40 131 23 46 40 87 37 91 -3 4 4 33 15 64 10 31
16 56 12 56 -3 0 -1 5 5 11 6 6 9 18 6 27 -4 10 -2 13 5 8 6 -4 18 3 26 16 20
31 53 167 61 253 4 39 10 88 15 110 22 99 31 233 40 545 l9 334 -25 52 c-13
28 -24 54 -24 58 0 4 -13 35 -29 69 -16 34 -47 100 -68 147 -22 47 -59 116
-82 154 -24 38 -47 80 -52 93 -8 21 -29 33 -29 15z m197 -1724 c-3 -8 -6 -5
-6 6 -1 11 2 17 5 13 3 -3 4 -12 1 -19z m-20 -70 c-3 -8 -6 -5 -6 6 -1 11 2
17 5 13 3 -3 4 -12 1 -19z m-2426 -55 c13 -16 12 -17 -3 -4 -10 7 -18 15 -18
17 0 8 8 3 21 -13z m124 -113 c3 -5 2 -10 -4 -10 -5 0 -13 5 -16 10 -3 6 -2
10 4 10 5 0 13 -4 16 -10z m445 -230 c0 -5 -4 -10 -10 -10 -5 0 -10 5 -10 10
0 6 5 10 10 10 6 0 10 -4 10 -10z m45 -70 c3 -5 1 -10 -4 -10 -6 0 -11 5 -11
10 0 6 2 10 4 10 3 0 8 -4 11 -10z m1109 -226 c9 -24 7 -28 -9 -14 -17 14 -20
30 -6 30 5 0 12 -7 15 -16z"/>
<path d="M6960 13986 c-19 -18 -70 -66 -113 -106 -89 -85 -175 -211 -247 -363
-61 -128 -79 -182 -93 -279 -9 -65 -8 -88 7 -155 10 -43 19 -110 21 -149 2
-46 11 -87 24 -118 12 -26 31 -88 41 -137 31 -143 79 -229 137 -243 35 -9 44
7 37 69 -8 70 -26 119 -105 281 -38 78 -83 184 -100 235 -29 85 -31 102 -26
184 7 133 55 259 173 455 69 115 125 181 222 260 45 38 72 68 72 80 0 27 -9
25 -50 -14z"/>
<path d="M8300 13996 c-14 -12 -41 -42 -60 -67 -60 -78 -331 -357 -410 -421
-97 -79 -186 -121 -268 -128 -34 -3 -63 -9 -65 -15 -1 -5 16 -16 38 -23 52
-18 179 -10 265 17 63 20 217 115 353 217 31 24 97 68 145 98 110 68 127 86
124 134 -2 42 -64 192 -84 203 -8 4 -23 -2 -38 -15z m66 -213 c-10 -10 -19 5
-10 18 6 11 8 11 12 0 2 -7 1 -15 -2 -18z"/>
<path d="M12392 13935 c0 -11 4 -31 8 -45 6 -20 8 -21 8 -5 0 11 -4 31 -8 45
-6 20 -8 21 -8 5z"/>
<path d="M12411 13834 c0 -11 3 -14 6 -6 3 7 2 16 -1 19 -3 4 -6 -2 -5 -13z"/>
<path d="M6395 13458 c-3 -13 -9 -66 -15 -118 -9 -93 -19 -155 -61 -393 -18
-99 -21 -144 -16 -270 3 -84 8 -163 13 -176 5 -17 4 -22 -4 -17 -7 4 -17 -14
-28 -50 -16 -56 -16 -59 11 -173 38 -161 72 -259 160 -459 41 -96 82 -203 90
-238 16 -71 20 -150 7 -158 -5 -3 -21 20 -36 51 -42 86 -97 164 -193 274 -141
161 -163 190 -199 264 -51 106 -64 182 -64 396 0 157 -2 188 -15 193 -55 21
-104 -236 -76 -400 18 -108 40 -174 56 -174 19 0 19 2 -7 107 -23 93 -28 261
-10 333 6 26 10 -4 15 -125 9 -230 43 -338 143 -460 44 -55 45 -57 28 -76 -17
-19 -17 -22 -1 -67 18 -50 61 -262 54 -268 -16 -16 -160 221 -201 329 -10 26
-22 47 -27 47 -5 0 -9 12 -9 26 0 14 -13 58 -29 97 -28 70 -49 151 -72 272 -6
33 -14 159 -16 280 -6 239 -1 285 56 512 16 61 25 116 21 123 -9 15 -76 -194
-91 -285 -19 -119 -13 -500 10 -635 34 -195 130 -458 238 -648 76 -134 81
-140 178 -207 48 -33 116 -86 151 -117 35 -32 71 -58 80 -58 15 0 16 -10 10
-95 -4 -65 -3 -95 4 -95 6 0 8 -5 5 -10 -4 -6 -11 -8 -16 -5 -5 4 -9 -4 -9
-16 l0 -22 24 22 c14 13 42 52 63 88 l37 65 18 -22 c10 -12 18 -27 18 -34 0
-6 34 -63 75 -126 59 -89 75 -121 73 -145 -4 -37 -42 -49 -53 -16 -3 10 -12
24 -19 30 -7 6 0 -15 16 -47 41 -85 61 -174 61 -284 1 -54 5 -98 9 -98 4 0 8
-5 8 -11 0 -6 -7 -9 -15 -5 -10 3 -15 -1 -15 -11 0 -17 -36 -156 -72 -273 -51
-171 -154 -329 -258 -398 -68 -44 -83 -62 -55 -62 32 0 133 81 178 143 18 25
32 36 36 28 11 -18 132 156 203 291 l33 63 7 -75 c8 -84 -4 -215 -27 -304 -24
-90 -78 -171 -187 -278 l-98 -98 20 -20 c11 -11 20 -29 20 -40 0 -30 21 -33
77 -11 48 19 52 19 65 3 8 -9 23 -39 33 -67 33 -94 63 -133 135 -181 55 -37
84 -49 143 -59 42 -7 89 -16 106 -20 17 -4 31 -3 31 2 0 5 -22 15 -49 21 -55
13 -155 68 -190 106 -35 37 -20 42 32 12 72 -43 149 -58 327 -66 168 -7 184
-10 300 -62 25 -12 56 -24 70 -29 165 -56 165 -56 168 -81 4 -33 -81 -144
-142 -186 -48 -32 -149 -67 -276 -97 -49 -11 -54 -13 -20 -10 76 9 225 55 286
89 49 27 70 48 124 125 l65 93 130 -4 c72 -3 106 -3 78 -1 -29 2 -53 7 -53 10
0 3 12 30 26 60 23 47 26 62 22 126 -3 42 -13 91 -25 117 -22 50 -127 170
-148 170 -29 0 -254 286 -331 422 -44 76 -104 212 -104 233 0 5 -16 25 -35 45
-31 32 -38 49 -55 132 -10 52 -28 111 -39 129 -28 48 -61 164 -61 213 0 53
-31 103 -75 122 -19 8 -35 18 -35 23 0 5 8 37 19 72 20 70 47 266 37 276 -3 4
-6 -7 -6 -23 0 -16 -4 -35 -9 -43 -8 -12 -9 59 -3 187 3 63 22 31 24 -40 l1
-73 7 90 c8 104 35 351 50 445 16 105 57 223 94 272 38 50 199 170 286 213 30
15 109 60 175 100 67 40 235 137 375 215 140 78 296 169 345 200 260 169 331
218 410 286 48 41 89 74 90 74 2 0 -3 -21 -11 -47 -27 -89 -143 -307 -211
-397 -59 -77 -80 -96 -163 -147 -139 -86 -128 -78 -109 -78 8 -1 60 26 115 58
227 136 356 286 532 621 l59 111 7 -88 c8 -104 27 -181 61 -255 21 -44 25 -49
25 -26 0 15 -9 61 -20 101 -22 80 -39 231 -40 345 0 39 -3 72 -7 72 -20 0 -53
-56 -53 -89 0 -84 -237 -500 -353 -619 -61 -63 -107 -94 -67 -45 14 16 41 56
60 88 19 32 45 68 56 79 12 12 36 50 54 85 41 82 190 412 190 422 0 4 -7 9
-15 12 -10 4 -25 -14 -51 -64 -28 -52 -58 -89 -116 -142 -91 -83 -232 -186
-361 -264 -51 -30 -128 -80 -172 -111 -44 -31 -152 -94 -240 -140 -171 -90
-331 -188 -380 -233 -16 -15 -77 -53 -135 -85 -58 -31 -127 -71 -155 -89 -27
-18 -71 -44 -96 -58 -44 -25 -95 -75 -131 -127 -13 -19 -17 -21 -17 -8 -1 16
56 88 104 133 22 21 105 139 105 150 0 4 -8 4 -17 2 -10 -3 -73 -15 -140 -27
l-122 -22 -94 -176 c-121 -226 -153 -300 -188 -436 -15 -61 -35 -136 -44 -166
-39 -132 -45 -155 -45 -172 0 -9 -5 -20 -12 -24 -8 -5 -10 6 -5 42 9 78 -10
320 -32 423 -11 51 -34 121 -50 154 -25 55 -27 63 -13 73 14 11 12 17 -24 55
-54 60 -116 149 -219 314 -48 77 -106 159 -129 181 -60 59 -92 159 -101 319
-9 141 7 256 60 460 36 135 62 311 52 339 -10 24 -46 20 -52 -6z m882 -1960
c-3 -8 -6 -5 -6 6 -1 11 2 17 5 13 3 -3 4 -12 1 -19z m-547 -65 c-11 -17 -11
-17 -6 0 3 10 6 24 7 30 0 9 2 9 5 0 3 -7 0 -20 -6 -30z m343 -700 c74 -47 88
-63 75 -86 -15 -28 -5 -84 39 -217 l38 -115 -1 -210 c-1 -263 -34 -519 -90
-713 -13 -47 -21 -57 -69 -88 -30 -19 -78 -39 -106 -44 -62 -12 -73 -18 -61
-33 5 -7 12 -24 16 -38 3 -15 26 -50 52 -78 25 -28 44 -51 41 -51 -50 0 -139
99 -182 200 -40 97 -52 106 -112 89 -27 -7 -50 -13 -53 -13 -3 -1 -5 10 -6 24
-1 14 -4 32 -7 40 -4 10 10 27 42 52 102 77 206 254 236 400 26 133 17 340
-17 346 -16 3 -22 -5 -98 -140 -24 -43 -45 -77 -46 -75 -2 1 17 52 41 112 73
183 97 276 102 403 3 61 9 112 14 112 4 0 9 -10 11 -22 5 -39 32 -27 38 17 5
36 49 155 57 155 2 0 22 -12 46 -27z m-174 -56 c1 -10 -3 -15 -9 -12 -5 3 -10
21 -9 38 0 27 2 29 9 12 5 -11 9 -28 9 -38z"/>
<path d="M8190 13342 c0 -16 -9 -41 -20 -55 -26 -33 -187 -134 -315 -197 -252
-125 -418 -176 -608 -187 -97 -6 -100 -5 -168 27 -85 42 -111 31 -51 -21 63
-55 158 -126 232 -173 127 -81 148 -141 62 -185 -49 -25 -217 -200 -267 -279
-24 -37 -49 -65 -62 -68 -14 -4 -23 -14 -23 -25 0 -16 7 -19 41 -19 22 0 49 5
60 10 10 6 68 19 127 30 169 30 275 65 427 139 223 108 541 335 635 453 82
103 117 208 69 208 -16 0 -19 -4 -14 -20 17 -53 -72 -174 -213 -291 -234 -194
-510 -350 -729 -413 -113 -32 -213 -52 -213 -43 0 3 51 42 113 88 207 154 262
205 373 345 59 74 121 143 138 153 17 11 59 28 94 40 34 11 76 30 93 42 40 28
25 45 -22 26 -19 -8 -112 -40 -208 -72 -170 -56 -175 -57 -265 -53 -88 4 -256
44 -256 60 0 5 23 8 51 8 190 0 540 135 819 315 105 68 133 100 128 147 -4 41
-28 50 -28 10z m-696 -800 c-33 -32 -76 -69 -95 -82 -29 -20 -27 -16 16 30 48
50 121 110 134 110 3 -1 -21 -27 -55 -58z"/>
<path d="M11888 13343 c-21 -24 -54 -92 -86 -178 -26 -68 -27 -76 -28 -320 -1
-192 2 -262 13 -303 16 -57 8 -82 -26 -82 -22 0 -158 156 -198 228 -49 85 -94
198 -113 280 -10 40 -30 91 -46 113 -33 49 -197 189 -219 189 -20 0 -18 -7 47
-170 28 -69 63 -162 79 -208 58 -169 155 -338 253 -440 91 -96 252 -209 281
-198 7 2 16 29 19 58 4 29 13 82 21 118 28 134 45 238 55 346 6 61 14 131 18
156 9 48 -11 303 -28 352 -6 16 -10 40 -10 52 0 28 -11 31 -32 7z"/>
<path d="M6170 12652 c0 -250 19 -351 95 -514 14 -32 30 -58 35 -58 22 0 18
25 -19 107 -22 48 -44 106 -50 128 -17 69 -31 229 -31 365 0 109 -2 130 -15
130 -13 0 -15 -24 -15 -158z"/>
<path d="M9410 12673 c0 -30 74 -233 116 -313 87 -170 178 -295 260 -360 42
-33 85 -65 97 -72 24 -13 87 -38 99 -38 4 0 -18 35 -48 78 -31 42 -65 94 -75
115 -11 20 -22 37 -24 37 -12 0 63 -127 99 -167 37 -43 8 -34 -60 19 -120 93
-177 157 -264 298 -87 142 -115 197 -154 310 -26 73 -45 113 -46 93z"/>
<path d="M6635 9740 c-9 -16 -20 -30 -25 -30 -12 0 -44 -60 -36 -68 3 -3 7 -3
9 -1 36 52 80 129 73 129 -3 0 -12 -13 -21 -30z"/>
<path d="M12057 9337 c6 -37 4 -39 -109 -152 -104 -102 -122 -116 -179 -135
l-64 -21 56 5 c78 6 111 27 213 133 73 76 89 99 93 131 3 22 0 48 -5 58 -9 15
-10 11 -5 -19z"/>
<path d="M11678 9043 c7 -3 16 -2 19 1 4 3 -2 6 -13 5 -11 0 -14 -3 -6 -6z"/>
<path d="M7875 8797 c-53 -87 -85 -166 -84 -207 0 -14 8 4 17 40 10 37 40 103
70 153 30 49 52 91 50 93 -3 2 -26 -33 -53 -79z"/>
<path d="M7353 8593 c9 -2 23 -2 30 0 6 3 -1 5 -18 5 -16 0 -22 -2 -12 -5z"/>
<path d="M7782 8530 c0 -19 2 -27 5 -17 2 9 2 25 0 35 -3 9 -5 1 -5 -18z"/>
<path d="M7782 8440 c0 -14 2 -19 5 -12 2 6 2 18 0 25 -3 6 -5 1 -5 -13z"/>
<path d="M7800 8375 c0 -5 5 -17 10 -25 5 -8 10 -10 10 -5 0 6 -5 17 -10 25
-5 8 -10 11 -10 5z"/>
</g>
</svg>
